<svg width="302" height="82" viewBox="0 0 302 82" fill="none" xmlns="http://www.w3.org/2000/svg">
<path d="M12.6914 11.7832L14.5917 12.4067L14.6546 12.215L14.678 12.0146L12.6914 11.7832ZM5.73047 33V35H7.17919L7.63081 33.6235L5.73047 33ZM0.123047 33L-1.75172 32.3034L-2.75368 35H0.123047V33ZM9.63281 7.40625V5.40625H8.24234L7.75805 6.70965L9.63281 7.40625ZM13.2012 7.40625L15.1877 7.63762L15.4476 5.40625H13.2012V7.40625ZM18.4746 33L16.5747 33.6249L17.027 35H18.4746V33ZM11.4961 11.7832L9.51241 12.0381L9.53669 12.2271L9.59622 12.4081L11.4961 11.7832ZM10.9336 7.40625V5.40625H8.66012L8.94991 7.66118L10.9336 7.40625ZM14.5371 7.40625L16.4106 6.70626L15.9249 5.40625H14.5371V7.40625ZM24.0996 33V35H26.9819L25.9731 32.3L24.0996 33ZM18.1582 23.4727H20.1582V21.4727H18.1582V23.4727ZM18.1582 27.6035V29.6035H20.1582V27.6035H18.1582ZM4.64062 27.6035H2.64062V29.6035H4.64062V27.6035ZM4.64062 23.4727V21.4727H2.64062V23.4727H4.64062ZM10.7911 11.1597L3.83013 32.3765L7.63081 33.6235L14.5917 12.4067L10.7911 11.1597ZM5.73047 31H0.123047V35H5.73047V31ZM1.99781 33.6966L11.5076 8.10285L7.75805 6.70965L-1.75172 32.3034L1.99781 33.6966ZM9.63281 9.40625H13.2012V5.40625H9.63281V9.40625ZM11.2146 7.17488L10.7048 11.5518L14.678 12.0146L15.1877 7.63762L11.2146 7.17488ZM20.3745 32.3751L13.396 11.1583L9.59622 12.4081L16.5747 33.6249L20.3745 32.3751ZM13.4798 11.5283L12.9173 7.15132L8.94991 7.66118L9.51241 12.0381L13.4798 11.5283ZM10.9336 9.40625H14.5371V5.40625H10.9336V9.40625ZM12.6636 8.10624L22.2261 33.7L25.9731 32.3L16.4106 6.70626L12.6636 8.10624ZM24.0996 31H18.4746V35H24.0996V31ZM16.1582 23.4727V27.6035H20.1582V23.4727H16.1582ZM18.1582 25.6035H4.64062V29.6035H18.1582V25.6035ZM6.64062 27.6035V23.4727H2.64062V27.6035H6.64062ZM4.64062 25.4727H18.1582V21.4727H4.64062V25.4727ZM36.4753 28.4473H34.4753V28.5128L34.4796 28.5783L36.4753 28.4473ZM36.4753 13.9805V11.9805H34.4753V13.9805H36.4753ZM41.5378 13.9805H43.5378V11.9805H41.5378V13.9805ZM41.5378 33V35H43.5378V33H41.5378ZM36.7741 33L34.7784 33.131L34.9011 35H36.7741V33ZM37.0378 24.5449L36.9908 22.5455L35.0378 22.5914V24.5449H37.0378ZM38.532 24.5098H40.532V22.4622L38.4849 22.5103L38.532 24.5098ZM38.0925 28.043L40.0225 28.5674L40.0239 28.5622L38.0925 28.043ZM36.7741 30.8555L38.377 32.0516L38.3812 32.046L38.3854 32.0402L36.7741 30.8555ZM34.5593 32.7012L35.4347 34.4994L35.4443 34.4948L35.4537 34.49L34.5593 32.7012ZM28.8464 32.9648L28.1883 34.8535L28.2053 34.8594L28.2225 34.865L28.8464 32.9648ZM26.8425 31.7168L25.3991 33.1012L25.4136 33.1163L25.4283 33.131L26.8425 31.7168ZM25.5417 29.5195L23.6468 30.1594L23.6519 30.1743L23.6571 30.1891L25.5417 29.5195ZM25.0847 13.9805V11.9805H23.0847V13.9805H25.0847ZM30.1472 13.9805H32.1472V11.9805H30.1472V13.9805ZM30.3405 27.7266L28.4432 28.359L28.4517 28.3847L28.461 28.41L30.3405 27.7266ZM31.782 29.2031L31.1699 31.1072L31.1795 31.1103L31.1892 31.1133L31.782 29.2031ZM35.3679 28.7285L34.2295 27.0841L34.222 27.0893L34.2145 27.0946L35.3679 28.7285ZM36.6511 27.0059L34.7629 26.3465L34.7598 26.3554L34.7568 26.3642L36.6511 27.0059ZM38.4753 28.4473V13.9805H34.4753V28.4473H38.4753ZM36.4753 15.9805H41.5378V11.9805H36.4753V15.9805ZM39.5378 13.9805V33H43.5378V13.9805H39.5378ZM41.5378 31H36.7741V35H41.5378V31ZM38.7698 32.869L38.471 28.3163L34.4796 28.5783L34.7784 33.131L38.7698 32.869ZM37.0849 26.5444L38.579 26.5092L38.4849 22.5103L36.9908 22.5455L37.0849 26.5444ZM36.532 24.5098C36.532 25.621 36.4034 26.6223 36.1611 27.5238L40.0239 28.5622C40.3675 27.2839 40.532 25.9298 40.532 24.5098H36.532ZM36.1625 27.5185C35.9258 28.3894 35.5851 29.0964 35.1628 29.6707L38.3854 32.0402C39.1351 31.0208 39.6732 29.8528 40.0225 28.5674L36.1625 27.5185ZM35.1713 29.6593C34.7752 30.1901 34.2811 30.6042 33.6649 30.9123L35.4537 34.49C36.6188 33.9075 37.6013 33.0911 38.377 32.0516L35.1713 29.6593ZM33.6838 30.903C33.1191 31.1779 32.3817 31.3516 31.4128 31.3516V35.3516C32.858 35.3516 34.2183 35.0916 35.4347 34.4994L33.6838 30.903ZM31.4128 31.3516C30.6738 31.3516 30.0315 31.2489 29.4703 31.0647L28.2225 34.865C29.2316 35.1964 30.3003 35.3516 31.4128 35.3516V31.3516ZM29.5046 31.0762C29.007 30.9028 28.5997 30.6456 28.2567 30.3026L25.4283 33.131C26.2103 33.913 27.139 34.4878 28.1883 34.8535L29.5046 31.0762ZM28.2859 30.3323C27.9644 29.9973 27.6655 29.5232 27.4263 28.85L23.6571 30.1891C24.0508 31.2971 24.619 32.2879 25.3991 33.1012L28.2859 30.3323ZM27.4366 28.8797C27.2202 28.2387 27.0847 27.3827 27.0847 26.2676H23.0847C23.0847 27.6837 23.2539 28.9957 23.6468 30.1594L27.4366 28.8797ZM27.0847 26.2676V13.9805H23.0847V26.2676H27.0847ZM25.0847 15.9805H30.1472V11.9805H25.0847V15.9805ZM28.1472 13.9805V26.3027H32.1472V13.9805H28.1472ZM28.1472 26.3027C28.1472 27.0047 28.2259 27.7073 28.4432 28.359L32.2379 27.0941C32.1973 26.9724 32.1472 26.7258 32.1472 26.3027H28.1472ZM28.461 28.41C28.6834 29.0219 29.0194 29.6029 29.5064 30.09L32.3348 27.2616C32.3297 27.2564 32.2789 27.2047 32.2201 27.0431L28.461 28.41ZM29.5064 30.09C29.9749 30.5585 30.5362 30.9035 31.1699 31.1072L32.394 27.2991C32.3714 27.2918 32.3585 27.2853 32.3348 27.2616L29.5064 30.09ZM31.1892 31.1133C31.7477 31.2866 32.3258 31.3613 32.907 31.3613V27.3613C32.6678 27.3613 32.4959 27.3306 32.3748 27.293L31.1892 31.1133ZM32.907 31.3613C34.1937 31.3613 35.4702 31.1044 36.5213 30.3625L34.2145 27.0946C34.0703 27.1964 33.7061 27.3613 32.907 27.3613V31.3613ZM36.5063 30.3729C37.4818 29.6976 38.1667 28.7655 38.5454 27.6475L34.7568 26.3642C34.6433 26.6993 34.4727 26.9157 34.2295 27.0841L36.5063 30.3729ZM38.5393 27.6652C38.8815 26.6852 39.0378 25.6378 39.0378 24.5449H35.0378C35.0378 25.2567 34.9363 25.85 34.7629 26.3465L38.5393 27.6652ZM49.7475 18.1289H51.7475V18.057L51.7423 17.9852L49.7475 18.1289ZM49.7475 33V35H51.7475V33H49.7475ZM44.685 33H42.685V35H44.685V33ZM44.685 13.9805V11.9805H42.685V13.9805H44.685ZM49.4487 13.9805L51.4435 13.8368L51.3098 11.9805H49.4487V13.9805ZM55.478 13.8574L57.4776 13.8949L57.5041 12.4812L56.1802 11.9848L55.478 13.8574ZM55.3901 18.5508L55.1072 20.5307L57.3474 20.8507L57.3897 18.5882L55.3901 18.5508ZM54.4936 18.4629L54.2878 20.4523L54.3241 20.456L54.3606 20.4585L54.4936 18.4629ZM51.6987 18.6914L52.344 20.5844L52.3564 20.5802L52.3687 20.5758L51.6987 18.6914ZM50.3979 19.4824L48.9837 18.0682L48.9717 18.0802L48.9599 18.0924L50.3979 19.4824ZM49.6245 20.7656L47.7361 20.1069L47.7292 20.1266L47.7227 20.1465L49.6245 20.7656ZM49.3432 22.4883L48.7504 24.3984L51.2469 25.1732L51.3419 22.561L49.3432 22.4883ZM48.3237 22.1719H46.3237V23.6453L47.7309 24.082L48.3237 22.1719ZM48.6928 18.7793L50.6382 19.2435L50.6394 19.2386L48.6928 18.7793ZM49.7651 16.0547L48.0662 14.9993L48.0604 15.0087L48.0547 15.0181L49.7651 16.0547ZM54.7573 13.6992L54.4413 15.6741L54.48 15.6803L54.519 15.685L54.7573 13.6992ZM47.7475 18.1289V33H51.7475V18.1289H47.7475ZM49.7475 31H44.685V35H49.7475V31ZM46.685 33V13.9805H42.685V33H46.685ZM44.685 15.9805H49.4487V11.9805H44.685V15.9805ZM47.4538 14.1242L47.7527 18.2726L51.7423 17.9852L51.4435 13.8368L47.4538 14.1242ZM53.4783 13.82L53.3904 18.5133L57.3897 18.5882L57.4776 13.8949L53.4783 13.82ZM55.6729 16.5709C55.3614 16.5264 55.0095 16.4928 54.6266 16.4673L54.3606 20.4585C54.6808 20.4798 54.9266 20.5049 55.1072 20.5307L55.6729 16.5709ZM54.6994 16.4735C54.3051 16.4327 53.9247 16.4102 53.562 16.4102V20.4102C53.7618 20.4102 54.0024 20.4228 54.2878 20.4523L54.6994 16.4735ZM53.562 16.4102C52.6791 16.4102 51.8214 16.5251 51.0287 16.807L52.3687 20.5758C52.6307 20.4827 53.0151 20.4102 53.562 20.4102V16.4102ZM51.0533 16.7984C50.2763 17.0633 49.5716 17.4803 48.9837 18.0682L51.8121 20.8966C51.9273 20.7815 52.0898 20.6711 52.344 20.5844L51.0533 16.7984ZM48.9599 18.0924C48.4009 18.6707 47.9984 19.3548 47.7361 20.1069L51.5129 21.4244C51.6021 21.1686 51.7152 20.9973 51.8359 20.8725L48.9599 18.0924ZM47.7227 20.1465C47.4902 20.8605 47.3733 21.624 47.3445 22.4156L51.3419 22.561C51.36 22.0635 51.4306 21.6785 51.5262 21.3848L47.7227 20.1465ZM49.936 20.5782L48.9165 20.2617L47.7309 24.082L48.7504 24.3984L49.936 20.5782ZM50.3237 22.1719C50.3237 21.0734 50.4336 20.1007 50.6382 19.2435L46.7474 18.3151C46.4598 19.5204 46.3237 20.8094 46.3237 22.1719H50.3237ZM50.6394 19.2386C50.846 18.3626 51.133 17.6563 51.4755 17.0913L48.0547 15.0181C47.4596 16 47.0318 17.11 46.7463 18.32L50.6394 19.2386ZM51.464 17.1101C51.8001 16.569 52.1718 16.2087 52.5646 15.969L50.4812 12.5544C49.4912 13.1585 48.691 13.9935 48.0662 14.9993L51.464 17.1101ZM52.5646 15.969C52.9115 15.7573 53.3351 15.6289 53.8959 15.6289V11.6289C52.6756 11.6289 51.5171 11.9223 50.4812 12.5544L52.5646 15.969ZM53.8959 15.6289C54.0658 15.6289 54.2471 15.643 54.4413 15.6741L55.0732 11.7243C54.6815 11.6617 54.2886 11.6289 53.8959 11.6289V15.6289ZM54.519 15.685C54.6136 15.6963 54.6821 15.7085 54.7284 15.7186C54.7756 15.729 54.7885 15.7349 54.7757 15.7301L56.1802 11.9848C55.7908 11.8387 55.3799 11.7596 54.9956 11.7135L54.519 15.685ZM68.3986 28.4473H66.3986V28.5128L66.4029 28.5783L68.3986 28.4473ZM68.3986 13.9805V11.9805H66.3986V13.9805H68.3986ZM73.4611 13.9805H75.4611V11.9805H73.4611V13.9805ZM73.4611 33V35H75.4611V33H73.4611ZM68.6974 33L66.7017 33.131L66.8244 35H68.6974V33ZM68.9611 24.5449L68.914 22.5455L66.9611 22.5914V24.5449H68.9611ZM70.4552 24.5098H72.4552V22.4622L70.4082 22.5103L70.4552 24.5098ZM70.0158 28.043L71.9458 28.5674L71.9472 28.5622L70.0158 28.043ZM68.6974 30.8555L70.3003 32.0516L70.3045 32.046L70.3087 32.0402L68.6974 30.8555ZM66.4826 32.7012L67.358 34.4994L67.3675 34.4948L67.377 34.49L66.4826 32.7012ZM60.7697 32.9648L60.1115 34.8535L60.1286 34.8594L60.1457 34.865L60.7697 32.9648ZM58.7658 31.7168L57.3224 33.1012L57.3368 33.1163L57.3516 33.131L58.7658 31.7168ZM57.465 29.5195L55.5701 30.1594L55.5751 30.1743L55.5804 30.1891L57.465 29.5195ZM57.008 13.9805V11.9805H55.008V13.9805H57.008ZM62.0705 13.9805H64.0705V11.9805H62.0705V13.9805ZM62.2638 27.7266L60.3665 28.359L60.375 28.3847L60.3842 28.41L62.2638 27.7266ZM63.7052 29.2031L63.0932 31.1072L63.1028 31.1103L63.1124 31.1133L63.7052 29.2031ZM67.2912 28.7285L66.1528 27.0841L66.1453 27.0893L66.1378 27.0946L67.2912 28.7285ZM68.5744 27.0059L66.6862 26.3465L66.6831 26.3554L66.6801 26.3642L68.5744 27.0059ZM70.3986 28.4473V13.9805H66.3986V28.4473H70.3986ZM68.3986 15.9805H73.4611V11.9805H68.3986V15.9805ZM71.4611 13.9805V33H75.4611V13.9805H71.4611ZM73.4611 31H68.6974V35H73.4611V31ZM70.6931 32.869L70.3943 28.3163L66.4029 28.5783L66.7017 33.131L70.6931 32.869ZM69.0081 26.5444L70.5023 26.5092L70.4082 22.5103L68.914 22.5455L69.0081 26.5444ZM68.4552 24.5098C68.4552 25.621 68.3267 26.6223 68.0844 27.5238L71.9472 28.5622C72.2908 27.2839 72.4552 25.9298 72.4552 24.5098H68.4552ZM68.0858 27.5185C67.8491 28.3894 67.5084 29.0964 67.0861 29.6707L70.3087 32.0402C71.0583 31.0208 71.5965 29.8528 71.9458 28.5674L68.0858 27.5185ZM67.0946 29.6593C66.6984 30.1901 66.2044 30.6042 65.5882 30.9123L67.377 34.49C68.542 33.9075 69.5245 33.0911 70.3003 32.0516L67.0946 29.6593ZM65.6071 30.903C65.0423 31.1779 64.305 31.3516 63.3361 31.3516V35.3516C64.7813 35.3516 66.1416 35.0916 67.358 34.4994L65.6071 30.903ZM63.3361 31.3516C62.5971 31.3516 61.9548 31.2489 61.3936 31.0647L60.1457 34.865C61.1549 35.1964 62.2236 35.3516 63.3361 35.3516V31.3516ZM61.4278 31.0762C60.9302 30.9028 60.523 30.6456 60.18 30.3026L57.3516 33.131C58.1335 33.913 59.0623 34.4878 60.1115 34.8535L61.4278 31.0762ZM60.2091 30.3323C59.8877 29.9973 59.5888 29.5232 59.3496 28.85L55.5804 30.1891C55.974 31.2971 56.5423 32.2879 57.3224 33.1012L60.2091 30.3323ZM59.3599 28.8797C59.1434 28.2387 59.008 27.3827 59.008 26.2676H55.008C55.008 27.6837 55.1772 28.9957 55.5701 30.1594L59.3599 28.8797ZM59.008 26.2676V13.9805H55.008V26.2676H59.008ZM57.008 15.9805H62.0705V11.9805H57.008V15.9805ZM60.0705 13.9805V26.3027H64.0705V13.9805H60.0705ZM60.0705 26.3027C60.0705 27.0047 60.1492 27.7073 60.3665 28.359L64.1612 27.0941C64.1206 26.9724 64.0705 26.7258 64.0705 26.3027H60.0705ZM60.3842 28.41C60.6067 29.0219 60.9426 29.6029 61.4297 30.09L64.2581 27.2616C64.253 27.2564 64.2022 27.2047 64.1434 27.0431L60.3842 28.41ZM61.4297 30.09C61.8982 30.5585 62.4595 30.9035 63.0932 31.1072L64.3173 27.2991C64.2947 27.2918 64.2818 27.2853 64.2581 27.2616L61.4297 30.09ZM63.1124 31.1133C63.671 31.2866 64.2491 31.3613 64.8302 31.3613V27.3613C64.591 27.3613 64.4192 27.3306 64.298 27.293L63.1124 31.1133ZM64.8302 31.3613C66.117 31.3613 67.3935 31.1044 68.4445 30.3625L66.1378 27.0946C65.9936 27.1964 65.6294 27.3613 64.8302 27.3613V31.3613ZM68.4296 30.3729C69.4051 29.6976 70.09 28.7655 70.4687 27.6475L66.6801 26.3642C66.5666 26.6993 66.396 26.9157 66.1528 27.0841L68.4296 30.3729ZM70.4626 27.6652C70.8048 26.6852 70.9611 25.6378 70.9611 24.5449H66.9611C66.9611 25.2567 66.8596 25.85 66.6862 26.3465L70.4626 27.6652ZM89.9156 17.918H91.9156V17.8377L91.9092 17.7578L89.9156 17.918ZM89.9156 33V35H91.9156V33H89.9156ZM84.8355 33H82.8355V35H84.8355V33ZM84.8355 13.9805V11.9805H82.8355V13.9805H84.8355ZM89.5992 13.9805L91.5928 13.8203L91.445 11.9805H89.5992V13.9805ZM89.2125 22.8223V24.8223H91.2125V22.8223H89.2125ZM87.8063 22.8223H85.8063V24.8223H87.8063V22.8223ZM88.2809 19.166L86.3608 18.606L86.357 18.6192L88.2809 19.166ZM89.7047 16.248L88.1128 15.0373L88.1102 15.0408L89.7047 16.248ZM97.5797 14.0156L96.8912 15.8934L96.905 15.8985L96.919 15.9033L97.5797 14.0156ZM99.3902 15.1934L97.9292 16.5591L97.9445 16.5755L97.9602 16.5916L99.3902 15.1934ZM100.586 17.2676L98.6856 17.8922L98.6882 17.9L100.586 17.2676ZM101.007 33V35H103.007V33H101.007ZM95.9449 33H93.9449V35H95.9449V33ZM94.5914 17.8828L93.7791 19.7104L93.7883 19.7145L93.7976 19.7185L94.5914 17.8828ZM91.3395 18.0059L90.3788 16.2517L90.3699 16.2566L90.361 16.2616L91.3395 18.0059ZM90.1441 19.1309L91.8018 20.2498L91.8082 20.2404L91.8145 20.2308L90.1441 19.1309ZM100.533 22.2422L100.783 24.2264L102.533 24.0056V22.2422H100.533ZM98.7223 22.4707H96.7223V24.739L98.9727 24.455L98.7223 22.4707ZM99.1793 19.0078L97.2619 18.4389L97.259 18.4486L97.2562 18.4584L99.1793 19.0078ZM100.568 16.1953L98.9819 14.977L98.9763 14.9843L98.9707 14.9916L100.568 16.1953ZM102.871 14.3145L103.747 16.1124L103.756 16.1079L103.765 16.1033L102.871 14.3145ZM108.531 14.0332L107.854 15.9154L107.868 15.9201L107.881 15.9246L108.531 14.0332ZM110.447 15.2812L108.974 16.6341L108.988 16.6497L109.003 16.6651L110.447 15.2812ZM111.677 17.4961L109.766 18.0843L109.769 18.0954L109.773 18.1065L111.677 17.4961ZM112.117 33V35H114.117V33H112.117ZM107.037 33H105.037V35H107.037V33ZM106.685 18.8496L104.879 19.7077L104.892 19.7352L104.906 19.7622L106.685 18.8496ZM105.701 17.8828L104.889 19.7104L104.919 19.7239L104.949 19.7363L105.701 17.8828ZM102.589 17.9707L103.502 19.7503L103.52 19.7412L103.538 19.7316L102.589 17.9707ZM100.761 20.4316L102.689 20.9648L102.692 20.9545L100.761 20.4316ZM87.9156 17.918V33H91.9156V17.918H87.9156ZM89.9156 31H84.8355V35H89.9156V31ZM86.8355 33V13.9805H82.8355V33H86.8355ZM84.8355 15.9805H89.5992V11.9805H84.8355V15.9805ZM87.6056 14.1407L87.9221 18.0782L91.9092 17.7578L91.5928 13.8203L87.6056 14.1407ZM89.2125 20.8223H87.8063V24.8223H89.2125V20.8223ZM89.8063 22.8223C89.8063 21.6569 89.9455 20.6248 90.2047 19.7128L86.357 18.6192C85.9834 19.9338 85.8063 21.3392 85.8063 22.8223H89.8063ZM90.2009 19.726C90.4702 18.8026 90.844 18.0565 91.2992 17.4553L88.1102 15.0408C87.3231 16.0802 86.7478 17.2794 86.3609 18.606L90.2009 19.726ZM91.2966 17.4588C91.7445 16.8698 92.2831 16.4261 92.9279 16.1078L91.1572 12.5211C89.9505 13.1168 88.9305 13.9622 88.1128 15.0373L91.2966 17.4588ZM92.9279 16.1078C93.5329 15.8092 94.2926 15.6289 95.2594 15.6289V11.6289C93.7886 11.6289 92.4038 11.9057 91.1572 12.5211L92.9279 16.1078ZM95.2594 15.6289C95.8977 15.6289 96.4347 15.726 96.8912 15.8934L98.2682 12.1379C97.3184 11.7896 96.3085 11.6289 95.2594 11.6289V15.6289ZM96.919 15.9033C97.3201 16.0437 97.6482 16.2585 97.9292 16.5591L100.851 13.8276C100.125 13.0501 99.2455 12.4797 98.2404 12.1279L96.919 15.9033ZM97.9602 16.5916C98.2201 16.8574 98.4791 17.2641 98.6856 17.8922L102.486 16.6429C102.13 15.5602 101.592 14.584 100.82 13.7951L97.9602 16.5916ZM98.6882 17.9C98.8832 18.485 99.0074 19.2733 99.0074 20.3086H103.007C103.007 18.9767 102.85 17.7376 102.483 16.6351L98.6882 17.9ZM99.0074 20.3086V33H103.007V20.3086H99.0074ZM101.007 31H95.9449V35H101.007V31ZM97.9449 33V20.8711H93.9449V33H97.9449ZM97.9449 20.8711C97.9449 19.8723 97.8179 18.8441 97.3822 17.9728L93.8045 19.7616C93.8376 19.8278 93.9449 20.1355 93.9449 20.8711H97.9449ZM97.3822 17.9728C96.9619 17.1321 96.2989 16.4422 95.3852 16.0471L93.7976 19.7185C93.7961 19.7179 93.7905 19.7152 93.7827 19.71C93.7749 19.7047 93.7689 19.6996 93.7654 19.6962C93.7622 19.693 93.7642 19.6943 93.7706 19.7033C93.7772 19.7126 93.7892 19.7309 93.8045 19.7616L97.3822 17.9728ZM95.4037 16.0552C94.6626 15.7258 93.8606 15.6016 93.0621 15.6016V19.6016C93.4589 19.6016 93.6765 19.6648 93.7791 19.7104L95.4037 16.0552ZM93.0621 15.6016C92.1273 15.6016 91.2119 15.7955 90.3788 16.2517L92.3001 19.7601C92.4514 19.6772 92.6845 19.6016 93.0621 19.6016V15.6016ZM90.361 16.2616C89.5892 16.6945 88.958 17.2956 88.4738 18.0309L91.8145 20.2308C91.9631 20.0051 92.1287 19.8563 92.318 19.7501L90.361 16.2616ZM88.4864 18.0119C88.0178 18.7062 87.6965 19.4845 87.4966 20.3151L91.3855 21.2513C91.4902 20.8163 91.6377 20.493 91.8018 20.2498L88.4864 18.0119ZM87.4966 20.3151C87.3033 21.1178 87.2125 21.956 87.2125 22.8223H91.2125C91.2125 22.2354 91.274 21.7143 91.3855 21.2513L87.4966 20.3151ZM100.282 20.2579L98.4718 20.4864L98.9727 24.455L100.783 24.2264L100.282 20.2579ZM100.722 22.4707C100.722 21.3924 100.854 20.425 101.102 19.5573L97.2562 18.4584C96.8948 19.7234 96.7223 21.0646 96.7223 22.4707H100.722ZM101.097 19.5767C101.352 18.7168 101.713 17.9989 102.165 17.399L98.9707 14.9916C98.2041 16.0089 97.6396 17.1661 97.2619 18.4389L101.097 19.5767ZM102.154 17.4136C102.587 16.8499 103.112 16.4217 103.747 16.1124L101.995 12.5165C100.801 13.0978 99.7911 13.9235 98.9819 14.977L102.154 17.4136ZM103.765 16.1033C104.358 15.8069 105.097 15.6289 106.035 15.6289V11.6289C104.582 11.6289 103.212 11.908 101.976 12.5256L103.765 16.1033ZM106.035 15.6289C106.752 15.6289 107.351 15.7343 107.854 15.9154L109.207 12.1511C108.211 11.793 107.146 11.6289 106.035 11.6289V15.6289ZM107.881 15.9246C108.322 16.0761 108.676 16.3094 108.974 16.6341L111.92 13.9284C111.163 13.1046 110.24 12.5059 109.181 12.1418L107.881 15.9246ZM109.003 16.6651C109.283 16.957 109.556 17.4016 109.766 18.0843L113.589 16.9079C113.236 15.7625 112.689 14.7305 111.891 13.8974L109.003 16.6651ZM109.773 18.1065C109.984 18.7643 110.117 19.6638 110.117 20.8535H114.117C114.117 19.3948 113.957 18.056 113.582 16.8857L109.773 18.1065ZM110.117 20.8535V33H114.117V20.8535H110.117ZM112.117 31H107.037V35H112.117V31ZM109.037 33V20.8535H105.037V33H109.037ZM109.037 20.8535C109.037 19.8534 108.913 18.8105 108.465 17.937L104.906 19.7622C104.905 19.7615 104.915 19.7812 104.93 19.8285C104.945 19.8757 104.962 19.9445 104.979 20.039C105.013 20.2312 105.037 20.4979 105.037 20.8535H109.037ZM108.492 17.9915C108.08 17.124 107.402 16.4143 106.452 16.0293L104.949 19.7363C104.941 19.733 104.928 19.7266 104.912 19.7161C104.896 19.7055 104.882 19.6939 104.871 19.6832C104.847 19.6603 104.855 19.6583 104.879 19.7077L108.492 17.9915ZM106.513 16.0552C105.776 15.7278 104.982 15.6016 104.189 15.6016V19.6016C104.568 19.6016 104.781 19.6628 104.889 19.7104L106.513 16.0552ZM104.189 15.6016C103.306 15.6016 102.437 15.7815 101.641 16.2098L103.538 19.7316C103.656 19.6677 103.853 19.6016 104.189 19.6016V15.6016ZM101.677 16.1911C100.935 16.5715 100.313 17.1097 99.8255 17.7841L103.068 20.1261C103.191 19.9567 103.33 19.8387 103.502 19.7503L101.677 16.1911ZM99.8255 17.7841C99.3636 18.4236 99.0388 19.1411 98.8309 19.9088L102.692 20.9545C102.789 20.5971 102.921 20.3303 103.068 20.1261L99.8255 17.7841ZM98.8337 19.8985C98.6268 20.6464 98.5328 21.4319 98.5328 22.2422H102.533C102.533 21.74 102.591 21.3185 102.689 20.9648L98.8337 19.8985ZM125.284 18.6738L123.458 19.4906L123.462 19.4997L123.466 19.5088L125.284 18.6738ZM124.352 17.6367L123.323 19.3517L123.333 19.3581L123.344 19.3643L124.352 17.6367ZM121.293 17.5664L122.125 19.3854L122.146 19.3756L122.167 19.3654L121.293 17.5664ZM120.344 18.3926L122.034 19.4627L122.042 19.4502L122.049 19.4377L120.344 18.3926ZM120.01 19.6406V21.6406H122.01V19.6406H120.01ZM114.948 19.6406H112.948V21.6406H114.948V19.6406ZM117.145 15.4219L118.366 17.0062L118.374 16.9999L118.382 16.9936L117.145 15.4219ZM119.694 14.1035L119.088 12.1974L119.082 12.1995L119.694 14.1035ZM129.678 16.582L128.014 17.6914L128.018 17.6983L128.023 17.705L129.678 16.582ZM130.873 30.9785L128.91 31.3575L128.911 31.364L130.873 30.9785ZM131.436 32.7012H133.436V32.229L133.225 31.8067L131.436 32.7012ZM131.436 33V35H133.436V33H131.436ZM126.321 33L124.516 33.8615L125.059 35H126.321V33ZM125.758 31.0664L123.78 31.3616L123.783 31.3784L123.785 31.3952L125.758 31.0664ZM126.25 21.416L128.25 21.3915L128.226 19.416H126.25V21.416ZM126.285 24.2812V26.2812H128.31L128.285 24.2567L126.285 24.2812ZM120.502 25.1602L121.799 26.6826L121.815 26.669L121.831 26.655L120.502 25.1602ZM119.799 26.1094L117.955 25.3359L117.944 25.3615L117.934 25.3874L119.799 26.1094ZM119.887 28.4824L118.147 29.4684L118.154 29.4812L118.162 29.4939L119.887 28.4824ZM120.748 29.291L119.81 31.0572L119.832 31.0688L119.854 31.0799L120.748 29.291ZM125.354 27.9902L123.723 26.8318L123.713 26.8463L123.703 26.8609L125.354 27.9902ZM125.846 26.7246L127.544 25.6671L124.042 20.0455L123.847 26.6658L125.846 26.7246ZM127.182 28.8691L129.045 29.5962L129.41 28.6624L128.88 27.8116L127.182 28.8691ZM126.409 30.3633L124.721 29.2895L124.712 29.3033L124.704 29.3172L126.409 30.3633ZM125.196 31.8223L126.537 33.3053L126.547 33.2967L126.557 33.2879L125.196 31.8223ZM123.42 32.9297L124.174 34.7823L124.187 34.7768L124.201 34.7712L123.42 32.9297ZM117.672 32.6309L116.769 34.4154L116.782 34.4219L116.795 34.4282L117.672 32.6309ZM115.352 30.6094L113.674 31.6978L113.683 31.711L113.691 31.724L115.352 30.6094ZM116.723 23.0508L117.898 24.6694L117.902 24.666L116.723 23.0508ZM119.483 21.8379L119.958 23.7806L119.968 23.7782L119.978 23.7757L119.483 21.8379ZM127.582 28.7109V20.2383H123.582V28.7109H127.582ZM127.582 20.2383C127.582 19.4177 127.449 18.5963 127.101 17.8388L123.466 19.5088C123.517 19.6185 123.582 19.8401 123.582 20.2383H127.582ZM127.109 17.8571C126.739 17.0297 126.142 16.3657 125.36 15.9092L123.344 19.3643C123.405 19.4 123.43 19.4274 123.458 19.4906L127.109 17.8571ZM125.381 15.9217C124.565 15.4322 123.642 15.2676 122.752 15.2676V19.2676C123.176 19.2676 123.318 19.349 123.323 19.3517L125.381 15.9217ZM122.752 15.2676C121.956 15.2676 121.158 15.4087 120.419 15.7674L122.167 19.3654C122.249 19.3257 122.423 19.2676 122.752 19.2676V15.2676ZM120.462 15.7475C119.712 16.0901 119.082 16.6248 118.639 17.3475L122.049 19.4377C122.056 19.4268 122.059 19.4241 122.061 19.4222C122.064 19.4196 122.081 19.4053 122.125 19.3854L120.462 15.7475ZM118.654 17.3225C118.199 18.0412 118.01 18.8411 118.01 19.6406H122.01C122.01 19.5551 122.02 19.5065 122.026 19.4853C122.028 19.4745 122.031 19.4686 122.032 19.4663C122.033 19.4641 122.033 19.4632 122.034 19.4627L118.654 17.3225ZM120.01 17.6406H114.948V21.6406H120.01V17.6406ZM116.948 19.6406C116.948 19.1549 117.057 18.7014 117.287 18.2552L113.733 16.4206C113.213 17.4275 112.948 18.5092 112.948 19.6406H116.948ZM117.287 18.2552C117.515 17.815 117.859 17.3968 118.366 17.0062L115.924 13.8376C115.001 14.5485 114.256 15.4077 113.733 16.4206L117.287 18.2552ZM118.382 16.9936C118.886 16.5968 119.517 16.2611 120.306 16.0076L119.082 12.1995C117.902 12.5788 116.833 13.122 115.908 13.8501L118.382 16.9936ZM120.299 16.0097C121.068 15.7653 121.973 15.6289 123.034 15.6289V11.6289C121.633 11.6289 120.311 11.8089 119.088 12.1974L120.299 16.0097ZM123.034 15.6289C124.288 15.6289 125.325 15.8376 126.183 16.2055L127.759 12.5289C126.32 11.9124 124.732 11.6289 123.034 11.6289V15.6289ZM126.183 16.2055C126.996 16.5538 127.585 17.0484 128.014 17.6914L131.342 15.4726C130.458 14.1469 129.243 13.1649 127.759 12.5289L126.183 16.2055ZM128.023 17.705C128.417 18.2859 128.68 19.1001 128.68 20.2734H132.68C132.68 18.4936 132.275 16.8469 131.333 15.459L128.023 17.705ZM128.68 20.2734V28.4121H132.68V20.2734H128.68ZM128.68 28.4121C128.68 29.5227 128.747 30.5173 128.91 31.3575L132.837 30.5995C132.741 30.1038 132.68 29.3875 132.68 28.4121H128.68ZM128.911 31.364C129.067 32.1604 129.305 32.9122 129.647 33.5956L133.225 31.8067C133.074 31.5058 132.937 31.1091 132.836 30.593L128.911 31.364ZM129.436 32.7012V33H133.436V32.7012H129.436ZM131.436 31H126.321V35H131.436V31ZM128.126 32.1385C127.984 31.8413 127.84 31.3899 127.731 30.7376L123.785 31.3952C123.934 32.2898 124.165 33.1274 124.516 33.8615L128.126 32.1385ZM127.736 30.7712C127.633 30.0827 127.582 29.3962 127.582 28.7109H123.582C123.582 29.596 123.648 30.4798 123.78 31.3616L127.736 30.7712ZM124.25 21.4406L124.286 24.3058L128.285 24.2567L128.25 21.3915L124.25 21.4406ZM126.285 22.2812H123.455V26.2812H126.285V22.2812ZM123.455 22.2812C122.643 22.2812 121.855 22.373 121.124 22.5992L122.307 26.4203C122.56 26.3418 122.932 26.2812 123.455 26.2812V22.2812ZM121.124 22.5992C120.417 22.818 119.744 23.1579 119.174 23.6653L121.831 26.655C121.893 26.5999 122.029 26.5062 122.307 26.4203L121.124 22.5992ZM119.205 23.6377C118.664 24.099 118.235 24.6676 117.955 25.3359L121.644 26.8828C121.668 26.8246 121.708 26.7604 121.799 26.6826L119.205 23.6377ZM117.934 25.3874C117.695 26.0056 117.588 26.652 117.588 27.3047H121.588C121.588 27.0902 121.622 26.9398 121.664 26.8314L117.934 25.3874ZM117.588 27.3047C117.588 28.0578 117.765 28.7943 118.147 29.4684L121.627 27.4964C121.611 27.4674 121.588 27.4187 121.588 27.3047H117.588ZM118.162 29.4939C118.563 30.1783 119.134 30.6983 119.81 31.0572L121.687 27.5248C121.644 27.5019 121.625 27.4857 121.621 27.4813C121.617 27.4777 121.615 27.4758 121.612 27.471L118.162 29.4939ZM119.854 31.0799C120.557 31.4315 121.314 31.5723 122.067 31.5723V27.5723C121.811 27.5723 121.689 27.5255 121.643 27.5022L119.854 31.0799ZM122.067 31.5723C123.098 31.5723 124.1 31.3646 125.006 30.8738L123.1 27.3567C122.882 27.4753 122.559 27.5723 122.067 27.5723V31.5723ZM125.006 30.8738C125.796 30.4458 126.49 29.8716 127.004 29.1196L123.703 26.8609C123.608 26.9995 123.435 27.1753 123.1 27.3567L125.006 30.8738ZM126.984 29.1486C127.447 28.4971 127.818 27.6982 127.845 26.7834L123.847 26.6658C123.849 26.6082 123.861 26.5882 123.85 26.615C123.839 26.6446 123.805 26.7168 123.723 26.8318L126.984 29.1486ZM124.148 27.7821L125.484 29.9266L128.88 27.8116L127.544 25.6671L124.148 27.7821ZM125.319 28.1421C125.186 28.4818 124.992 28.864 124.721 29.2895L128.096 31.437C128.481 30.8313 128.803 30.2174 129.045 29.5962L125.319 28.1421ZM124.704 29.3172C124.492 29.6621 124.208 30.0098 123.835 30.3567L126.557 33.2879C127.167 32.7207 127.692 32.0957 128.113 31.4093L124.704 29.3172ZM123.854 30.3392C123.548 30.6162 123.152 30.8711 122.64 31.0882L124.201 34.7712C125.071 34.4023 125.859 33.919 126.537 33.3053L123.854 30.3392ZM122.667 31.0771C122.27 31.2385 121.718 31.3516 120.959 31.3516V35.3516C122.1 35.3516 123.188 35.1834 124.174 34.7823L122.667 31.0771ZM120.959 31.3516C120.025 31.3516 119.234 31.1675 118.549 30.8335L116.795 34.4282C118.079 35.0551 119.48 35.3516 120.959 35.3516V31.3516ZM118.575 30.8463C117.89 30.4996 117.385 30.0491 117.012 29.4947L113.691 31.724C114.468 32.8806 115.509 33.7778 116.769 34.4154L118.575 30.8463ZM117.03 29.521C116.692 28.9995 116.508 28.3981 116.508 27.6562H112.508C112.508 29.1175 112.887 30.4849 113.674 31.6978L117.03 29.521ZM116.508 27.6562C116.508 26.9145 116.647 26.3359 116.87 25.8745L113.271 24.1294C112.745 25.2149 112.508 26.4058 112.508 27.6562H116.508ZM116.87 25.8745C117.095 25.4107 117.425 25.0122 117.898 24.6694L115.548 21.4322C114.567 22.1441 113.796 23.0463 113.271 24.1294L116.87 25.8745ZM117.902 24.666C118.385 24.3133 119.051 24.0025 119.958 23.7806L119.007 19.8952C117.711 20.2124 116.537 20.7102 115.544 21.4355L117.902 24.666ZM119.978 23.7757C120.88 23.5453 121.985 23.416 123.315 23.416V19.416C121.739 19.416 120.289 19.5679 118.988 19.9001L119.978 23.7757ZM123.315 23.416H126.25V19.416H123.315V23.416ZM142.651 25.9512L141.818 27.7693L141.841 27.7797L141.864 27.7895L142.651 25.9512ZM140.208 25.248L139.779 27.2015L139.8 27.206L139.82 27.21L140.208 25.248ZM137.519 24.457L136.776 26.314L136.792 26.3203L136.808 26.3264L137.519 24.457ZM135.374 23.2793L134.159 24.868L134.167 24.8737L134.174 24.8793L135.374 23.2793ZM133.968 21.6621L132.206 22.6084L132.21 22.6153L132.213 22.6221L133.968 21.6621ZM133.968 17.25L132.179 16.3556L132.173 16.3676L132.167 16.3797L133.968 17.25ZM135.462 15.3867L136.745 16.9209L136.748 16.9187L135.462 15.3867ZM137.853 14.1035L138.471 16.0056L138.478 16.0033L138.485 16.0009L137.853 14.1035ZM145.306 14.4199L144.492 16.2468L144.498 16.2498L145.306 14.4199ZM148.048 16.5996L146.397 17.7282L146.405 17.7403L146.413 17.7522L148.048 16.5996ZM149.015 19.7285V21.7285H151.015V19.7285H149.015ZM143.952 19.7285H141.952V21.7285H143.952V19.7285ZM143.636 18.4102L141.847 19.3046L141.863 19.3365L141.88 19.3679L143.636 18.4102ZM142.687 17.4785L141.715 19.2268L141.744 19.2427L141.773 19.2577L142.687 17.4785ZM139.575 17.4258L140.407 19.2447L140.428 19.235L140.449 19.2248L139.575 17.4258ZM138.626 18.1992L136.971 17.0762L136.966 17.083L136.962 17.0898L138.626 18.1992ZM138.485 20.0449L136.697 20.9393L136.724 20.9941L136.755 21.047L138.485 20.0449ZM140.19 21.1875L139.499 23.0642L139.528 23.075L139.558 23.0849L140.19 21.1875ZM141.878 21.6094L142.28 19.6502L142.268 19.6478L142.257 19.6456L141.878 21.6094ZM145.552 22.7168L144.771 24.5582L144.78 24.5618L144.788 24.5653L145.552 22.7168ZM148.118 24.5449L146.57 25.8114L146.575 25.8172L146.58 25.823L148.118 24.5449ZM146.888 31.7168L148.07 33.3296L148.079 33.3232L148.088 33.3168L146.888 31.7168ZM144.356 32.9297L144.912 34.851L144.92 34.8488L144.927 34.8466L144.356 32.9297ZM136.569 32.4023L135.648 34.1773L135.655 34.1809L136.569 32.4023ZM133.792 29.9941L132.101 31.0614L132.108 31.0732L132.116 31.0848L133.792 29.9941ZM132.86 26.9707V24.9707H130.86V26.9707H132.86ZM137.659 26.9707L139.658 26.9029L139.593 24.9707H137.659V26.9707ZM138.187 28.6406L136.608 29.8685L136.618 29.882L136.629 29.8953L138.187 28.6406ZM139.47 29.5547L138.786 31.4343L138.793 31.4367L138.8 31.4391L139.47 29.5547ZM142.81 29.5723L143.561 31.4257L143.582 31.4171L143.603 31.408L142.81 29.5723ZM143.794 28.834L142.187 27.6435L142.179 27.654L143.794 28.834ZM146.146 27.7441C146.146 26.9643 145.91 26.2268 145.452 25.5912L142.206 27.9284C142.195 27.9133 142.177 27.8819 142.162 27.8376C142.148 27.7934 142.146 27.759 142.146 27.7441H146.146ZM145.452 25.5912C144.925 24.859 144.134 24.4106 143.439 24.1129L141.864 27.7895C142.065 27.8758 142.184 27.9451 142.244 27.9867C142.308 28.0302 142.271 28.0181 142.206 27.9284L145.452 25.5912ZM143.485 24.133C142.712 23.7788 141.719 23.5082 140.596 23.2861L139.82 27.21C140.83 27.4098 141.466 27.6079 141.818 27.7693L143.485 24.133ZM140.637 23.2946C139.762 23.1025 138.961 22.8657 138.229 22.5876L136.808 26.3264C137.741 26.6812 138.732 26.9717 139.779 27.2015L140.637 23.2946ZM138.261 22.6001C137.579 22.327 137.023 22.0158 136.574 21.6793L134.174 24.8793C134.944 25.4569 135.818 25.9308 136.776 26.314L138.261 22.6001ZM136.589 21.6906C136.199 21.3923 135.92 21.0631 135.722 20.7021L132.213 22.6221C132.695 23.5033 133.354 24.2522 134.159 24.868L136.589 21.6906ZM135.73 20.7159C135.565 20.4089 135.458 20.0205 135.458 19.5H131.458C131.458 20.5967 131.691 21.6497 132.206 22.6084L135.73 20.7159ZM135.458 19.5C135.458 18.9982 135.563 18.5464 135.769 18.1203L132.167 16.3797C131.693 17.3598 131.458 18.4081 131.458 19.5H135.458ZM135.757 18.1444C135.977 17.7036 136.297 17.296 136.745 16.9209L134.179 13.8526C133.338 14.5556 132.662 15.3901 132.179 16.3556L135.757 18.1444ZM136.748 16.9187C137.18 16.5559 137.741 16.2427 138.471 16.0056L137.234 12.2014C136.089 12.5737 135.057 13.116 134.176 13.8548L136.748 16.9187ZM138.485 16.0009C139.197 15.7636 140.045 15.6289 141.052 15.6289V11.6289C139.692 11.6289 138.407 11.8106 137.22 12.2061L138.485 16.0009ZM141.052 15.6289C142.498 15.6289 143.625 15.8604 144.492 16.2468L146.12 12.593C144.62 11.9248 142.91 11.6289 141.052 11.6289V15.6289ZM144.498 16.2498C145.41 16.6519 146.007 17.1581 146.397 17.7282L149.699 15.471C148.823 14.1895 147.592 13.2427 146.113 12.5901L144.498 16.2498ZM146.413 17.7522C146.808 18.3122 147.015 18.9484 147.015 19.7285H151.015C151.015 18.1649 150.577 16.7151 149.682 15.4471L146.413 17.7522ZM149.015 17.7285H143.952V21.7285H149.015V17.7285ZM145.952 19.7285C145.952 18.9416 145.781 18.1661 145.392 17.4525L141.88 19.3679C141.913 19.4276 141.952 19.531 141.952 19.7285H145.952ZM145.425 17.5157C145.017 16.7007 144.375 16.0971 143.6 15.6994L141.773 19.2577C141.828 19.286 141.847 19.3049 141.848 19.3058C141.849 19.3068 141.848 19.3061 141.847 19.3042C141.846 19.3022 141.846 19.3019 141.847 19.3046L145.425 17.5157ZM143.658 15.7302C142.842 15.277 141.923 15.127 141.034 15.127V19.127C141.505 19.127 141.687 19.2113 141.715 19.2268L143.658 15.7302ZM141.034 15.127C140.238 15.127 139.44 15.268 138.701 15.6268L140.449 19.2248C140.531 19.1851 140.705 19.127 141.034 19.127V15.127ZM138.744 15.6068C138.047 15.9252 137.426 16.4052 136.971 17.0762L140.281 19.3222C140.281 19.3219 140.281 19.3215 140.282 19.3204C140.284 19.3193 140.287 19.3158 140.294 19.3102C140.307 19.2994 140.34 19.275 140.407 19.2447L138.744 15.6068ZM136.962 17.0898C136.528 17.7406 136.31 18.4795 136.31 19.2539H140.31C140.31 19.2484 140.31 19.2485 140.309 19.2533C140.309 19.2582 140.307 19.2657 140.304 19.2749C140.302 19.2841 140.298 19.2924 140.295 19.2993C140.292 19.3061 140.29 19.3092 140.29 19.3086L136.962 17.0898ZM136.31 19.2539C136.31 19.8203 136.425 20.3959 136.697 20.9393L140.274 19.1505C140.291 19.184 140.301 19.2147 140.306 19.2375C140.311 19.2596 140.31 19.2667 140.31 19.2539H136.31ZM136.755 21.047C137.078 21.6049 137.532 22.0179 137.991 22.3243L140.21 18.9961C140.161 18.9637 140.146 18.9471 140.15 18.9515C140.155 18.9566 140.183 18.9859 140.216 19.0428L136.755 21.047ZM137.991 22.3243C138.444 22.6258 138.961 22.8659 139.499 23.0642L140.882 19.3108C140.53 19.181 140.32 19.0695 140.21 18.9961L137.991 22.3243ZM139.558 23.0849C140.124 23.2735 140.777 23.4338 141.499 23.5731L142.257 19.6456C141.643 19.5271 141.171 19.4062 140.823 19.2901L139.558 23.0849ZM141.476 23.5686C142.742 23.8282 143.836 24.1617 144.771 24.5582L146.332 20.8754C145.111 20.3578 143.756 19.9531 142.28 19.6502L141.476 23.5686ZM144.788 24.5653C145.612 24.9056 146.179 25.3336 146.57 25.8114L149.666 23.2784C148.791 22.2094 147.648 21.4186 146.315 20.8683L144.788 24.5653ZM146.58 25.823C146.845 26.1418 147.067 26.6535 147.067 27.5508H151.067C151.067 25.9637 150.657 24.4715 149.657 23.2669L146.58 25.823ZM147.067 27.5508C147.067 28.0862 146.952 28.5335 146.74 28.9299L150.27 30.8123C150.808 29.8024 151.067 28.7029 151.067 27.5508H147.067ZM146.74 28.9299C146.517 29.3492 146.181 29.7468 145.688 30.1168L148.088 33.3168C149.001 32.6321 149.743 31.7993 150.27 30.8123L146.74 28.9299ZM145.705 30.104C145.217 30.4621 144.589 30.7739 143.786 31.0128L144.927 34.8466C146.093 34.4995 147.153 34.0027 148.07 33.3296L145.705 30.104ZM143.801 31.0084C143.041 31.2281 142.137 31.3516 141.069 31.3516V35.3516C142.439 35.3516 143.727 35.1938 144.912 34.851L143.801 31.0084ZM141.069 31.3516C139.532 31.3516 138.364 31.0762 137.484 30.6238L135.655 34.1809C137.236 34.9941 139.068 35.3516 141.069 35.3516V31.3516ZM137.491 30.6274C136.522 30.1244 135.881 29.5377 135.468 28.9035L132.116 31.0848C132.969 32.3959 134.179 33.4147 135.648 34.1773L137.491 30.6274ZM135.483 28.9269C135.037 28.2197 134.86 27.5772 134.86 26.9707H130.86C130.86 28.4267 131.305 29.7998 132.101 31.0614L135.483 28.9269ZM132.86 28.9707H137.659V24.9707H132.86V28.9707ZM135.66 27.0385C135.694 28.0272 135.954 29.0278 136.608 29.8685L139.765 27.4127C139.763 27.4097 139.671 27.297 139.658 26.9029L135.66 27.0385ZM136.629 29.8953C137.201 30.6051 137.932 31.1238 138.786 31.4343L140.153 27.6751C139.976 27.6106 139.852 27.5199 139.744 27.386L136.629 29.8953ZM138.8 31.4391C139.561 31.7096 140.357 31.8359 141.175 31.8359V27.8359C140.774 27.8359 140.434 27.7748 140.14 27.6703L138.8 31.4391ZM141.175 31.8359C141.993 31.8359 142.813 31.7288 143.561 31.4257L142.058 27.7188C141.939 27.7673 141.67 27.8359 141.175 27.8359V31.8359ZM143.603 31.408C144.283 31.1142 144.929 30.6706 145.409 30.014L142.179 27.654C142.214 27.6067 142.204 27.6553 142.016 27.7366L143.603 31.408ZM145.401 30.0244C145.902 29.3485 146.146 28.5639 146.146 27.7441H142.146C142.146 27.7563 142.144 27.7412 142.154 27.7102C142.165 27.6784 142.179 27.6545 142.187 27.6435L145.401 30.0244ZM156.978 13.9805H158.978V11.9805H156.978V13.9805ZM156.978 33V35H158.978V33H156.978ZM151.898 33H149.898V35H151.898V33ZM151.898 13.9805V11.9805H149.898V13.9805H151.898ZM156.486 7.19531L155.123 8.65853L155.131 8.66616L155.139 8.67371L156.486 7.19531ZM156.486 10.8516L155.139 9.37317L155.131 9.38071L155.123 9.38835L156.486 10.8516ZM154.978 13.9805V33H158.978V13.9805H154.978ZM156.978 31H151.898V35H156.978V31ZM153.898 33V13.9805H149.898V33H153.898ZM151.898 15.9805H156.978V11.9805H151.898V15.9805ZM153.582 9.02344C153.582 8.81038 153.63 8.7409 153.719 8.65853L150.992 5.7321C150.049 6.61066 149.582 7.75994 149.582 9.02344H153.582ZM153.719 8.65853C153.783 8.59833 153.946 8.47461 154.429 8.47461V4.47461C153.179 4.47461 151.958 4.83136 150.992 5.7321L153.719 8.65853ZM154.429 8.47461C154.893 8.47461 155.053 8.59368 155.123 8.65853L157.85 5.7321C156.888 4.83601 155.677 4.47461 154.429 4.47461V8.47461ZM155.139 8.67371C155.234 8.76045 155.277 8.82562 155.277 9.02344H159.277C159.277 7.74469 158.793 6.59111 157.833 5.71692L155.139 8.67371ZM155.277 9.02344C155.277 9.22126 155.234 9.28642 155.139 9.37317L157.833 12.33C158.793 11.4558 159.277 10.3022 159.277 9.02344H155.277ZM155.123 9.38835C155.053 9.4532 154.893 9.57227 154.429 9.57227V13.5723C155.677 13.5723 156.888 13.2109 157.85 12.3148L155.123 9.38835ZM154.429 9.57227C153.946 9.57227 153.783 9.44854 153.719 9.38835L150.992 12.3148C151.958 13.2155 153.179 13.5723 154.429 13.5723V9.57227ZM153.719 9.38835C153.63 9.30597 153.582 9.2365 153.582 9.02344H149.582C149.582 10.2869 150.049 11.4362 150.992 12.3148L153.719 9.38835ZM165.399 18.041H167.399V17.9632L167.393 17.8856L165.399 18.041ZM165.399 33V35H167.399V33H165.399ZM160.336 33H158.336V35H160.336V33ZM160.336 13.9805V11.9805H158.336V13.9805H160.336ZM165.083 13.9805L167.076 13.8251L166.933 11.9805H165.083V13.9805ZM164.661 22.8223V24.8223H166.661V22.8223H164.661ZM163.29 22.8223H161.29V24.8223H163.29V22.8223ZM163.834 19.0254L165.738 19.64L165.74 19.6342L163.834 19.0254ZM165.364 16.125L166.908 17.3964L166.912 17.3909L166.917 17.3853L165.364 16.125ZM167.702 14.2793L168.549 16.0911L168.559 16.0863L167.702 14.2793ZM175.102 15.2461L173.643 16.614L173.65 16.622L173.658 16.6299L175.102 15.2461ZM176.333 17.4785L174.419 18.0599L174.422 18.0709L174.426 18.0819L176.333 17.4785ZM176.772 33V35H178.772V33H176.772ZM171.674 33H169.674V35H171.674V33ZM170.286 17.9004L169.469 19.726L169.498 19.7388L169.527 19.7507L170.286 17.9004ZM166.858 18.0059L165.915 16.2423L165.906 16.2469L165.897 16.2517L166.858 18.0059ZM165.627 19.1309L163.976 18.0029L163.97 18.0119L165.627 19.1309ZM163.399 18.041V33H167.399V18.041H163.399ZM165.399 31H160.336V35H165.399V31ZM162.336 33V13.9805H158.336V33H162.336ZM160.336 15.9805H165.083V11.9805H160.336V15.9805ZM163.089 14.1358L163.405 18.1964L167.393 17.8856L167.076 13.8251L163.089 14.1358ZM164.661 20.8223H163.29V24.8223H164.661V20.8223ZM165.29 22.8223C165.29 21.5863 165.449 20.5329 165.738 19.64L161.931 18.4108C161.493 19.7679 161.29 21.2457 161.29 22.8223H165.29ZM165.74 19.6342C166.037 18.702 166.436 17.9693 166.908 17.3964L163.82 14.8536C162.979 15.8745 162.358 17.0753 161.929 18.4166L165.74 19.6342ZM166.917 17.3853C167.391 16.8006 167.933 16.379 168.549 16.0911L166.855 12.4675C165.666 13.0233 164.649 13.8322 163.811 14.8647L166.917 17.3853ZM168.559 16.0863C169.176 15.7934 169.898 15.6289 170.76 15.6289V11.6289C169.372 11.6289 168.055 11.898 166.844 12.4723L168.559 16.0863ZM170.76 15.6289C171.457 15.6289 172.045 15.7295 172.544 15.9038L173.863 12.1274C172.886 11.7861 171.845 11.6289 170.76 11.6289V15.6289ZM172.544 15.9038C172.982 16.0568 173.34 16.2903 173.643 16.614L176.561 13.8782C175.81 13.0768 174.901 12.4901 173.863 12.1274L172.544 15.9038ZM173.658 16.6299C173.933 16.9173 174.207 17.3635 174.419 18.0599L178.246 16.8972C177.895 15.742 177.349 14.6999 176.546 13.8623L173.658 16.6299ZM174.426 18.0819C174.639 18.7547 174.772 19.6688 174.772 20.8711H178.772C178.772 19.4015 178.612 18.0539 178.239 16.8751L174.426 18.0819ZM174.772 20.8711V33H178.772V20.8711H174.772ZM176.772 31H171.674V35H176.772V31ZM173.674 33V20.8535H169.674V33H173.674ZM173.674 20.8535C173.674 19.8678 173.544 18.856 173.112 17.9903L169.534 19.7792C169.57 19.851 169.674 20.1517 169.674 20.8535H173.674ZM173.112 17.9903C172.675 17.1176 171.978 16.433 171.045 16.0501L169.527 19.7507C169.533 19.7532 169.532 19.7535 169.527 19.7501C169.521 19.7467 169.516 19.7423 169.511 19.7377C169.506 19.7333 169.506 19.732 169.509 19.7366C169.513 19.7415 169.522 19.7546 169.534 19.7792L173.112 17.9903ZM171.102 16.0748C170.328 15.7282 169.479 15.6016 168.633 15.6016V19.6016C169.1 19.6016 169.353 19.6742 169.469 19.726L171.102 16.0748ZM168.633 15.6016C167.687 15.6016 166.759 15.7906 165.915 16.2423L167.801 19.7694C167.965 19.682 168.221 19.6016 168.633 19.6016V15.6016ZM165.897 16.2517C165.118 16.6782 164.475 17.2721 163.976 18.0029L167.279 20.2588C167.436 20.0287 167.613 19.8725 167.819 19.7601L165.897 16.2517ZM163.97 18.0119C163.508 18.6959 163.183 19.4622 162.971 20.2813L166.843 21.2851C166.958 20.8386 167.114 20.5033 167.285 20.2498L163.97 18.0119ZM162.971 20.2813C162.76 21.0951 162.661 21.9449 162.661 22.8223H166.661C166.661 22.2465 166.726 21.737 166.843 21.2851L162.971 20.2813ZM189.868 18.6738L188.043 19.4906L188.047 19.4997L188.051 19.5088L189.868 18.6738ZM188.937 17.6367L187.908 19.3517L187.918 19.3581L187.929 19.3643L188.937 17.6367ZM185.878 17.5664L186.71 19.3854L186.731 19.3756L186.752 19.3654L185.878 17.5664ZM184.929 18.3926L186.619 19.4627L186.626 19.4502L186.634 19.4377L184.929 18.3926ZM184.595 19.6406V21.6406H186.595V19.6406H184.595ZM179.532 19.6406H177.532V21.6406H179.532V19.6406ZM181.73 15.4219L182.95 17.0062L182.958 16.9999L182.966 16.9936L181.73 15.4219ZM184.279 14.1035L183.673 12.1974L183.667 12.1995L184.279 14.1035ZM194.263 16.582L192.599 17.6914L192.603 17.6983L192.608 17.705L194.263 16.582ZM195.458 30.9785L193.494 31.3575L193.496 31.364L195.458 30.9785ZM196.021 32.7012H198.021V32.229L197.81 31.8067L196.021 32.7012ZM196.021 33V35H198.021V33H196.021ZM190.905 33L189.101 33.8615L189.644 35H190.905V33ZM190.343 31.0664L188.365 31.3616L188.367 31.3784L188.37 31.3952L190.343 31.0664ZM190.835 21.416L192.835 21.3915L192.811 19.416H190.835V21.416ZM190.87 24.2812V26.2812H192.895L192.87 24.2567L190.87 24.2812ZM185.087 25.1602L186.384 26.6826L186.4 26.669L186.416 26.655L185.087 25.1602ZM184.384 26.1094L182.54 25.3359L182.529 25.3615L182.519 25.3874L184.384 26.1094ZM184.472 28.4824L182.732 29.4684L182.739 29.4812L182.746 29.4939L184.472 28.4824ZM185.333 29.291L184.395 31.0572L184.417 31.0688L184.439 31.0799L185.333 29.291ZM189.939 27.9902L188.308 26.8318L188.298 26.8463L188.288 26.8609L189.939 27.9902ZM190.431 26.7246L192.128 25.6671L188.626 20.0455L188.432 26.6658L190.431 26.7246ZM191.767 28.8691L193.63 29.5962L193.994 28.6624L193.464 27.8116L191.767 28.8691ZM190.993 30.3633L189.306 29.2895L189.297 29.3033L189.289 29.3172L190.993 30.3633ZM189.78 31.8223L191.122 33.3053L191.132 33.2967L191.141 33.2879L189.78 31.8223ZM188.005 32.9297L188.759 34.7823L188.772 34.7768L188.785 34.7712L188.005 32.9297ZM182.257 32.6309L181.354 34.4154L181.367 34.4219L181.38 34.4282L182.257 32.6309ZM179.937 30.6094L178.259 31.6978L178.267 31.711L178.276 31.724L179.937 30.6094ZM181.308 23.0508L182.483 24.6694L182.487 24.666L181.308 23.0508ZM184.068 21.8379L184.543 23.7806L184.553 23.7782L184.562 23.7757L184.068 21.8379ZM192.167 28.7109V20.2383H188.167V28.7109H192.167ZM192.167 20.2383C192.167 19.4177 192.034 18.5963 191.686 17.8388L188.051 19.5088C188.101 19.6185 188.167 19.8401 188.167 20.2383H192.167ZM191.694 17.8571C191.324 17.0297 190.727 16.3657 189.944 15.9092L187.929 19.3643C187.99 19.4 188.014 19.4274 188.043 19.4906L191.694 17.8571ZM189.966 15.9217C189.15 15.4322 188.226 15.2676 187.337 15.2676V19.2676C187.76 19.2676 187.903 19.349 187.908 19.3517L189.966 15.9217ZM187.337 15.2676C186.541 15.2676 185.743 15.4087 185.004 15.7674L186.752 19.3654C186.834 19.3257 187.008 19.2676 187.337 19.2676V15.2676ZM185.047 15.7475C184.297 16.0901 183.667 16.6248 183.224 17.3475L186.634 19.4377C186.641 19.4268 186.644 19.4241 186.646 19.4222C186.649 19.4196 186.666 19.4053 186.71 19.3854L185.047 15.7475ZM183.239 17.3225C182.784 18.0412 182.595 18.8411 182.595 19.6406H186.595C186.595 19.5551 186.605 19.5065 186.61 19.4853C186.613 19.4745 186.616 19.4686 186.617 19.4663C186.618 19.4641 186.618 19.4632 186.619 19.4627L183.239 17.3225ZM184.595 17.6406H179.532V21.6406H184.595V17.6406ZM181.532 19.6406C181.532 19.1549 181.642 18.7014 181.872 18.2552L178.318 16.4206C177.798 17.4275 177.532 18.5092 177.532 19.6406H181.532ZM181.872 18.2552C182.099 17.815 182.443 17.3968 182.95 17.0062L180.509 13.8376C179.586 14.5485 178.84 15.4077 178.318 16.4206L181.872 18.2552ZM182.966 16.9936C183.471 16.5968 184.102 16.2611 184.891 16.0076L183.667 12.1995C182.486 12.5788 181.418 13.122 180.493 13.8501L182.966 16.9936ZM184.884 16.0097C185.653 15.7653 186.558 15.6289 187.618 15.6289V11.6289C186.218 11.6289 184.896 11.8089 183.673 12.1974L184.884 16.0097ZM187.618 15.6289C188.873 15.6289 189.91 15.8376 190.768 16.2055L192.344 12.5289C190.905 11.9124 189.317 11.6289 187.618 11.6289V15.6289ZM190.768 16.2055C191.581 16.5538 192.17 17.0484 192.599 17.6914L195.927 15.4726C195.043 14.1469 193.828 13.1649 192.344 12.5289L190.768 16.2055ZM192.608 17.705C193.002 18.2859 193.265 19.1001 193.265 20.2734H197.265C197.265 18.4936 196.86 16.8469 195.918 15.459L192.608 17.705ZM193.265 20.2734V28.4121H197.265V20.2734H193.265ZM193.265 28.4121C193.265 29.5227 193.332 30.5173 193.494 31.3575L197.422 30.5995C197.326 30.1038 197.265 29.3875 197.265 28.4121H193.265ZM193.496 31.364C193.652 32.1604 193.89 32.9122 194.232 33.5956L197.81 31.8067C197.659 31.5058 197.522 31.1091 197.421 30.593L193.496 31.364ZM194.021 32.7012V33H198.021V32.7012H194.021ZM196.021 31H190.905V35H196.021V31ZM192.71 32.1385C192.569 31.8413 192.424 31.3899 192.316 30.7376L188.37 31.3952C188.519 32.2898 188.75 33.1274 189.101 33.8615L192.71 32.1385ZM192.321 30.7712C192.218 30.0827 192.167 29.3962 192.167 28.7109H188.167C188.167 29.596 188.233 30.4798 188.365 31.3616L192.321 30.7712ZM188.835 21.4406L188.87 24.3058L192.87 24.2567L192.835 21.3915L188.835 21.4406ZM190.87 22.2812H188.04V26.2812H190.87V22.2812ZM188.04 22.2812C187.228 22.2812 186.439 22.373 185.709 22.5992L186.891 26.4203C187.145 26.3418 187.517 26.2812 188.04 26.2812V22.2812ZM185.709 22.5992C185.002 22.818 184.329 23.1579 183.758 23.6653L186.416 26.655C186.478 26.5999 186.614 26.5062 186.891 26.4203L185.709 22.5992ZM183.79 23.6377C183.249 24.099 182.82 24.6676 182.54 25.3359L186.228 26.8828C186.253 26.8246 186.293 26.7604 186.384 26.6826L183.79 23.6377ZM182.519 25.3874C182.28 26.0056 182.173 26.652 182.173 27.3047H186.173C186.173 27.0902 186.207 26.9398 186.249 26.8314L182.519 25.3874ZM182.173 27.3047C182.173 28.0578 182.35 28.7943 182.732 29.4684L186.212 27.4964C186.195 27.4674 186.173 27.4187 186.173 27.3047H182.173ZM182.746 29.4939C183.148 30.1783 183.719 30.6983 184.395 31.0572L186.272 27.5248C186.228 27.5019 186.21 27.4857 186.205 27.4813C186.202 27.4777 186.2 27.4758 186.197 27.471L182.746 29.4939ZM184.439 31.0799C185.142 31.4315 185.899 31.5723 186.652 31.5723V27.5723C186.396 27.5723 186.274 27.5255 186.228 27.5022L184.439 31.0799ZM186.652 31.5723C187.683 31.5723 188.684 31.3646 189.59 30.8738L187.685 27.3567C187.466 27.4753 187.144 27.5723 186.652 27.5723V31.5723ZM189.59 30.8738C190.381 30.4458 191.075 29.8716 191.589 29.1196L188.288 26.8609C188.193 26.9995 188.02 27.1753 187.685 27.3567L189.59 30.8738ZM191.569 29.1486C192.032 28.4971 192.403 27.6982 192.43 26.7834L188.432 26.6658C188.433 26.6082 188.445 26.5882 188.435 26.615C188.424 26.6446 188.39 26.7168 188.308 26.8318L191.569 29.1486ZM188.733 27.7821L190.069 29.9266L193.464 27.8116L192.128 25.6671L188.733 27.7821ZM189.904 28.1421C189.771 28.4818 189.577 28.864 189.306 29.2895L192.681 31.437C193.066 30.8313 193.388 30.2174 193.63 29.5962L189.904 28.1421ZM189.289 29.3172C189.077 29.6621 188.793 30.0098 188.42 30.3567L191.141 33.2879C191.752 32.7207 192.277 32.0957 192.698 31.4093L189.289 29.3172ZM188.439 30.3392C188.133 30.6162 187.737 30.8711 187.225 31.0882L188.785 34.7712C189.656 34.4023 190.444 33.919 191.122 33.3053L188.439 30.3392ZM187.251 31.0771C186.855 31.2385 186.302 31.3516 185.544 31.3516V35.3516C186.684 35.3516 187.773 35.1834 188.759 34.7823L187.251 31.0771ZM185.544 31.3516C184.61 31.3516 183.819 31.1675 183.134 30.8335L181.38 34.4282C182.664 35.0551 184.064 35.3516 185.544 35.3516V31.3516ZM183.16 30.8463C182.475 30.4996 181.969 30.0491 181.597 29.4947L178.276 31.724C179.052 32.8806 180.094 33.7778 181.354 34.4154L183.16 30.8463ZM181.615 29.521C181.276 28.9995 181.093 28.3981 181.093 27.6562H177.093C177.093 29.1175 177.472 30.4849 178.259 31.6978L181.615 29.521ZM181.093 27.6562C181.093 26.9145 181.231 26.3359 181.455 25.8745L177.856 24.1294C177.33 25.2149 177.093 26.4058 177.093 27.6562H181.093ZM181.455 25.8745C181.68 25.4107 182.01 25.0122 182.483 24.6694L180.133 21.4322C179.152 22.1441 178.381 23.0463 177.856 24.1294L181.455 25.8745ZM182.487 24.666C182.97 24.3133 183.636 24.0025 184.543 23.7806L183.592 19.8952C182.296 20.2124 181.122 20.7102 180.128 21.4355L182.487 24.666ZM184.562 23.7757C185.465 23.5453 186.57 23.416 187.9 23.416V19.416C186.323 19.416 184.874 19.5679 183.573 19.9001L184.562 23.7757ZM187.9 23.416H190.835V19.416H187.9V23.416ZM209.68 28.8516H207.68V28.974L207.695 29.0955L209.68 28.8516ZM209.68 6V4H207.68V6H209.68ZM214.777 6H216.777V4H214.777V6ZM214.777 33V35H216.777V33H214.777ZM210.189 33L208.204 33.2439L208.42 35H210.189V33ZM198.148 19.3945L200.076 19.9288L200.077 19.924L198.148 19.3945ZM208.01 14.332L207.028 16.0746L207.038 16.0803L208.01 14.332ZM210.154 16.3359L208.497 17.4557L208.506 17.4686L208.515 17.4814L210.154 16.3359ZM211.596 19.377L209.685 19.9692L209.687 19.9746L211.596 19.377ZM212.387 23.1914H214.387V23.0732L214.373 22.9558L212.387 23.1914ZM212.387 24L214.371 24.2459L214.387 24.1234V24H212.387ZM210.154 30.6797L208.515 29.5343L208.511 29.5389L210.154 30.6797ZM201.893 32.6309L200.962 34.4012L200.971 34.406L201.893 32.6309ZM199.572 30.6094L197.946 31.7739L197.951 31.7811L197.957 31.7883L199.572 30.6094ZM202.894 25.916L200.924 26.2558L200.926 26.2723L200.929 26.2887L202.894 25.916ZM203.51 27.7266L201.745 28.6677L201.758 28.6913L201.771 28.7146L203.51 27.7266ZM204.635 28.9395L203.555 30.6232L203.58 30.6392L203.606 30.6544L204.635 28.9395ZM208.484 28.7812L209.617 30.4293L209.629 30.4214L209.64 30.4133L208.484 28.7812ZM209.768 27.1465L207.937 26.34L207.932 26.353L207.926 26.3662L209.768 27.1465ZM210.295 24.7559L212.292 24.8596L212.295 24.8078V24.7559H210.295ZM210.295 22.4531H212.295V22.4055L212.293 22.358L210.295 22.4531ZM209.978 20.4668L208.05 20.9962L208.056 21.0189L208.063 21.0415L209.978 20.4668ZM209.24 18.9375L207.64 20.1375L207.651 20.1515L207.661 20.1654L209.24 18.9375ZM208.045 17.9531L207.15 19.742L207.159 19.7464L207.168 19.7507L208.045 17.9531ZM204.687 18.0586L205.747 19.7546L205.762 19.7452L205.777 19.7355L204.687 18.0586ZM203.545 19.2715L201.806 18.2835L201.797 18.2985L201.789 18.3138L203.545 19.2715ZM202.912 21.0996L200.951 20.7074L200.948 20.7202L200.946 20.733L202.912 21.0996ZM211.68 28.8516V6H207.68V28.8516H211.68ZM209.68 8H214.777V4H209.68V8ZM212.777 6V33H216.777V6H212.777ZM214.777 31H210.189V35H214.777V31ZM212.174 32.7561L211.665 28.6076L207.695 29.0955L208.204 33.2439L212.174 32.7561ZM199.656 23.7188V23.3496H195.656V23.7188H199.656ZM199.656 23.3496C199.656 22.0451 199.804 20.9101 200.076 19.9288L196.221 18.8602C195.837 20.2462 195.656 21.7479 195.656 23.3496H199.656ZM200.077 19.924C200.35 18.9279 200.734 18.1351 201.198 17.5078L197.982 15.129C197.18 16.2126 196.603 17.4705 196.22 18.8651L200.077 19.924ZM201.198 17.5078C201.65 16.8962 202.191 16.4407 202.831 16.1163L201.024 12.5477C199.813 13.1609 198.795 14.0296 197.982 15.129L201.198 17.5078ZM202.831 16.1163C203.44 15.8082 204.178 15.6289 205.092 15.6289V11.6289C203.639 11.6289 202.267 11.9184 201.024 12.5477L202.831 16.1163ZM205.092 15.6289C205.919 15.6289 206.542 15.8007 207.028 16.0745L208.991 12.5895C207.813 11.9258 206.491 11.6289 205.092 11.6289V15.6289ZM207.038 16.0803C207.585 16.3838 208.072 16.8266 208.497 17.4557L211.811 15.2162C211.065 14.1109 210.122 13.2178 208.981 12.5837L207.038 16.0803ZM208.515 17.4814C208.975 18.1408 209.373 18.9608 209.685 19.9692L213.506 18.7848C213.092 17.4493 212.528 16.242 211.794 15.1905L208.515 17.4814ZM209.687 19.9746C210.008 21.0012 210.249 22.1497 210.401 23.427L214.373 22.9558C214.196 21.4675 213.909 20.073 213.504 18.7793L209.687 19.9746ZM210.387 23.1914V24H214.387V23.1914H210.387ZM210.402 23.7541C210.251 24.9693 210.012 26.077 209.691 27.0826L213.501 28.3002C213.906 27.0324 214.194 25.6791 214.371 24.2459L210.402 23.7541ZM209.691 27.0826C209.38 28.055 208.982 28.865 208.515 29.5343L211.794 31.8251C212.521 30.7835 213.085 29.6012 213.501 28.3002L209.691 27.0826ZM208.511 29.5389C208.089 30.148 207.598 30.5894 207.038 30.9001L208.981 34.3968C210.109 33.77 211.048 32.8989 211.797 31.8205L208.511 29.5389ZM207.038 30.9001C206.538 31.1783 205.898 31.3516 205.057 31.3516V35.3516C206.465 35.3516 207.794 35.056 208.981 34.3968L207.038 30.9001ZM205.057 31.3516C204.15 31.3516 203.419 31.1696 202.814 30.8557L200.971 34.406C202.218 35.0531 203.596 35.3516 205.057 35.3516V31.3516ZM202.823 30.8605C202.19 30.528 201.648 30.0608 201.188 29.4304L197.957 31.7883C198.762 32.8923 199.767 33.7728 200.962 34.4012L202.823 30.8605ZM201.198 29.4448C200.73 28.7917 200.348 27.9903 200.074 27.0115L196.222 28.09C196.605 29.455 197.172 30.6927 197.946 31.7739L201.198 29.4448ZM200.074 27.0115C199.801 26.0372 199.656 24.9436 199.656 23.7188H195.656C195.656 25.2595 195.839 26.7206 196.222 28.09L200.074 27.0115ZM200.719 23.3496V23.7188H204.719V23.3496H200.719ZM200.719 23.7188C200.719 24.6025 200.785 25.4498 200.924 26.2558L204.865 25.5762C204.77 25.0229 204.719 24.4053 204.719 23.7188H200.719ZM200.929 26.2887C201.09 27.1363 201.355 27.9366 201.745 28.6677L205.274 26.7854C205.102 26.4619 204.956 26.0551 204.859 25.5433L200.929 26.2887ZM201.771 28.7146C202.209 29.4855 202.801 30.1394 203.555 30.6232L205.714 27.2557C205.555 27.1535 205.396 26.9988 205.249 26.7385L201.771 28.7146ZM203.606 30.6544C204.448 31.1596 205.39 31.3613 206.34 31.3613V27.3613C205.954 27.3613 205.759 27.2818 205.664 27.2245L203.606 30.6544ZM206.34 31.3613C207.502 31.3613 208.641 31.1003 209.617 30.4293L207.351 27.1332C207.202 27.2357 206.912 27.3613 206.34 27.3613V31.3613ZM209.64 30.4133C210.533 29.7811 211.185 28.9286 211.609 27.9268L207.926 26.3662C207.765 26.7472 207.561 26.9846 207.328 27.1492L209.64 30.4133ZM211.598 27.953C212.017 27.0006 212.235 25.9581 212.292 24.8596L208.298 24.6521C208.261 25.3583 208.127 25.9095 207.937 26.34L211.598 27.953ZM212.295 24.7559V22.4531H208.295V24.7559H212.295ZM212.293 22.358C212.251 21.4896 212.125 20.6623 211.894 19.8921L208.063 21.0415C208.183 21.4432 208.268 21.9401 208.297 22.5483L212.293 22.358ZM211.907 19.9374C211.684 19.1262 211.332 18.3695 210.819 17.7096L207.661 20.1654C207.804 20.3493 207.944 20.6121 208.05 20.9962L211.907 19.9374ZM210.84 17.7375C210.331 17.0583 209.683 16.527 208.922 16.1556L207.168 19.7507C207.368 19.848 207.517 19.9729 207.64 20.1375L210.84 17.7375ZM208.939 16.1643C208.136 15.7628 207.26 15.6016 206.375 15.6016V19.6016C206.779 19.6016 207.016 19.6747 207.15 19.742L208.939 16.1643ZM206.375 15.6016C205.4 15.6016 204.444 15.8317 203.597 16.3817L205.777 19.7355C205.869 19.6762 206.037 19.6016 206.375 19.6016V15.6016ZM203.627 16.3626C202.857 16.8443 202.251 17.5008 201.806 18.2835L205.284 20.2595C205.425 20.0109 205.581 19.8588 205.747 19.7546L203.627 16.3626ZM201.789 18.3138C201.393 19.0405 201.123 19.8485 200.951 20.7074L204.873 21.4918C204.983 20.9445 205.135 20.5337 205.301 20.2292L201.789 18.3138ZM200.946 20.733C200.791 21.5617 200.719 22.4359 200.719 23.3496H204.719C204.719 22.6462 204.775 22.0203 204.878 21.4662L200.946 20.733Z" fill="#F4F1DE"/>
</svg>
