<svg width="50" height="23" viewBox="0 0 50 23" fill="none" xmlns="http://www.w3.org/2000/svg">
<path d="M17.9242 2.01603L17.9247 2.01568C18.5787 1.50384 19.4004 1.19438 20.2165 1.06692C21.0429 0.937855 21.7769 1.00854 22.232 1.16694C22.7204 1.3369 23.053 1.57831 23.2927 1.87703C23.538 2.18266 23.7293 2.60253 23.8461 3.18898C24.1963 4.9496 23.9326 6.69153 23.2176 8.40082C22.4602 10.2041 21.5516 11.8213 20.447 13.4286C18.965 15.5844 17.5661 17.6097 15.7993 19.3383L15.799 19.3386C14.7311 20.3843 13.6712 21.281 12.4571 21.7472C11.6977 22.0385 11.2293 22.0433 10.8942 21.9346C10.5546 21.8244 10.1615 21.5358 9.6861 20.8332L9.68562 20.8325C8.99656 19.8159 8.60667 18.6687 8.26371 17.3376C7.57744 14.6679 6.88834 12.0019 6.14888 9.34004L6.14889 9.34004L6.14737 9.33468C5.92599 8.55462 5.58506 7.81721 5.26118 7.16518C5.0275 6.6922 4.63343 6.28725 4.36352 6.03625C3.62768 5.33733 2.70025 5.57754 2.18018 5.90953L2.18016 5.90951L2.17416 5.9134C1.95095 6.05814 1.66355 6.26005 1.39931 6.44985L1.31529 6.335C1.97121 5.69773 2.78129 4.94203 3.50062 4.27975C3.97901 3.83931 4.41274 3.44432 4.72689 3.15943C4.88393 3.01702 5.01099 2.90222 5.09868 2.8231L5.19951 2.73223L5.22557 2.70879L5.22961 2.70515C5.50619 2.46314 5.92669 2.12874 6.36248 1.84764C6.83673 1.54173 7.19034 1.39107 7.3635 1.36801C7.8143 1.30982 8.15299 1.36495 8.41518 1.48586C8.67353 1.60499 8.93103 1.82163 9.16806 2.21094C9.66583 3.04242 9.85284 4.06428 10.0409 5.25578L10.0413 5.25818C10.1318 5.82278 10.2157 6.40048 10.3008 6.98634C10.5711 8.84715 10.8533 10.7904 11.3973 12.6581L11.3975 12.6591C11.5847 13.2994 11.809 13.9504 12.1589 14.5965L12.1598 14.5983C12.3981 15.0362 12.7971 15.5389 13.4445 15.6899C14.1268 15.8491 14.7106 15.5365 15.1132 15.1857L15.1137 15.1852C15.3666 14.9645 15.5979 14.7188 15.8047 14.4519L15.8047 14.4519L15.8085 14.4469C16.9762 12.9203 17.9725 11.1644 18.6114 9.33362C18.8613 8.62375 18.8862 7.94661 18.8682 7.31678C18.834 6.09424 17.9788 4.91427 16.5357 4.83166L16.5353 4.83163C16.2757 4.81688 16.0266 4.82809 15.7889 4.85708C16.2988 3.80684 17.0459 2.70255 17.9242 2.01603Z" stroke="#F2CC8F" stroke-width="2"/>
<path d="M27.1742 5.9134C26.951 6.05814 26.6635 6.26005 26.3993 6.44985L26.3153 6.335C26.9712 5.69773 27.7813 4.94203 28.5006 4.27975C28.979 3.83931 29.4127 3.44432 29.7269 3.15943C29.8839 3.01702 30.011 2.90222 30.0987 2.8231L30.1995 2.73223L30.2256 2.70879L30.2296 2.70515C30.5062 2.46314 30.9267 2.12874 31.3625 1.84764C31.8367 1.54173 32.1903 1.39107 32.3635 1.36801C32.8143 1.30982 33.153 1.36495 33.4152 1.48586C33.6735 1.605 33.9311 1.82165 34.1681 2.21098C34.6658 3.04245 34.8528 4.0643 35.0409 5.25578L35.0413 5.25818C35.1318 5.82279 35.2157 6.40048 35.3008 6.98635C35.5711 8.84716 35.8533 10.7904 36.3973 12.6581L36.3975 12.6591C36.5847 13.2994 36.809 13.9504 37.1589 14.5965L37.1598 14.5983C37.3981 15.0362 37.7971 15.5389 38.4445 15.6899C39.1268 15.849 39.7106 15.5365 40.1132 15.1857L40.1137 15.1852C40.3666 14.9645 40.5979 14.7188 40.8047 14.4519L40.8047 14.4519L40.8085 14.4469C41.9762 12.9203 42.9725 11.1644 43.6114 9.33363C43.8613 8.62376 43.8862 7.94662 43.8682 7.31678C43.834 6.09424 42.9788 4.91427 41.5357 4.83166L41.5353 4.83163C41.2757 4.81688 41.0266 4.82809 40.7889 4.85708C41.2988 3.80684 42.0459 2.70255 42.9242 2.01603L42.9247 2.01568C43.5787 1.50384 44.4004 1.19438 45.2165 1.06692C46.0429 0.937855 46.7769 1.00854 47.232 1.16694C47.7204 1.3369 48.053 1.57831 48.2927 1.87702C48.538 2.18266 48.7293 2.60253 48.8461 3.18898C49.1963 4.94945 48.9326 6.69122 48.2178 8.40036C47.4603 10.2039 46.5517 11.8212 45.4469 13.4288C43.965 15.5845 42.5661 17.6098 40.7993 19.3383L40.799 19.3386C39.7311 20.3843 38.6712 21.281 37.4571 21.7472C36.6977 22.0385 36.2293 22.0433 35.8942 21.9346C35.5546 21.8244 35.1615 21.5358 34.6861 20.8332L34.6856 20.8325C33.9966 19.8159 33.6067 18.6687 33.2637 17.3376C32.5774 14.6679 31.8883 12.0019 31.1489 9.34004L31.1489 9.34004L31.1474 9.33468C30.926 8.55455 30.585 7.81708 30.2611 7.165C30.0274 6.6921 29.6334 6.28722 29.3635 6.03625C28.6277 5.33733 27.7003 5.57754 27.1802 5.90953L27.1802 5.90951L27.1742 5.9134Z" stroke="#F2CC8F" stroke-width="2"/>
</svg>
