<svg width="1389" height="84" viewBox="0 0 1389 84" fill="none" xmlns="http://www.w3.org/2000/svg">
<path d="M27.457 15.8125V67H16.9453V15.8125H27.457ZM43.207 15.8125V24.0742H1.44141V15.8125H43.207ZM61.3491 67.7031C58.3959 67.7031 55.7475 67.2344 53.4038 66.2969C51.06 65.3359 49.0678 64.0117 47.4272 62.3242C45.81 60.6367 44.5678 58.6797 43.7006 56.4531C42.8334 54.2031 42.3998 51.8125 42.3998 49.2812V47.875C42.3998 44.9922 42.81 42.3555 43.6303 39.9648C44.4506 37.5742 45.6225 35.5 47.1459 33.7422C48.6928 31.9844 50.5678 30.6367 52.7709 29.6992C54.9741 28.7383 57.4584 28.2578 60.2241 28.2578C62.9194 28.2578 65.31 28.7031 67.3959 29.5938C69.4819 30.4844 71.228 31.75 72.6342 33.3906C74.0639 35.0312 75.142 37 75.8686 39.2969C76.5952 41.5703 76.9584 44.1016 76.9584 46.8906V51.1094H46.7241V44.3594H67.0092V43.5859C67.0092 42.1797 66.7514 40.9258 66.2358 39.8242C65.7436 38.6992 64.9936 37.8086 63.9858 37.1523C62.978 36.4961 61.6889 36.168 60.1186 36.168C58.7827 36.168 57.6342 36.4609 56.6733 37.0469C55.7123 37.6328 54.9272 38.4531 54.3178 39.5078C53.7319 40.5625 53.2866 41.8047 52.9819 43.2344C52.7006 44.6406 52.56 46.1875 52.56 47.875V49.2812C52.56 50.8047 52.7709 52.2109 53.1928 53.5C53.6381 54.7891 54.2592 55.9023 55.0561 56.8398C55.8764 57.7773 56.8608 58.5039 58.0092 59.0195C59.1811 59.5352 60.5053 59.793 61.9819 59.793C63.81 59.793 65.5092 59.4414 67.0795 58.7383C68.6733 58.0117 70.0444 56.9219 71.1928 55.4688L76.1147 60.8125C75.3178 61.9609 74.228 63.0625 72.8452 64.1172C71.4858 65.1719 69.8452 66.0391 67.9233 66.7188C66.0014 67.375 63.81 67.7031 61.3491 67.7031ZM91.4091 37.2578V67H81.2841V28.9609H90.8114L91.4091 37.2578ZM102.87 28.7148L102.694 38.1016C102.202 38.0312 101.604 37.9727 100.901 37.9258C100.222 37.8555 99.6005 37.8203 99.038 37.8203C97.6083 37.8203 96.3661 38.0078 95.3114 38.3828C94.2802 38.7344 93.413 39.2617 92.7098 39.9648C92.0302 40.668 91.5145 41.5234 91.163 42.5312C90.8348 43.5391 90.6473 44.6875 90.6005 45.9766L88.5614 45.3438C88.5614 42.8828 88.8075 40.6211 89.2997 38.5586C89.7919 36.4727 90.5067 34.6562 91.4442 33.1094C92.4052 31.5625 93.577 30.3672 94.9598 29.5234C96.3427 28.6797 97.9247 28.2578 99.7059 28.2578C100.268 28.2578 100.843 28.3047 101.429 28.3984C102.015 28.4688 102.495 28.5742 102.87 28.7148ZM123.016 67.7031C120.063 67.7031 117.414 67.2344 115.071 66.2969C112.727 65.3359 110.735 64.0117 109.094 62.3242C107.477 60.6367 106.235 58.6797 105.368 56.4531C104.5 54.2031 104.067 51.8125 104.067 49.2812V47.875C104.067 44.9922 104.477 42.3555 105.297 39.9648C106.118 37.5742 107.289 35.5 108.813 33.7422C110.36 31.9844 112.235 30.6367 114.438 29.6992C116.641 28.7383 119.125 28.2578 121.891 28.2578C124.586 28.2578 126.977 28.7031 129.063 29.5938C131.149 30.4844 132.895 31.75 134.301 33.3906C135.731 35.0312 136.809 37 137.535 39.2969C138.262 41.5703 138.625 44.1016 138.625 46.8906V51.1094H108.391V44.3594H128.676V43.5859C128.676 42.1797 128.418 40.9258 127.903 39.8242C127.41 38.6992 126.66 37.8086 125.653 37.1523C124.645 36.4961 123.356 36.168 121.785 36.168C120.45 36.168 119.301 36.4609 118.34 37.0469C117.379 37.6328 116.594 38.4531 115.985 39.5078C115.399 40.5625 114.953 41.8047 114.649 43.2344C114.368 44.6406 114.227 46.1875 114.227 47.875V49.2812C114.227 50.8047 114.438 52.2109 114.86 53.5C115.305 54.7891 115.926 55.9023 116.723 56.8398C117.543 57.7773 118.528 58.5039 119.676 59.0195C120.848 59.5352 122.172 59.793 123.649 59.793C125.477 59.793 127.176 59.4414 128.746 58.7383C130.34 58.0117 131.711 56.9219 132.86 55.4688L137.782 60.8125C136.985 61.9609 135.895 63.0625 134.512 64.1172C133.153 65.1719 131.512 66.0391 129.59 66.7188C127.668 67.375 125.477 67.7031 123.016 67.7031ZM154.377 15.8125L153.217 51.3555H144.779L143.584 15.8125H154.377ZM143.303 62.3594C143.303 60.8594 143.818 59.6172 144.849 58.6328C145.904 57.625 147.287 57.1211 148.998 57.1211C150.732 57.1211 152.115 57.625 153.146 58.6328C154.178 59.6172 154.693 60.8594 154.693 62.3594C154.693 63.8125 154.178 65.043 153.146 66.0508C152.115 67.0586 150.732 67.5625 148.998 67.5625C147.287 67.5625 145.904 67.0586 144.849 66.0508C143.818 65.043 143.303 63.8125 143.303 62.3594Z" fill="#F4F1DE"/>
<path d="M27.457 15.8125H28.457V14.8125H27.457V15.8125ZM27.457 67V68H28.457V67H27.457ZM16.9453 67H15.9453V68H16.9453V67ZM16.9453 15.8125V14.8125H15.9453V15.8125H16.9453ZM43.207 15.8125H44.207V14.8125H43.207V15.8125ZM43.207 24.0742V25.0742H44.207V24.0742H43.207ZM1.44141 24.0742H0.441406V25.0742H1.44141V24.0742ZM1.44141 15.8125V14.8125H0.441406V15.8125H1.44141ZM26.457 15.8125V67H28.457V15.8125H26.457ZM27.457 66H16.9453V68H27.457V66ZM17.9453 67V15.8125H15.9453V67H17.9453ZM16.9453 16.8125H27.457V14.8125H16.9453V16.8125ZM42.207 15.8125V24.0742H44.207V15.8125H42.207ZM43.207 23.0742H1.44141V25.0742H43.207V23.0742ZM2.44141 24.0742V15.8125H0.441406V24.0742H2.44141ZM1.44141 16.8125H43.207V14.8125H1.44141V16.8125ZM53.4038 66.2969L53.0244 67.2222L53.0324 67.2254L53.4038 66.2969ZM47.4272 62.3242L46.7052 63.0161L46.7102 63.0213L47.4272 62.3242ZM43.7006 56.4531L42.7675 56.8128L42.7688 56.816L43.7006 56.4531ZM47.1459 33.7422L46.3952 33.0815L46.3902 33.0873L47.1459 33.7422ZM52.7709 29.6992L53.1625 30.6194L53.1707 30.6158L52.7709 29.6992ZM72.6342 33.3906L71.8749 34.0414L71.8803 34.0476L72.6342 33.3906ZM75.8686 39.2969L74.9152 39.5985L74.9161 39.6013L75.8686 39.2969ZM76.9584 51.1094V52.1094H77.9584V51.1094H76.9584ZM46.7241 51.1094H45.7241V52.1094H46.7241V51.1094ZM46.7241 44.3594V43.3594H45.7241V44.3594H46.7241ZM67.0092 44.3594V45.3594H68.0092V44.3594H67.0092ZM66.2358 39.8242L65.3196 40.225L65.3247 40.2367L65.3301 40.2482L66.2358 39.8242ZM54.3178 39.5078L53.4519 39.0075L53.4477 39.0148L53.4437 39.0222L54.3178 39.5078ZM52.9819 43.2344L52.0038 43.0259L52.0013 43.0383L52.9819 43.2344ZM53.1928 53.5L52.2424 53.811L52.245 53.8188L52.2476 53.8265L53.1928 53.5ZM55.0561 56.8398L54.2942 57.4875L54.2988 57.493L54.3035 57.4983L55.0561 56.8398ZM58.0092 59.0195L57.5996 59.9318L57.6065 59.9348L58.0092 59.0195ZM67.0795 58.7383L67.4882 59.651L67.4943 59.6482L67.0795 58.7383ZM71.1928 55.4688L71.9284 54.7913L71.1347 53.9296L70.4083 54.8487L71.1928 55.4688ZM76.1147 60.8125L76.9363 61.3826L77.393 60.7243L76.8502 60.135L76.1147 60.8125ZM72.8452 64.1172L72.2387 63.322L72.2322 63.3271L72.8452 64.1172ZM67.9233 66.7188L68.2464 67.6652L68.2567 67.6615L67.9233 66.7188ZM61.3491 66.7031C58.5019 66.7031 55.9825 66.2513 53.7751 65.3684L53.0324 67.2254C55.5125 68.2174 58.29 68.7031 61.3491 68.7031V66.7031ZM53.7831 65.3716C51.5566 64.4587 49.682 63.2089 48.1442 61.6271L46.7102 63.0213C48.4536 64.8146 50.5634 66.2131 53.0244 67.2221L53.7831 65.3716ZM48.1492 61.6323C46.6249 60.0418 45.4531 58.1972 44.6324 56.0902L42.7688 56.816C43.6826 59.1622 44.9951 61.2317 46.7052 63.0161L48.1492 61.6323ZM44.6337 56.0935C43.8129 53.9639 43.3998 51.6957 43.3998 49.2812H41.3998C41.3998 51.9293 41.8539 54.4424 42.7675 56.8128L44.6337 56.0935ZM43.3998 49.2812V47.875H41.3998V49.2812H43.3998ZM43.3998 47.875C43.3998 45.0873 43.7964 42.562 44.5762 40.2894L42.6844 39.6403C41.8236 42.1489 41.3998 44.897 41.3998 47.875H43.3998ZM44.5762 40.2894C45.3585 38.0095 46.4692 36.0499 47.9016 34.3971L46.3902 33.0873C44.7758 34.9501 43.5428 37.1389 42.6844 39.6403L44.5762 40.2894ZM47.8967 34.4028C49.3424 32.7599 51.0938 31.4997 53.1625 30.6194L52.3794 28.7791C50.0418 29.7738 48.0432 31.2089 46.3952 33.0816L47.8967 34.4028ZM53.1707 30.6158C55.2302 29.7176 57.5754 29.2578 60.2241 29.2578V27.2578C57.3414 27.2578 54.718 27.759 52.3711 28.7826L53.1707 30.6158ZM60.2241 29.2578C62.8094 29.2578 65.0625 29.6848 67.0033 30.5134L67.7886 28.6741C65.5575 27.7214 63.0294 27.2578 60.2241 27.2578V29.2578ZM67.0033 30.5134C68.9552 31.3468 70.5736 32.5232 71.875 34.0414L73.3935 32.7398C71.8823 30.9768 70.0086 29.6219 67.7886 28.6741L67.0033 30.5134ZM71.8803 34.0476C73.2106 35.5741 74.2256 37.4184 74.9152 39.5985L76.822 38.9953C76.0585 36.5816 74.9172 34.4884 73.3881 32.7336L71.8803 34.0476ZM74.9161 39.6013C75.6064 41.7613 75.9584 44.1879 75.9584 46.8906H77.9584C77.9584 44.0152 77.5839 41.3793 76.8211 38.9925L74.9161 39.6013ZM75.9584 46.8906V51.1094H77.9584V46.8906H75.9584ZM76.9584 50.1094H46.7241V52.1094H76.9584V50.1094ZM47.7241 51.1094V44.3594H45.7241V51.1094H47.7241ZM46.7241 45.3594H67.0092V43.3594H46.7241V45.3594ZM68.0092 44.3594V43.5859H66.0092V44.3594H68.0092ZM68.0092 43.5859C68.0092 42.056 67.7282 40.6538 67.1415 39.4003L65.3301 40.2482C65.7746 41.1978 66.0092 42.3034 66.0092 43.5859H68.0092ZM67.1519 39.4234C66.5833 38.1236 65.7064 37.0794 64.5315 36.3143L63.4401 37.9903C64.2808 38.5378 64.9039 39.2748 65.3196 40.225L67.1519 39.4234ZM64.5315 36.3143C63.3185 35.5245 61.8243 35.168 60.1186 35.168V37.168C61.5535 37.168 62.6375 37.4677 63.4401 37.9903L64.5315 36.3143ZM60.1186 35.168C58.6337 35.168 57.2976 35.495 56.1527 36.1931L57.1939 37.9007C57.9708 37.4269 58.9317 37.168 60.1186 37.168V35.168ZM56.1527 36.1931C55.0373 36.8732 54.138 37.8202 53.4519 39.0075L55.1837 40.0081C55.7164 39.086 56.3874 38.3924 57.1939 37.9007L56.1527 36.1931ZM53.4437 39.0222C52.8006 40.1797 52.325 41.519 52.0038 43.0259L53.9599 43.4428C54.2481 42.0904 54.6631 40.9453 55.192 39.9935L53.4437 39.0222ZM52.0013 43.0383C51.7051 44.5192 51.56 46.1329 51.56 47.875H53.56C53.56 46.2421 53.6961 44.762 53.9625 43.4305L52.0013 43.0383ZM51.56 47.875V49.2812H53.56V47.875H51.56ZM51.56 49.2812C51.56 50.8975 51.7839 52.41 52.2424 53.811L54.1432 53.189C53.758 52.0118 53.56 50.7119 53.56 49.2812H51.56ZM52.2476 53.8265C52.7291 55.2204 53.4085 56.4455 54.2942 57.4875L55.818 56.1922C55.11 55.3592 54.5471 54.3578 54.138 53.1735L52.2476 53.8265ZM54.3035 57.4983C55.2196 58.5453 56.3214 59.3579 57.5996 59.9318L58.4188 58.1073C57.4002 57.6499 56.5332 57.0094 55.8087 56.1813L54.3035 57.4983ZM57.6065 59.9348C58.9233 60.5142 60.3878 60.793 61.9819 60.793V58.793C60.6229 58.793 59.4389 58.5561 58.412 58.1042L57.6065 59.9348ZM61.9819 60.793C63.9419 60.793 65.7814 60.4152 67.4882 59.651L66.6709 57.8256C65.237 58.4676 63.6781 58.793 61.9819 58.793V60.793ZM67.4943 59.6482C69.2409 58.852 70.7363 57.6592 71.9774 56.0888L70.4083 54.8487C69.3525 56.1846 68.1056 57.1715 66.6647 57.8284L67.4943 59.6482ZM70.4573 56.1462L75.3791 61.49L76.8502 60.135L71.9284 54.7913L70.4573 56.1462ZM75.2931 60.2424C74.5682 61.2871 73.5579 62.3159 72.2387 63.3221L73.4516 64.9123C74.898 63.8091 76.0674 62.6348 76.9363 61.3826L75.2931 60.2424ZM72.2322 63.3271C70.9712 64.3055 69.4291 65.1255 67.5899 65.776L68.2567 67.6615C70.2612 66.9526 72.0004 66.0383 73.4582 64.9073L72.2322 63.3271ZM67.6001 65.7724C65.8017 66.3865 63.7226 66.7031 61.3491 66.7031V68.7031C63.8974 68.7031 66.2012 68.3635 68.2464 67.6651L67.6001 65.7724ZM91.4091 37.2578H92.4091V37.2218L92.4065 37.186L91.4091 37.2578ZM91.4091 67V68H92.4091V67H91.4091ZM81.2841 67H80.2841V68H81.2841V67ZM81.2841 28.9609V27.9609H80.2841V28.9609H81.2841ZM90.8114 28.9609L91.8088 28.8891L91.742 27.9609H90.8114V28.9609ZM102.87 28.7148L103.87 28.7336L103.883 28.0267L103.221 27.7785L102.87 28.7148ZM102.694 38.1016L102.553 39.0915L103.673 39.2515L103.694 38.1203L102.694 38.1016ZM100.901 37.9258L100.798 38.9205L100.817 38.9224L100.835 38.9236L100.901 37.9258ZM95.3114 38.3828L95.6341 39.3294L95.6464 39.325L95.3114 38.3828ZM92.7098 39.9648L92.0027 39.2577L91.9967 39.2637L91.9909 39.2698L92.7098 39.9648ZM91.163 42.5312L90.2188 42.2019L90.2153 42.2117L90.2121 42.2217L91.163 42.5312ZM90.6005 45.9766L90.3041 46.9316L91.5523 47.319L91.5998 46.0129L90.6005 45.9766ZM88.5614 45.3438H87.5614V46.0805L88.265 46.2988L88.5614 45.3438ZM89.2997 38.5586L90.2724 38.7907L90.273 38.7882L89.2997 38.5586ZM91.4442 33.1094L90.5947 32.5817L90.589 32.5911L91.4442 33.1094ZM101.429 28.3984L101.271 29.3859L101.29 29.389L101.309 29.3913L101.429 28.3984ZM90.4091 37.2578V67H92.4091V37.2578H90.4091ZM91.4091 66H81.2841V68H91.4091V66ZM82.2841 67V28.9609H80.2841V67H82.2841ZM81.2841 29.9609H90.8114V27.9609H81.2841V29.9609ZM89.814 29.0328L90.4116 37.3297L92.4065 37.186L91.8088 28.8891L89.814 29.0328ZM101.87 28.6961L101.694 38.0828L103.694 38.1203L103.87 28.7336L101.87 28.6961ZM102.836 37.1116C102.311 37.0366 101.687 36.9759 100.968 36.928L100.835 38.9236C101.522 38.9694 102.093 39.0259 102.553 39.0915L102.836 37.1116ZM101.004 36.9311C100.297 36.858 99.6412 36.8203 99.038 36.8203V38.8203C99.5597 38.8203 100.146 38.853 100.798 38.9205L101.004 36.9311ZM99.038 36.8203C97.5243 36.8203 96.1638 37.0184 94.9764 37.4406L95.6464 39.325C96.5684 38.9972 97.6923 38.8203 99.038 38.8203V36.8203ZM94.9887 37.4363C93.8268 37.8324 92.8241 38.4364 92.0027 39.2577L93.417 40.672C94.0019 40.087 94.7335 39.6363 95.6341 39.3293L94.9887 37.4363ZM91.9909 39.2698C91.2016 40.0863 90.6136 41.07 90.2188 42.2019L92.1072 42.8606C92.4154 41.9769 92.8587 41.2496 93.4288 40.6599L91.9909 39.2698ZM90.2121 42.2217C89.8498 43.3346 89.6507 44.5776 89.6011 45.9402L91.5998 46.0129C91.644 44.7974 91.8199 43.7436 92.1138 42.8408L90.2121 42.2217ZM90.8969 45.0215L88.8578 44.3887L88.265 46.2988L90.3041 46.9316L90.8969 45.0215ZM89.5614 45.3438C89.5614 42.9488 89.801 40.7662 90.2724 38.7907L88.327 38.3265C87.814 40.476 87.5614 42.8168 87.5614 45.3438H89.5614ZM90.273 38.7882C90.7454 36.7858 91.4251 35.0703 92.2994 33.6277L90.589 32.5911C89.5884 34.2422 88.8383 36.1595 88.3264 38.3289L90.273 38.7882ZM92.2937 33.6371C93.1824 32.2064 94.2472 31.1297 95.4807 30.3771L94.439 28.6698C92.9069 29.6046 91.6279 30.9186 90.5948 32.5817L92.2937 33.6371ZM95.4807 30.3771C96.6913 29.6384 98.0896 29.2578 99.7059 29.2578V27.2578C97.7598 27.2578 95.9941 27.7209 94.439 28.6698L95.4807 30.3771ZM99.7059 29.2578C100.213 29.2578 100.734 29.3 101.271 29.3859L101.587 27.411C100.951 27.3093 100.324 27.2578 99.7059 27.2578V29.2578ZM101.309 29.3913C101.85 29.4561 102.245 29.5484 102.519 29.6512L103.221 27.7785C102.745 27.6 102.179 27.4814 101.548 27.4056L101.309 29.3913ZM115.071 66.2969L114.691 67.2222L114.699 67.2254L115.071 66.2969ZM109.094 62.3242L108.372 63.0161L108.377 63.0213L109.094 62.3242ZM105.368 56.4531L104.434 56.8128L104.436 56.816L105.368 56.4531ZM108.813 33.7422L108.062 33.0815L108.057 33.0873L108.813 33.7422ZM114.438 29.6992L114.829 30.6194L114.838 30.6158L114.438 29.6992ZM134.301 33.3906L133.542 34.0414L133.547 34.0476L134.301 33.3906ZM137.535 39.2969L136.582 39.5985L136.583 39.6013L137.535 39.2969ZM138.625 51.1094V52.1094H139.625V51.1094H138.625ZM108.391 51.1094H107.391V52.1094H108.391V51.1094ZM108.391 44.3594V43.3594H107.391V44.3594H108.391ZM128.676 44.3594V45.3594H129.676V44.3594H128.676ZM127.903 39.8242L126.986 40.225L126.992 40.2367L126.997 40.2482L127.903 39.8242ZM115.985 39.5078L115.119 39.0075L115.115 39.0148L115.111 39.0222L115.985 39.5078ZM114.649 43.2344L113.671 43.0259L113.668 43.0383L114.649 43.2344ZM114.86 53.5L113.909 53.811L113.912 53.8188L113.914 53.8265L114.86 53.5ZM116.723 56.8398L115.961 57.4875L115.966 57.493L115.97 57.4983L116.723 56.8398ZM119.676 59.0195L119.266 59.9318L119.273 59.9348L119.676 59.0195ZM128.746 58.7383L129.155 59.651L129.161 59.6482L128.746 58.7383ZM132.86 55.4688L133.595 54.7913L132.802 53.9296L132.075 54.8487L132.86 55.4688ZM137.782 60.8125L138.603 61.3826L139.06 60.7243L138.517 60.135L137.782 60.8125ZM134.512 64.1172L133.906 63.322L133.899 63.3271L134.512 64.1172ZM129.59 66.7188L129.913 67.6652L129.924 67.6615L129.59 66.7188ZM123.016 66.7031C120.169 66.7031 117.649 66.2513 115.442 65.3684L114.699 67.2254C117.179 68.2174 119.957 68.7031 123.016 68.7031V66.7031ZM115.45 65.3716C113.223 64.4587 111.349 63.2089 109.811 61.6271L108.377 63.0213C110.121 64.8146 112.23 66.2131 114.691 67.2221L115.45 65.3716ZM109.816 61.6323C108.292 60.0418 107.12 58.1972 106.299 56.0902L104.436 56.816C105.349 59.1622 106.662 61.2317 108.372 63.0161L109.816 61.6323ZM106.301 56.0935C105.48 53.9639 105.067 51.6957 105.067 49.2812H103.067C103.067 51.9293 103.521 54.4424 104.434 56.8128L106.301 56.0935ZM105.067 49.2812V47.875H103.067V49.2812H105.067ZM105.067 47.875C105.067 45.0873 105.463 42.562 106.243 40.2894L104.351 39.6403C103.491 42.1489 103.067 44.897 103.067 47.875H105.067ZM106.243 40.2894C107.025 38.0095 108.136 36.0499 109.569 34.3971L108.057 33.0873C106.443 34.9501 105.21 37.1389 104.351 39.6403L106.243 40.2894ZM109.564 34.4028C111.009 32.7599 112.761 31.4997 114.829 30.6194L114.046 28.7791C111.709 29.7738 109.71 31.2089 108.062 33.0816L109.564 34.4028ZM114.838 30.6158C116.897 29.7176 119.242 29.2578 121.891 29.2578V27.2578C119.008 27.2578 116.385 27.759 114.038 28.7826L114.838 30.6158ZM121.891 29.2578C124.476 29.2578 126.729 29.6848 128.67 30.5134L129.455 28.6741C127.224 27.7214 124.696 27.2578 121.891 27.2578V29.2578ZM128.67 30.5134C130.622 31.3468 132.24 32.5232 133.542 34.0414L135.06 32.7398C133.549 30.9768 131.675 29.6219 129.455 28.6741L128.67 30.5134ZM133.547 34.0476C134.877 35.5741 135.892 37.4184 136.582 39.5985L138.489 38.9953C137.725 36.5816 136.584 34.4884 135.055 32.7336L133.547 34.0476ZM136.583 39.6013C137.273 41.7613 137.625 44.1879 137.625 46.8906H139.625C139.625 44.0152 139.251 41.3793 138.488 38.9925L136.583 39.6013ZM137.625 46.8906V51.1094H139.625V46.8906H137.625ZM138.625 50.1094H108.391V52.1094H138.625V50.1094ZM109.391 51.1094V44.3594H107.391V51.1094H109.391ZM108.391 45.3594H128.676V43.3594H108.391V45.3594ZM129.676 44.3594V43.5859H127.676V44.3594H129.676ZM129.676 43.5859C129.676 42.056 129.395 40.6538 128.808 39.4003L126.997 40.2482C127.441 41.1978 127.676 42.3034 127.676 43.5859H129.676ZM128.819 39.4234C128.25 38.1236 127.373 37.0794 126.198 36.3143L125.107 37.9903C125.948 38.5378 126.571 39.2748 126.986 40.225L128.819 39.4234ZM126.198 36.3143C124.985 35.5245 123.491 35.168 121.785 35.168V37.168C123.22 37.168 124.304 37.4677 125.107 37.9903L126.198 36.3143ZM121.785 35.168C120.301 35.168 118.964 35.495 117.82 36.1931L118.861 37.9007C119.638 37.4269 120.599 37.168 121.785 37.168V35.168ZM117.82 36.1931C116.704 36.8732 115.805 37.8202 115.119 39.0075L116.851 40.0081C117.383 39.086 118.054 38.3924 118.861 37.9007L117.82 36.1931ZM115.111 39.0222C114.467 40.1797 113.992 41.519 113.671 43.0259L115.627 43.4428C115.915 42.0904 116.33 40.9453 116.859 39.9935L115.111 39.0222ZM113.668 43.0383C113.372 44.5192 113.227 46.1329 113.227 47.875H115.227C115.227 46.2421 115.363 44.762 115.629 43.4305L113.668 43.0383ZM113.227 47.875V49.2812H115.227V47.875H113.227ZM113.227 49.2812C113.227 50.8975 113.451 52.41 113.909 53.811L115.81 53.189C115.425 52.0118 115.227 50.7119 115.227 49.2812H113.227ZM113.914 53.8265C114.396 55.2204 115.075 56.4455 115.961 57.4875L117.485 56.1922C116.777 55.3592 116.214 54.3578 115.805 53.1735L113.914 53.8265ZM115.97 57.4983C116.886 58.5453 117.988 59.3579 119.267 59.9318L120.086 58.1073C119.067 57.6499 118.2 57.0094 117.476 56.1813L115.97 57.4983ZM119.273 59.9348C120.59 60.5142 122.055 60.793 123.649 60.793V58.793C122.29 58.793 121.106 58.5561 120.079 58.1042L119.273 59.9348ZM123.649 60.793C125.609 60.793 127.448 60.4152 129.155 59.651L128.338 57.8256C126.904 58.4676 125.345 58.793 123.649 58.793V60.793ZM129.161 59.6482C130.908 58.852 132.403 57.6592 133.644 56.0888L132.075 54.8487C131.019 56.1846 129.773 57.1715 128.332 57.8284L129.161 59.6482ZM132.124 56.1462L137.046 61.49L138.517 60.135L133.595 54.7913L132.124 56.1462ZM136.96 60.2424C136.235 61.2871 135.225 62.3159 133.906 63.3221L135.118 64.9123C136.565 63.8091 137.734 62.6348 138.603 61.3826L136.96 60.2424ZM133.899 63.3271C132.638 64.3055 131.096 65.1255 129.257 65.776L129.924 67.6615C131.928 66.9526 133.667 66.0383 135.125 64.9073L133.899 63.3271ZM129.267 65.7724C127.469 66.3865 125.389 66.7031 123.016 66.7031V68.7031C125.564 68.7031 127.868 68.3635 129.913 67.6651L129.267 65.7724ZM154.377 15.8125L155.376 15.8451L155.41 14.8125H154.377V15.8125ZM153.217 51.3555V52.3555H154.184L154.216 51.3881L153.217 51.3555ZM144.779 51.3555L143.78 51.3891L143.812 52.3555H144.779V51.3555ZM143.584 15.8125V14.8125H142.55L142.584 15.8461L143.584 15.8125ZM144.849 58.6328L145.54 59.3562L145.54 59.3558L144.849 58.6328ZM153.146 58.6328L152.447 59.348L152.456 59.3562L153.146 58.6328ZM144.849 66.0508L144.15 66.766L144.159 66.7738L144.849 66.0508ZM153.377 15.7799L152.217 51.3228L154.216 51.3881L155.376 15.8451L153.377 15.7799ZM153.217 50.3555H144.779V52.3555H153.217V50.3555ZM145.779 51.3219L144.583 15.7789L142.584 15.8461L143.78 51.3891L145.779 51.3219ZM143.584 16.8125H154.377V14.8125H143.584V16.8125ZM144.303 62.3594C144.303 61.1167 144.718 60.1411 145.54 59.3562L144.159 57.9095C142.919 59.0933 142.303 60.6021 142.303 62.3594H144.303ZM145.54 59.3558C146.377 58.5562 147.497 58.1211 148.998 58.1211V56.1211C147.077 56.1211 145.431 56.6938 144.159 57.9098L145.54 59.3558ZM148.998 58.1211C150.527 58.1211 151.64 58.5588 152.447 59.348L153.845 57.9176C152.59 56.6912 150.937 56.1211 148.998 56.1211V58.1211ZM152.456 59.3562C153.278 60.1411 153.693 61.1167 153.693 62.3594H155.693C155.693 60.6021 155.077 59.0933 153.837 57.9095L152.456 59.3562ZM153.693 62.3594C153.693 63.5457 153.284 64.5176 152.447 65.3356L153.845 66.766C155.071 65.5684 155.693 64.0793 155.693 62.3594H153.693ZM152.447 65.3356C151.64 66.1248 150.527 66.5625 148.998 66.5625V68.5625C150.937 68.5625 152.59 67.9924 153.845 66.766L152.447 65.3356ZM148.998 66.5625C147.497 66.5625 146.377 66.1274 145.54 65.3278L144.159 66.7738C145.431 67.9898 147.077 68.5625 148.998 68.5625V66.5625ZM145.548 65.3356C144.711 64.5176 144.303 63.5457 144.303 62.3594H142.303C142.303 64.0793 142.925 65.5684 144.15 66.766L145.548 65.3356Z" fill="#E07A5F"/>
<path d="M273.457 15.8125V67H262.945V15.8125H273.457ZM289.207 15.8125V24.0742H247.441V15.8125H289.207ZM307.349 67.7031C304.396 67.7031 301.748 67.2344 299.404 66.2969C297.06 65.3359 295.068 64.0117 293.427 62.3242C291.81 60.6367 290.568 58.6797 289.701 56.4531C288.833 54.2031 288.4 51.8125 288.4 49.2812V47.875C288.4 44.9922 288.81 42.3555 289.63 39.9648C290.451 37.5742 291.623 35.5 293.146 33.7422C294.693 31.9844 296.568 30.6367 298.771 29.6992C300.974 28.7383 303.458 28.2578 306.224 28.2578C308.919 28.2578 311.31 28.7031 313.396 29.5938C315.482 30.4844 317.228 31.75 318.634 33.3906C320.064 35.0312 321.142 37 321.869 39.2969C322.595 41.5703 322.958 44.1016 322.958 46.8906V51.1094H292.724V44.3594H313.009V43.5859C313.009 42.1797 312.751 40.9258 312.236 39.8242C311.744 38.6992 310.994 37.8086 309.986 37.1523C308.978 36.4961 307.689 36.168 306.119 36.168C304.783 36.168 303.634 36.4609 302.673 37.0469C301.712 37.6328 300.927 38.4531 300.318 39.5078C299.732 40.5625 299.287 41.8047 298.982 43.2344C298.701 44.6406 298.56 46.1875 298.56 47.875V49.2812C298.56 50.8047 298.771 52.2109 299.193 53.5C299.638 54.7891 300.259 55.9023 301.056 56.8398C301.876 57.7773 302.861 58.5039 304.009 59.0195C305.181 59.5352 306.505 59.793 307.982 59.793C309.81 59.793 311.509 59.4414 313.08 58.7383C314.673 58.0117 316.044 56.9219 317.193 55.4688L322.115 60.8125C321.318 61.9609 320.228 63.0625 318.845 64.1172C317.486 65.1719 315.845 66.0391 313.923 66.7188C312.001 67.375 309.81 67.7031 307.349 67.7031ZM337.409 37.2578V67H327.284V28.9609H336.811L337.409 37.2578ZM348.87 28.7148L348.694 38.1016C348.202 38.0312 347.604 37.9727 346.901 37.9258C346.222 37.8555 345.6 37.8203 345.038 37.8203C343.608 37.8203 342.366 38.0078 341.311 38.3828C340.28 38.7344 339.413 39.2617 338.71 39.9648C338.03 40.668 337.515 41.5234 337.163 42.5312C336.835 43.5391 336.647 44.6875 336.6 45.9766L334.561 45.3438C334.561 42.8828 334.808 40.6211 335.3 38.5586C335.792 36.4727 336.507 34.6562 337.444 33.1094C338.405 31.5625 339.577 30.3672 340.96 29.5234C342.343 28.6797 343.925 28.2578 345.706 28.2578C346.268 28.2578 346.843 28.3047 347.429 28.3984C348.015 28.4688 348.495 28.5742 348.87 28.7148ZM369.016 67.7031C366.063 67.7031 363.414 67.2344 361.071 66.2969C358.727 65.3359 356.735 64.0117 355.094 62.3242C353.477 60.6367 352.235 58.6797 351.368 56.4531C350.5 54.2031 350.067 51.8125 350.067 49.2812V47.875C350.067 44.9922 350.477 42.3555 351.297 39.9648C352.118 37.5742 353.289 35.5 354.813 33.7422C356.36 31.9844 358.235 30.6367 360.438 29.6992C362.641 28.7383 365.125 28.2578 367.891 28.2578C370.586 28.2578 372.977 28.7031 375.063 29.5938C377.149 30.4844 378.895 31.75 380.301 33.3906C381.731 35.0312 382.809 37 383.535 39.2969C384.262 41.5703 384.625 44.1016 384.625 46.8906V51.1094H354.391V44.3594H374.676V43.5859C374.676 42.1797 374.418 40.9258 373.903 39.8242C373.41 38.6992 372.66 37.8086 371.653 37.1523C370.645 36.4961 369.356 36.168 367.785 36.168C366.45 36.168 365.301 36.4609 364.34 37.0469C363.379 37.6328 362.594 38.4531 361.985 39.5078C361.399 40.5625 360.953 41.8047 360.649 43.2344C360.368 44.6406 360.227 46.1875 360.227 47.875V49.2812C360.227 50.8047 360.438 52.2109 360.86 53.5C361.305 54.7891 361.926 55.9023 362.723 56.8398C363.543 57.7773 364.528 58.5039 365.676 59.0195C366.848 59.5352 368.172 59.793 369.649 59.793C371.477 59.793 373.176 59.4414 374.746 58.7383C376.34 58.0117 377.711 56.9219 378.86 55.4688L383.782 60.8125C382.985 61.9609 381.895 63.0625 380.512 64.1172C379.153 65.1719 377.512 66.0391 375.59 66.7188C373.668 67.375 371.477 67.7031 369.016 67.7031ZM400.377 15.8125L399.217 51.3555H390.779L389.584 15.8125H400.377ZM389.303 62.3594C389.303 60.8594 389.818 59.6172 390.849 58.6328C391.904 57.625 393.287 57.1211 394.998 57.1211C396.732 57.1211 398.115 57.625 399.146 58.6328C400.178 59.6172 400.693 60.8594 400.693 62.3594C400.693 63.8125 400.178 65.043 399.146 66.0508C398.115 67.0586 396.732 67.5625 394.998 67.5625C393.287 67.5625 391.904 67.0586 390.849 66.0508C389.818 65.043 389.303 63.8125 389.303 62.3594Z" fill="#F4F1DE"/>
<path d="M273.457 15.8125H274.457V14.8125H273.457V15.8125ZM273.457 67V68H274.457V67H273.457ZM262.945 67H261.945V68H262.945V67ZM262.945 15.8125V14.8125H261.945V15.8125H262.945ZM289.207 15.8125H290.207V14.8125H289.207V15.8125ZM289.207 24.0742V25.0742H290.207V24.0742H289.207ZM247.441 24.0742H246.441V25.0742H247.441V24.0742ZM247.441 15.8125V14.8125H246.441V15.8125H247.441ZM272.457 15.8125V67H274.457V15.8125H272.457ZM273.457 66H262.945V68H273.457V66ZM263.945 67V15.8125H261.945V67H263.945ZM262.945 16.8125H273.457V14.8125H262.945V16.8125ZM288.207 15.8125V24.0742H290.207V15.8125H288.207ZM289.207 23.0742H247.441V25.0742H289.207V23.0742ZM248.441 24.0742V15.8125H246.441V24.0742H248.441ZM247.441 16.8125H289.207V14.8125H247.441V16.8125ZM299.404 66.2969L299.024 67.2222L299.032 67.2254L299.404 66.2969ZM293.427 62.3242L292.705 63.0161L292.71 63.0213L293.427 62.3242ZM289.701 56.4531L288.768 56.8128L288.769 56.816L289.701 56.4531ZM293.146 33.7422L292.395 33.0815L292.39 33.0873L293.146 33.7422ZM298.771 29.6992L299.163 30.6194L299.171 30.6158L298.771 29.6992ZM318.634 33.3906L317.875 34.0414L317.88 34.0476L318.634 33.3906ZM321.869 39.2969L320.915 39.5985L320.916 39.6013L321.869 39.2969ZM322.958 51.1094V52.1094H323.958V51.1094H322.958ZM292.724 51.1094H291.724V52.1094H292.724V51.1094ZM292.724 44.3594V43.3594H291.724V44.3594H292.724ZM313.009 44.3594V45.3594H314.009V44.3594H313.009ZM312.236 39.8242L311.32 40.225L311.325 40.2367L311.33 40.2482L312.236 39.8242ZM300.318 39.5078L299.452 39.0075L299.448 39.0148L299.444 39.0222L300.318 39.5078ZM298.982 43.2344L298.004 43.0259L298.001 43.0383L298.982 43.2344ZM299.193 53.5L298.242 53.811L298.245 53.8188L298.248 53.8265L299.193 53.5ZM301.056 56.8398L300.294 57.4875L300.299 57.493L300.304 57.4983L301.056 56.8398ZM304.009 59.0195L303.6 59.9318L303.606 59.9348L304.009 59.0195ZM313.08 58.7383L313.488 59.651L313.494 59.6482L313.08 58.7383ZM317.193 55.4688L317.928 54.7913L317.135 53.9296L316.408 54.8487L317.193 55.4688ZM322.115 60.8125L322.936 61.3826L323.393 60.7243L322.85 60.135L322.115 60.8125ZM318.845 64.1172L318.239 63.322L318.232 63.3271L318.845 64.1172ZM313.923 66.7188L314.246 67.6652L314.257 67.6615L313.923 66.7188ZM307.349 66.7031C304.502 66.7031 301.983 66.2513 299.775 65.3684L299.032 67.2254C301.512 68.2174 304.29 68.7031 307.349 68.7031V66.7031ZM299.783 65.3716C297.557 64.4587 295.682 63.2089 294.144 61.6271L292.71 63.0213C294.454 64.8146 296.563 66.2131 299.024 67.2221L299.783 65.3716ZM294.149 61.6323C292.625 60.0418 291.453 58.1972 290.632 56.0902L288.769 56.816C289.683 59.1622 290.995 61.2317 292.705 63.0161L294.149 61.6323ZM290.634 56.0935C289.813 53.9639 289.4 51.6957 289.4 49.2812H287.4C287.4 51.9293 287.854 54.4424 288.768 56.8128L290.634 56.0935ZM289.4 49.2812V47.875H287.4V49.2812H289.4ZM289.4 47.875C289.4 45.0873 289.796 42.562 290.576 40.2894L288.684 39.6403C287.824 42.1489 287.4 44.897 287.4 47.875H289.4ZM290.576 40.2894C291.358 38.0095 292.469 36.0499 293.902 34.3971L292.39 33.0873C290.776 34.9501 289.543 37.1389 288.684 39.6403L290.576 40.2894ZM293.897 34.4028C295.342 32.7599 297.094 31.4997 299.162 30.6194L298.379 28.7791C296.042 29.7738 294.043 31.2089 292.395 33.0816L293.897 34.4028ZM299.171 30.6158C301.23 29.7176 303.575 29.2578 306.224 29.2578V27.2578C303.341 27.2578 300.718 27.759 298.371 28.7826L299.171 30.6158ZM306.224 29.2578C308.809 29.2578 311.063 29.6848 313.003 30.5134L313.789 28.6741C311.557 27.7214 309.029 27.2578 306.224 27.2578V29.2578ZM313.003 30.5134C314.955 31.3468 316.574 32.5232 317.875 34.0414L319.393 32.7398C317.882 30.9768 316.009 29.6219 313.789 28.6741L313.003 30.5134ZM317.88 34.0476C319.211 35.5741 320.226 37.4184 320.915 39.5985L322.822 38.9953C322.059 36.5816 320.917 34.4884 319.388 32.7336L317.88 34.0476ZM320.916 39.6013C321.606 41.7613 321.958 44.1879 321.958 46.8906H323.958C323.958 44.0152 323.584 41.3793 322.821 38.9925L320.916 39.6013ZM321.958 46.8906V51.1094H323.958V46.8906H321.958ZM322.958 50.1094H292.724V52.1094H322.958V50.1094ZM293.724 51.1094V44.3594H291.724V51.1094H293.724ZM292.724 45.3594H313.009V43.3594H292.724V45.3594ZM314.009 44.3594V43.5859H312.009V44.3594H314.009ZM314.009 43.5859C314.009 42.056 313.728 40.6538 313.141 39.4003L311.33 40.2482C311.775 41.1978 312.009 42.3034 312.009 43.5859H314.009ZM313.152 39.4234C312.583 38.1236 311.706 37.0794 310.531 36.3143L309.44 37.9903C310.281 38.5378 310.904 39.2748 311.32 40.225L313.152 39.4234ZM310.531 36.3143C309.318 35.5245 307.824 35.168 306.119 35.168V37.168C307.553 37.168 308.637 37.4677 309.44 37.9903L310.531 36.3143ZM306.119 35.168C304.634 35.168 303.298 35.495 302.153 36.1931L303.194 37.9007C303.971 37.4269 304.932 37.168 306.119 37.168V35.168ZM302.153 36.1931C301.037 36.8732 300.138 37.8202 299.452 39.0075L301.184 40.0081C301.716 39.086 302.387 38.3924 303.194 37.9007L302.153 36.1931ZM299.444 39.0222C298.801 40.1797 298.325 41.519 298.004 43.0259L299.96 43.4428C300.248 42.0904 300.663 40.9453 301.192 39.9935L299.444 39.0222ZM298.001 43.0383C297.705 44.5192 297.56 46.1329 297.56 47.875H299.56C299.56 46.2421 299.696 44.762 299.962 43.4305L298.001 43.0383ZM297.56 47.875V49.2812H299.56V47.875H297.56ZM297.56 49.2812C297.56 50.8975 297.784 52.41 298.242 53.811L300.143 53.189C299.758 52.0118 299.56 50.7119 299.56 49.2812H297.56ZM298.248 53.8265C298.729 55.2204 299.408 56.4455 300.294 57.4875L301.818 56.1922C301.11 55.3592 300.547 54.3578 300.138 53.1735L298.248 53.8265ZM300.304 57.4983C301.22 58.5453 302.321 59.3579 303.6 59.9318L304.419 58.1073C303.4 57.6499 302.533 57.0094 301.809 56.1813L300.304 57.4983ZM303.606 59.9348C304.923 60.5142 306.388 60.793 307.982 60.793V58.793C306.623 58.793 305.439 58.5561 304.412 58.1042L303.606 59.9348ZM307.982 60.793C309.942 60.793 311.781 60.4152 313.488 59.651L312.671 57.8256C311.237 58.4676 309.678 58.793 307.982 58.793V60.793ZM313.494 59.6482C315.241 58.852 316.736 57.6592 317.977 56.0888L316.408 54.8487C315.352 56.1846 314.106 57.1715 312.665 57.8284L313.494 59.6482ZM316.457 56.1462L321.379 61.49L322.85 60.135L317.928 54.7913L316.457 56.1462ZM321.293 60.2424C320.568 61.2871 319.558 62.3159 318.239 63.3221L319.452 64.9123C320.898 63.8091 322.067 62.6348 322.936 61.3826L321.293 60.2424ZM318.232 63.3271C316.971 64.3055 315.429 65.1255 313.59 65.776L314.257 67.6615C316.261 66.9526 318 66.0383 319.458 64.9073L318.232 63.3271ZM313.6 65.7724C311.802 66.3865 309.723 66.7031 307.349 66.7031V68.7031C309.897 68.7031 312.201 68.3635 314.246 67.6651L313.6 65.7724ZM337.409 37.2578H338.409V37.2218L338.406 37.186L337.409 37.2578ZM337.409 67V68H338.409V67H337.409ZM327.284 67H326.284V68H327.284V67ZM327.284 28.9609V27.9609H326.284V28.9609H327.284ZM336.811 28.9609L337.809 28.8891L337.742 27.9609H336.811V28.9609ZM348.87 28.7148L349.87 28.7336L349.883 28.0267L349.221 27.7785L348.87 28.7148ZM348.694 38.1016L348.553 39.0915L349.673 39.2515L349.694 38.1203L348.694 38.1016ZM346.901 37.9258L346.798 38.9205L346.817 38.9224L346.835 38.9236L346.901 37.9258ZM341.311 38.3828L341.634 39.3294L341.646 39.325L341.311 38.3828ZM338.71 39.9648L338.003 39.2577L337.997 39.2637L337.991 39.2698L338.71 39.9648ZM337.163 42.5312L336.219 42.2019L336.215 42.2117L336.212 42.2217L337.163 42.5312ZM336.6 45.9766L336.304 46.9316L337.552 47.319L337.6 46.0129L336.6 45.9766ZM334.561 45.3438H333.561V46.0805L334.265 46.2988L334.561 45.3438ZM335.3 38.5586L336.272 38.7907L336.273 38.7882L335.3 38.5586ZM337.444 33.1094L336.595 32.5817L336.589 32.5911L337.444 33.1094ZM347.429 28.3984L347.271 29.3859L347.29 29.389L347.309 29.3913L347.429 28.3984ZM336.409 37.2578V67H338.409V37.2578H336.409ZM337.409 66H327.284V68H337.409V66ZM328.284 67V28.9609H326.284V67H328.284ZM327.284 29.9609H336.811V27.9609H327.284V29.9609ZM335.814 29.0328L336.412 37.3297L338.406 37.186L337.809 28.8891L335.814 29.0328ZM347.87 28.6961L347.694 38.0828L349.694 38.1203L349.87 28.7336L347.87 28.6961ZM348.836 37.1116C348.311 37.0366 347.687 36.9759 346.968 36.928L346.835 38.9236C347.522 38.9694 348.093 39.0259 348.553 39.0915L348.836 37.1116ZM347.004 36.9311C346.297 36.858 345.641 36.8203 345.038 36.8203V38.8203C345.56 38.8203 346.146 38.853 346.798 38.9205L347.004 36.9311ZM345.038 36.8203C343.524 36.8203 342.164 37.0184 340.976 37.4406L341.646 39.325C342.568 38.9972 343.692 38.8203 345.038 38.8203V36.8203ZM340.989 37.4363C339.827 37.8324 338.824 38.4364 338.003 39.2577L339.417 40.672C340.002 40.087 340.734 39.6363 341.634 39.3293L340.989 37.4363ZM337.991 39.2698C337.202 40.0863 336.614 41.07 336.219 42.2019L338.107 42.8606C338.415 41.9769 338.859 41.2496 339.429 40.6599L337.991 39.2698ZM336.212 42.2217C335.85 43.3346 335.651 44.5776 335.601 45.9402L337.6 46.0129C337.644 44.7974 337.82 43.7436 338.114 42.8408L336.212 42.2217ZM336.897 45.0215L334.858 44.3887L334.265 46.2988L336.304 46.9316L336.897 45.0215ZM335.561 45.3438C335.561 42.9488 335.801 40.7662 336.272 38.7907L334.327 38.3265C333.814 40.476 333.561 42.8168 333.561 45.3438H335.561ZM336.273 38.7882C336.745 36.7858 337.425 35.0703 338.299 33.6277L336.589 32.5911C335.588 34.2422 334.838 36.1595 334.326 38.3289L336.273 38.7882ZM338.294 33.6371C339.182 32.2064 340.247 31.1297 341.481 30.3771L340.439 28.6698C338.907 29.6046 337.628 30.9186 336.595 32.5817L338.294 33.6371ZM341.481 30.3771C342.691 29.6384 344.09 29.2578 345.706 29.2578V27.2578C343.76 27.2578 341.994 27.7209 340.439 28.6698L341.481 30.3771ZM345.706 29.2578C346.213 29.2578 346.734 29.3 347.271 29.3859L347.587 27.411C346.951 27.3093 346.324 27.2578 345.706 27.2578V29.2578ZM347.309 29.3913C347.85 29.4561 348.245 29.5484 348.519 29.6512L349.221 27.7785C348.745 27.6 348.179 27.4814 347.548 27.4056L347.309 29.3913ZM361.071 66.2969L360.691 67.2222L360.699 67.2254L361.071 66.2969ZM355.094 62.3242L354.372 63.0161L354.377 63.0213L355.094 62.3242ZM351.368 56.4531L350.434 56.8128L350.436 56.816L351.368 56.4531ZM354.813 33.7422L354.062 33.0815L354.057 33.0873L354.813 33.7422ZM360.438 29.6992L360.829 30.6194L360.838 30.6158L360.438 29.6992ZM380.301 33.3906L379.542 34.0414L379.547 34.0476L380.301 33.3906ZM383.535 39.2969L382.582 39.5985L382.583 39.6013L383.535 39.2969ZM384.625 51.1094V52.1094H385.625V51.1094H384.625ZM354.391 51.1094H353.391V52.1094H354.391V51.1094ZM354.391 44.3594V43.3594H353.391V44.3594H354.391ZM374.676 44.3594V45.3594H375.676V44.3594H374.676ZM373.903 39.8242L372.986 40.225L372.992 40.2367L372.997 40.2482L373.903 39.8242ZM361.985 39.5078L361.119 39.0075L361.115 39.0148L361.111 39.0222L361.985 39.5078ZM360.649 43.2344L359.671 43.0259L359.668 43.0383L360.649 43.2344ZM360.86 53.5L359.909 53.811L359.912 53.8188L359.914 53.8265L360.86 53.5ZM362.723 56.8398L361.961 57.4875L361.966 57.493L361.97 57.4983L362.723 56.8398ZM365.676 59.0195L365.266 59.9318L365.273 59.9348L365.676 59.0195ZM374.746 58.7383L375.155 59.651L375.161 59.6482L374.746 58.7383ZM378.86 55.4688L379.595 54.7913L378.802 53.9296L378.075 54.8487L378.86 55.4688ZM383.782 60.8125L384.603 61.3826L385.06 60.7243L384.517 60.135L383.782 60.8125ZM380.512 64.1172L379.906 63.322L379.899 63.3271L380.512 64.1172ZM375.59 66.7188L375.913 67.6652L375.924 67.6615L375.59 66.7188ZM369.016 66.7031C366.169 66.7031 363.649 66.2513 361.442 65.3684L360.699 67.2254C363.179 68.2174 365.957 68.7031 369.016 68.7031V66.7031ZM361.45 65.3716C359.223 64.4587 357.349 63.2089 355.811 61.6271L354.377 63.0213C356.121 64.8146 358.23 66.2131 360.691 67.2221L361.45 65.3716ZM355.816 61.6323C354.292 60.0418 353.12 58.1972 352.299 56.0902L350.436 56.816C351.349 59.1622 352.662 61.2317 354.372 63.0161L355.816 61.6323ZM352.301 56.0935C351.48 53.9639 351.067 51.6957 351.067 49.2812H349.067C349.067 51.9293 349.521 54.4424 350.434 56.8128L352.301 56.0935ZM351.067 49.2812V47.875H349.067V49.2812H351.067ZM351.067 47.875C351.067 45.0873 351.463 42.562 352.243 40.2894L350.351 39.6403C349.491 42.1489 349.067 44.897 349.067 47.875H351.067ZM352.243 40.2894C353.025 38.0095 354.136 36.0499 355.569 34.3971L354.057 33.0873C352.443 34.9501 351.21 37.1389 350.351 39.6403L352.243 40.2894ZM355.564 34.4028C357.009 32.7599 358.761 31.4997 360.829 30.6194L360.046 28.7791C357.709 29.7738 355.71 31.2089 354.062 33.0816L355.564 34.4028ZM360.838 30.6158C362.897 29.7176 365.242 29.2578 367.891 29.2578V27.2578C365.008 27.2578 362.385 27.759 360.038 28.7826L360.838 30.6158ZM367.891 29.2578C370.476 29.2578 372.729 29.6848 374.67 30.5134L375.455 28.6741C373.224 27.7214 370.696 27.2578 367.891 27.2578V29.2578ZM374.67 30.5134C376.622 31.3468 378.24 32.5232 379.542 34.0414L381.06 32.7398C379.549 30.9768 377.675 29.6219 375.455 28.6741L374.67 30.5134ZM379.547 34.0476C380.877 35.5741 381.892 37.4184 382.582 39.5985L384.489 38.9953C383.725 36.5816 382.584 34.4884 381.055 32.7336L379.547 34.0476ZM382.583 39.6013C383.273 41.7613 383.625 44.1879 383.625 46.8906H385.625C385.625 44.0152 385.251 41.3793 384.488 38.9925L382.583 39.6013ZM383.625 46.8906V51.1094H385.625V46.8906H383.625ZM384.625 50.1094H354.391V52.1094H384.625V50.1094ZM355.391 51.1094V44.3594H353.391V51.1094H355.391ZM354.391 45.3594H374.676V43.3594H354.391V45.3594ZM375.676 44.3594V43.5859H373.676V44.3594H375.676ZM375.676 43.5859C375.676 42.056 375.395 40.6538 374.808 39.4003L372.997 40.2482C373.441 41.1978 373.676 42.3034 373.676 43.5859H375.676ZM374.819 39.4234C374.25 38.1236 373.373 37.0794 372.198 36.3143L371.107 37.9903C371.948 38.5378 372.571 39.2748 372.986 40.225L374.819 39.4234ZM372.198 36.3143C370.985 35.5245 369.491 35.168 367.785 35.168V37.168C369.22 37.168 370.304 37.4677 371.107 37.9903L372.198 36.3143ZM367.785 35.168C366.301 35.168 364.964 35.495 363.82 36.1931L364.861 37.9007C365.638 37.4269 366.599 37.168 367.785 37.168V35.168ZM363.82 36.1931C362.704 36.8732 361.805 37.8202 361.119 39.0075L362.851 40.0081C363.383 39.086 364.054 38.3924 364.861 37.9007L363.82 36.1931ZM361.111 39.0222C360.467 40.1797 359.992 41.519 359.671 43.0259L361.627 43.4428C361.915 42.0904 362.33 40.9453 362.859 39.9935L361.111 39.0222ZM359.668 43.0383C359.372 44.5192 359.227 46.1329 359.227 47.875H361.227C361.227 46.2421 361.363 44.762 361.629 43.4305L359.668 43.0383ZM359.227 47.875V49.2812H361.227V47.875H359.227ZM359.227 49.2812C359.227 50.8975 359.451 52.41 359.909 53.811L361.81 53.189C361.425 52.0118 361.227 50.7119 361.227 49.2812H359.227ZM359.914 53.8265C360.396 55.2204 361.075 56.4455 361.961 57.4875L363.485 56.1922C362.777 55.3592 362.214 54.3578 361.805 53.1735L359.914 53.8265ZM361.97 57.4983C362.886 58.5453 363.988 59.3579 365.267 59.9318L366.086 58.1073C365.067 57.6499 364.2 57.0094 363.476 56.1813L361.97 57.4983ZM365.273 59.9348C366.59 60.5142 368.055 60.793 369.649 60.793V58.793C368.29 58.793 367.106 58.5561 366.079 58.1042L365.273 59.9348ZM369.649 60.793C371.609 60.793 373.448 60.4152 375.155 59.651L374.338 57.8256C372.904 58.4676 371.345 58.793 369.649 58.793V60.793ZM375.161 59.6482C376.908 58.852 378.403 57.6592 379.644 56.0888L378.075 54.8487C377.019 56.1846 375.773 57.1715 374.332 57.8284L375.161 59.6482ZM378.124 56.1462L383.046 61.49L384.517 60.135L379.595 54.7913L378.124 56.1462ZM382.96 60.2424C382.235 61.2871 381.225 62.3159 379.906 63.3221L381.118 64.9123C382.565 63.8091 383.734 62.6348 384.603 61.3826L382.96 60.2424ZM379.899 63.3271C378.638 64.3055 377.096 65.1255 375.257 65.776L375.924 67.6615C377.928 66.9526 379.667 66.0383 381.125 64.9073L379.899 63.3271ZM375.267 65.7724C373.469 66.3865 371.389 66.7031 369.016 66.7031V68.7031C371.564 68.7031 373.868 68.3635 375.913 67.6651L375.267 65.7724ZM400.377 15.8125L401.376 15.8451L401.41 14.8125H400.377V15.8125ZM399.217 51.3555V52.3555H400.184L400.216 51.3881L399.217 51.3555ZM390.779 51.3555L389.78 51.3891L389.812 52.3555H390.779V51.3555ZM389.584 15.8125V14.8125H388.55L388.584 15.8461L389.584 15.8125ZM390.849 58.6328L391.54 59.3562L391.54 59.3558L390.849 58.6328ZM399.146 58.6328L398.447 59.348L398.456 59.3562L399.146 58.6328ZM390.849 66.0508L390.15 66.766L390.159 66.7738L390.849 66.0508ZM399.377 15.7799L398.217 51.3228L400.216 51.3881L401.376 15.8451L399.377 15.7799ZM399.217 50.3555H390.779V52.3555H399.217V50.3555ZM391.779 51.3219L390.583 15.7789L388.584 15.8461L389.78 51.3891L391.779 51.3219ZM389.584 16.8125H400.377V14.8125H389.584V16.8125ZM390.303 62.3594C390.303 61.1167 390.718 60.1411 391.54 59.3562L390.159 57.9095C388.919 59.0933 388.303 60.6021 388.303 62.3594H390.303ZM391.54 59.3558C392.377 58.5562 393.497 58.1211 394.998 58.1211V56.1211C393.077 56.1211 391.431 56.6938 390.159 57.9098L391.54 59.3558ZM394.998 58.1211C396.527 58.1211 397.64 58.5588 398.447 59.348L399.845 57.9176C398.59 56.6912 396.937 56.1211 394.998 56.1211V58.1211ZM398.456 59.3562C399.278 60.1411 399.693 61.1167 399.693 62.3594H401.693C401.693 60.6021 401.077 59.0933 399.837 57.9095L398.456 59.3562ZM399.693 62.3594C399.693 63.5457 399.284 64.5176 398.447 65.3356L399.845 66.766C401.071 65.5684 401.693 64.0793 401.693 62.3594H399.693ZM398.447 65.3356C397.64 66.1248 396.527 66.5625 394.998 66.5625V68.5625C396.937 68.5625 398.59 67.9924 399.845 66.766L398.447 65.3356ZM394.998 66.5625C393.497 66.5625 392.377 66.1274 391.54 65.3278L390.159 66.7738C391.431 67.9898 393.077 68.5625 394.998 68.5625V66.5625ZM391.548 65.3356C390.711 64.5176 390.303 63.5457 390.303 62.3594H388.303C388.303 64.0793 388.925 65.5684 390.15 66.766L391.548 65.3356Z" fill="black"/>
<path d="M519.457 15.8125H520.457V14.8125H519.457V15.8125ZM519.457 67V68H520.457V67H519.457ZM508.945 67H507.945V68H508.945V67ZM508.945 15.8125V14.8125H507.945V15.8125H508.945ZM535.207 15.8125H536.207V14.8125H535.207V15.8125ZM535.207 24.0742V25.0742H536.207V24.0742H535.207ZM493.441 24.0742H492.441V25.0742H493.441V24.0742ZM493.441 15.8125V14.8125H492.441V15.8125H493.441ZM518.457 15.8125V67H520.457V15.8125H518.457ZM519.457 66H508.945V68H519.457V66ZM509.945 67V15.8125H507.945V67H509.945ZM508.945 16.8125H519.457V14.8125H508.945V16.8125ZM534.207 15.8125V24.0742H536.207V15.8125H534.207ZM535.207 23.0742H493.441V25.0742H535.207V23.0742ZM494.441 24.0742V15.8125H492.441V24.0742H494.441ZM493.441 16.8125H535.207V14.8125H493.441V16.8125ZM545.404 66.2969L545.024 67.2222L545.032 67.2254L545.404 66.2969ZM539.427 62.3242L538.705 63.0161L538.71 63.0213L539.427 62.3242ZM535.701 56.4531L534.768 56.8128L534.769 56.816L535.701 56.4531ZM539.146 33.7422L538.395 33.0815L538.39 33.0873L539.146 33.7422ZM544.771 29.6992L545.163 30.6194L545.171 30.6158L544.771 29.6992ZM564.634 33.3906L563.875 34.0414L563.88 34.0476L564.634 33.3906ZM567.869 39.2969L566.915 39.5985L566.916 39.6013L567.869 39.2969ZM568.958 51.1094V52.1094H569.958V51.1094H568.958ZM538.724 51.1094H537.724V52.1094H538.724V51.1094ZM538.724 44.3594V43.3594H537.724V44.3594H538.724ZM559.009 44.3594V45.3594H560.009V44.3594H559.009ZM558.236 39.8242L557.32 40.225L557.325 40.2367L557.33 40.2482L558.236 39.8242ZM546.318 39.5078L545.452 39.0075L545.448 39.0148L545.444 39.0222L546.318 39.5078ZM544.982 43.2344L544.004 43.0259L544.001 43.0383L544.982 43.2344ZM545.193 53.5L544.242 53.811L544.245 53.8188L544.248 53.8265L545.193 53.5ZM547.056 56.8398L546.294 57.4875L546.299 57.493L546.304 57.4983L547.056 56.8398ZM550.009 59.0195L549.6 59.9318L549.606 59.9348L550.009 59.0195ZM559.08 58.7383L559.488 59.651L559.494 59.6482L559.08 58.7383ZM563.193 55.4688L563.928 54.7913L563.135 53.9296L562.408 54.8487L563.193 55.4688ZM568.115 60.8125L568.936 61.3826L569.393 60.7243L568.85 60.135L568.115 60.8125ZM564.845 64.1172L564.239 63.322L564.232 63.3271L564.845 64.1172ZM559.923 66.7188L560.246 67.6652L560.257 67.6615L559.923 66.7188ZM553.349 66.7031C550.502 66.7031 547.983 66.2513 545.775 65.3684L545.032 67.2254C547.512 68.2174 550.29 68.7031 553.349 68.7031V66.7031ZM545.783 65.3716C543.557 64.4587 541.682 63.2089 540.144 61.6271L538.71 63.0213C540.454 64.8146 542.563 66.2131 545.024 67.2221L545.783 65.3716ZM540.149 61.6323C538.625 60.0418 537.453 58.1972 536.632 56.0902L534.769 56.816C535.683 59.1622 536.995 61.2317 538.705 63.0161L540.149 61.6323ZM536.634 56.0935C535.813 53.9639 535.4 51.6957 535.4 49.2812H533.4C533.4 51.9293 533.854 54.4424 534.768 56.8128L536.634 56.0935ZM535.4 49.2812V47.875H533.4V49.2812H535.4ZM535.4 47.875C535.4 45.0873 535.796 42.562 536.576 40.2894L534.684 39.6403C533.824 42.1489 533.4 44.897 533.4 47.875H535.4ZM536.576 40.2894C537.358 38.0095 538.469 36.0499 539.902 34.3971L538.39 33.0873C536.776 34.9501 535.543 37.1389 534.684 39.6403L536.576 40.2894ZM539.897 34.4028C541.342 32.7599 543.094 31.4997 545.162 30.6194L544.379 28.7791C542.042 29.7738 540.043 31.2089 538.395 33.0816L539.897 34.4028ZM545.171 30.6158C547.23 29.7176 549.575 29.2578 552.224 29.2578V27.2578C549.341 27.2578 546.718 27.759 544.371 28.7826L545.171 30.6158ZM552.224 29.2578C554.809 29.2578 557.063 29.6848 559.003 30.5134L559.789 28.6741C557.557 27.7214 555.029 27.2578 552.224 27.2578V29.2578ZM559.003 30.5134C560.955 31.3468 562.574 32.5232 563.875 34.0414L565.393 32.7398C563.882 30.9768 562.009 29.6219 559.789 28.6741L559.003 30.5134ZM563.88 34.0476C565.211 35.5741 566.226 37.4184 566.915 39.5985L568.822 38.9953C568.059 36.5816 566.917 34.4884 565.388 32.7336L563.88 34.0476ZM566.916 39.6013C567.606 41.7613 567.958 44.1879 567.958 46.8906H569.958C569.958 44.0152 569.584 41.3793 568.821 38.9925L566.916 39.6013ZM567.958 46.8906V51.1094H569.958V46.8906H567.958ZM568.958 50.1094H538.724V52.1094H568.958V50.1094ZM539.724 51.1094V44.3594H537.724V51.1094H539.724ZM538.724 45.3594H559.009V43.3594H538.724V45.3594ZM560.009 44.3594V43.5859H558.009V44.3594H560.009ZM560.009 43.5859C560.009 42.056 559.728 40.6538 559.141 39.4003L557.33 40.2482C557.775 41.1978 558.009 42.3034 558.009 43.5859H560.009ZM559.152 39.4234C558.583 38.1236 557.706 37.0794 556.531 36.3143L555.44 37.9903C556.281 38.5378 556.904 39.2748 557.32 40.225L559.152 39.4234ZM556.531 36.3143C555.318 35.5245 553.824 35.168 552.119 35.168V37.168C553.553 37.168 554.637 37.4677 555.44 37.9903L556.531 36.3143ZM552.119 35.168C550.634 35.168 549.298 35.495 548.153 36.1931L549.194 37.9007C549.971 37.4269 550.932 37.168 552.119 37.168V35.168ZM548.153 36.1931C547.037 36.8732 546.138 37.8202 545.452 39.0075L547.184 40.0081C547.716 39.086 548.387 38.3924 549.194 37.9007L548.153 36.1931ZM545.444 39.0222C544.801 40.1797 544.325 41.519 544.004 43.0259L545.96 43.4428C546.248 42.0904 546.663 40.9453 547.192 39.9935L545.444 39.0222ZM544.001 43.0383C543.705 44.5192 543.56 46.1329 543.56 47.875H545.56C545.56 46.2421 545.696 44.762 545.962 43.4305L544.001 43.0383ZM543.56 47.875V49.2812H545.56V47.875H543.56ZM543.56 49.2812C543.56 50.8975 543.784 52.41 544.242 53.811L546.143 53.189C545.758 52.0118 545.56 50.7119 545.56 49.2812H543.56ZM544.248 53.8265C544.729 55.2204 545.408 56.4455 546.294 57.4875L547.818 56.1922C547.11 55.3592 546.547 54.3578 546.138 53.1735L544.248 53.8265ZM546.304 57.4983C547.22 58.5453 548.321 59.3579 549.6 59.9318L550.419 58.1073C549.4 57.6499 548.533 57.0094 547.809 56.1813L546.304 57.4983ZM549.606 59.9348C550.923 60.5142 552.388 60.793 553.982 60.793V58.793C552.623 58.793 551.439 58.5561 550.412 58.1042L549.606 59.9348ZM553.982 60.793C555.942 60.793 557.781 60.4152 559.488 59.651L558.671 57.8256C557.237 58.4676 555.678 58.793 553.982 58.793V60.793ZM559.494 59.6482C561.241 58.852 562.736 57.6592 563.977 56.0888L562.408 54.8487C561.352 56.1846 560.106 57.1715 558.665 57.8284L559.494 59.6482ZM562.457 56.1462L567.379 61.49L568.85 60.135L563.928 54.7913L562.457 56.1462ZM567.293 60.2424C566.568 61.2871 565.558 62.3159 564.239 63.3221L565.452 64.9123C566.898 63.8091 568.067 62.6348 568.936 61.3826L567.293 60.2424ZM564.232 63.3271C562.971 64.3055 561.429 65.1255 559.59 65.776L560.257 67.6615C562.261 66.9526 564 66.0383 565.458 64.9073L564.232 63.3271ZM559.6 65.7724C557.802 66.3865 555.723 66.7031 553.349 66.7031V68.7031C555.897 68.7031 558.201 68.3635 560.246 67.6651L559.6 65.7724ZM583.409 37.2578H584.409V37.2218L584.406 37.186L583.409 37.2578ZM583.409 67V68H584.409V67H583.409ZM573.284 67H572.284V68H573.284V67ZM573.284 28.9609V27.9609H572.284V28.9609H573.284ZM582.811 28.9609L583.809 28.8891L583.742 27.9609H582.811V28.9609ZM594.87 28.7148L595.87 28.7336L595.883 28.0267L595.221 27.7785L594.87 28.7148ZM594.694 38.1016L594.553 39.0915L595.673 39.2515L595.694 38.1203L594.694 38.1016ZM592.901 37.9258L592.798 38.9205L592.817 38.9224L592.835 38.9236L592.901 37.9258ZM587.311 38.3828L587.634 39.3294L587.646 39.325L587.311 38.3828ZM584.71 39.9648L584.003 39.2577L583.997 39.2637L583.991 39.2698L584.71 39.9648ZM583.163 42.5312L582.219 42.2019L582.215 42.2117L582.212 42.2217L583.163 42.5312ZM582.6 45.9766L582.304 46.9316L583.552 47.319L583.6 46.0129L582.6 45.9766ZM580.561 45.3438H579.561V46.0805L580.265 46.2988L580.561 45.3438ZM581.3 38.5586L582.272 38.7907L582.273 38.7882L581.3 38.5586ZM583.444 33.1094L582.595 32.5817L582.589 32.5911L583.444 33.1094ZM593.429 28.3984L593.271 29.3859L593.29 29.389L593.309 29.3913L593.429 28.3984ZM582.409 37.2578V67H584.409V37.2578H582.409ZM583.409 66H573.284V68H583.409V66ZM574.284 67V28.9609H572.284V67H574.284ZM573.284 29.9609H582.811V27.9609H573.284V29.9609ZM581.814 29.0328L582.412 37.3297L584.406 37.186L583.809 28.8891L581.814 29.0328ZM593.87 28.6961L593.694 38.0828L595.694 38.1203L595.87 28.7336L593.87 28.6961ZM594.836 37.1116C594.311 37.0366 593.687 36.9759 592.968 36.928L592.835 38.9236C593.522 38.9694 594.093 39.0259 594.553 39.0915L594.836 37.1116ZM593.004 36.9311C592.297 36.858 591.641 36.8203 591.038 36.8203V38.8203C591.56 38.8203 592.146 38.853 592.798 38.9205L593.004 36.9311ZM591.038 36.8203C589.524 36.8203 588.164 37.0184 586.976 37.4406L587.646 39.325C588.568 38.9972 589.692 38.8203 591.038 38.8203V36.8203ZM586.989 37.4363C585.827 37.8324 584.824 38.4364 584.003 39.2577L585.417 40.672C586.002 40.087 586.734 39.6363 587.634 39.3293L586.989 37.4363ZM583.991 39.2698C583.202 40.0863 582.614 41.07 582.219 42.2019L584.107 42.8606C584.415 41.9769 584.859 41.2496 585.429 40.6599L583.991 39.2698ZM582.212 42.2217C581.85 43.3346 581.651 44.5776 581.601 45.9402L583.6 46.0129C583.644 44.7974 583.82 43.7436 584.114 42.8408L582.212 42.2217ZM582.897 45.0215L580.858 44.3887L580.265 46.2988L582.304 46.9316L582.897 45.0215ZM581.561 45.3438C581.561 42.9488 581.801 40.7662 582.272 38.7907L580.327 38.3265C579.814 40.476 579.561 42.8168 579.561 45.3438H581.561ZM582.273 38.7882C582.745 36.7858 583.425 35.0703 584.299 33.6277L582.589 32.5911C581.588 34.2422 580.838 36.1595 580.326 38.3289L582.273 38.7882ZM584.294 33.6371C585.182 32.2064 586.247 31.1297 587.481 30.3771L586.439 28.6698C584.907 29.6046 583.628 30.9186 582.595 32.5817L584.294 33.6371ZM587.481 30.3771C588.691 29.6384 590.09 29.2578 591.706 29.2578V27.2578C589.76 27.2578 587.994 27.7209 586.439 28.6698L587.481 30.3771ZM591.706 29.2578C592.213 29.2578 592.734 29.3 593.271 29.3859L593.587 27.411C592.951 27.3093 592.324 27.2578 591.706 27.2578V29.2578ZM593.309 29.3913C593.85 29.4561 594.245 29.5484 594.519 29.6512L595.221 27.7785C594.745 27.6 594.179 27.4814 593.548 27.4056L593.309 29.3913ZM607.071 66.2969L606.691 67.2222L606.699 67.2254L607.071 66.2969ZM601.094 62.3242L600.372 63.0161L600.377 63.0213L601.094 62.3242ZM597.368 56.4531L596.434 56.8128L596.436 56.816L597.368 56.4531ZM600.813 33.7422L600.062 33.0815L600.057 33.0873L600.813 33.7422ZM606.438 29.6992L606.829 30.6194L606.838 30.6158L606.438 29.6992ZM626.301 33.3906L625.542 34.0414L625.547 34.0476L626.301 33.3906ZM629.535 39.2969L628.582 39.5985L628.583 39.6013L629.535 39.2969ZM630.625 51.1094V52.1094H631.625V51.1094H630.625ZM600.391 51.1094H599.391V52.1094H600.391V51.1094ZM600.391 44.3594V43.3594H599.391V44.3594H600.391ZM620.676 44.3594V45.3594H621.676V44.3594H620.676ZM619.903 39.8242L618.986 40.225L618.992 40.2367L618.997 40.2482L619.903 39.8242ZM607.985 39.5078L607.119 39.0075L607.115 39.0148L607.111 39.0222L607.985 39.5078ZM606.649 43.2344L605.671 43.0259L605.668 43.0383L606.649 43.2344ZM606.86 53.5L605.909 53.811L605.912 53.8188L605.914 53.8265L606.86 53.5ZM608.723 56.8398L607.961 57.4875L607.966 57.493L607.97 57.4983L608.723 56.8398ZM611.676 59.0195L611.266 59.9318L611.273 59.9348L611.676 59.0195ZM620.746 58.7383L621.155 59.651L621.161 59.6482L620.746 58.7383ZM624.86 55.4688L625.595 54.7913L624.802 53.9296L624.075 54.8487L624.86 55.4688ZM629.782 60.8125L630.603 61.3826L631.06 60.7243L630.517 60.135L629.782 60.8125ZM626.512 64.1172L625.906 63.322L625.899 63.3271L626.512 64.1172ZM621.59 66.7188L621.913 67.6652L621.924 67.6615L621.59 66.7188ZM615.016 66.7031C612.169 66.7031 609.649 66.2513 607.442 65.3684L606.699 67.2254C609.179 68.2174 611.957 68.7031 615.016 68.7031V66.7031ZM607.45 65.3716C605.223 64.4587 603.349 63.2089 601.811 61.6271L600.377 63.0213C602.121 64.8146 604.23 66.2131 606.691 67.2221L607.45 65.3716ZM601.816 61.6323C600.292 60.0418 599.12 58.1972 598.299 56.0902L596.436 56.816C597.349 59.1622 598.662 61.2317 600.372 63.0161L601.816 61.6323ZM598.301 56.0935C597.48 53.9639 597.067 51.6957 597.067 49.2812H595.067C595.067 51.9293 595.521 54.4424 596.434 56.8128L598.301 56.0935ZM597.067 49.2812V47.875H595.067V49.2812H597.067ZM597.067 47.875C597.067 45.0873 597.463 42.562 598.243 40.2894L596.351 39.6403C595.491 42.1489 595.067 44.897 595.067 47.875H597.067ZM598.243 40.2894C599.025 38.0095 600.136 36.0499 601.569 34.3971L600.057 33.0873C598.443 34.9501 597.21 37.1389 596.351 39.6403L598.243 40.2894ZM601.564 34.4028C603.009 32.7599 604.761 31.4997 606.829 30.6194L606.046 28.7791C603.709 29.7738 601.71 31.2089 600.062 33.0816L601.564 34.4028ZM606.838 30.6158C608.897 29.7176 611.242 29.2578 613.891 29.2578V27.2578C611.008 27.2578 608.385 27.759 606.038 28.7826L606.838 30.6158ZM613.891 29.2578C616.476 29.2578 618.729 29.6848 620.67 30.5134L621.455 28.6741C619.224 27.7214 616.696 27.2578 613.891 27.2578V29.2578ZM620.67 30.5134C622.622 31.3468 624.24 32.5232 625.542 34.0414L627.06 32.7398C625.549 30.9768 623.675 29.6219 621.455 28.6741L620.67 30.5134ZM625.547 34.0476C626.877 35.5741 627.892 37.4184 628.582 39.5985L630.489 38.9953C629.725 36.5816 628.584 34.4884 627.055 32.7336L625.547 34.0476ZM628.583 39.6013C629.273 41.7613 629.625 44.1879 629.625 46.8906H631.625C631.625 44.0152 631.251 41.3793 630.488 38.9925L628.583 39.6013ZM629.625 46.8906V51.1094H631.625V46.8906H629.625ZM630.625 50.1094H600.391V52.1094H630.625V50.1094ZM601.391 51.1094V44.3594H599.391V51.1094H601.391ZM600.391 45.3594H620.676V43.3594H600.391V45.3594ZM621.676 44.3594V43.5859H619.676V44.3594H621.676ZM621.676 43.5859C621.676 42.056 621.395 40.6538 620.808 39.4003L618.997 40.2482C619.441 41.1978 619.676 42.3034 619.676 43.5859H621.676ZM620.819 39.4234C620.25 38.1236 619.373 37.0794 618.198 36.3143L617.107 37.9903C617.948 38.5378 618.571 39.2748 618.986 40.225L620.819 39.4234ZM618.198 36.3143C616.985 35.5245 615.491 35.168 613.785 35.168V37.168C615.22 37.168 616.304 37.4677 617.107 37.9903L618.198 36.3143ZM613.785 35.168C612.301 35.168 610.964 35.495 609.82 36.1931L610.861 37.9007C611.638 37.4269 612.599 37.168 613.785 37.168V35.168ZM609.82 36.1931C608.704 36.8732 607.805 37.8202 607.119 39.0075L608.851 40.0081C609.383 39.086 610.054 38.3924 610.861 37.9007L609.82 36.1931ZM607.111 39.0222C606.467 40.1797 605.992 41.519 605.671 43.0259L607.627 43.4428C607.915 42.0904 608.33 40.9453 608.859 39.9935L607.111 39.0222ZM605.668 43.0383C605.372 44.5192 605.227 46.1329 605.227 47.875H607.227C607.227 46.2421 607.363 44.762 607.629 43.4305L605.668 43.0383ZM605.227 47.875V49.2812H607.227V47.875H605.227ZM605.227 49.2812C605.227 50.8975 605.451 52.41 605.909 53.811L607.81 53.189C607.425 52.0118 607.227 50.7119 607.227 49.2812H605.227ZM605.914 53.8265C606.396 55.2204 607.075 56.4455 607.961 57.4875L609.485 56.1922C608.777 55.3592 608.214 54.3578 607.805 53.1735L605.914 53.8265ZM607.97 57.4983C608.886 58.5453 609.988 59.3579 611.267 59.9318L612.086 58.1073C611.067 57.6499 610.2 57.0094 609.476 56.1813L607.97 57.4983ZM611.273 59.9348C612.59 60.5142 614.055 60.793 615.649 60.793V58.793C614.29 58.793 613.106 58.5561 612.079 58.1042L611.273 59.9348ZM615.649 60.793C617.609 60.793 619.448 60.4152 621.155 59.651L620.338 57.8256C618.904 58.4676 617.345 58.793 615.649 58.793V60.793ZM621.161 59.6482C622.908 58.852 624.403 57.6592 625.644 56.0888L624.075 54.8487C623.019 56.1846 621.773 57.1715 620.332 57.8284L621.161 59.6482ZM624.124 56.1462L629.046 61.49L630.517 60.135L625.595 54.7913L624.124 56.1462ZM628.96 60.2424C628.235 61.2871 627.225 62.3159 625.906 63.3221L627.118 64.9123C628.565 63.8091 629.734 62.6348 630.603 61.3826L628.96 60.2424ZM625.899 63.3271C624.638 64.3055 623.096 65.1255 621.257 65.776L621.924 67.6615C623.928 66.9526 625.667 66.0383 627.125 64.9073L625.899 63.3271ZM621.267 65.7724C619.469 66.3865 617.389 66.7031 615.016 66.7031V68.7031C617.564 68.7031 619.868 68.3635 621.913 67.6651L621.267 65.7724ZM646.377 15.8125L647.376 15.8451L647.41 14.8125H646.377V15.8125ZM645.217 51.3555V52.3555H646.184L646.216 51.3881L645.217 51.3555ZM636.779 51.3555L635.78 51.3891L635.812 52.3555H636.779V51.3555ZM635.584 15.8125V14.8125H634.55L634.584 15.8461L635.584 15.8125ZM636.849 58.6328L637.54 59.3562L637.54 59.3558L636.849 58.6328ZM645.146 58.6328L644.447 59.348L644.456 59.3562L645.146 58.6328ZM636.849 66.0508L636.15 66.766L636.159 66.7738L636.849 66.0508ZM645.377 15.7799L644.217 51.3228L646.216 51.3881L647.376 15.8451L645.377 15.7799ZM645.217 50.3555H636.779V52.3555H645.217V50.3555ZM637.779 51.3219L636.583 15.7789L634.584 15.8461L635.78 51.3891L637.779 51.3219ZM635.584 16.8125H646.377V14.8125H635.584V16.8125ZM636.303 62.3594C636.303 61.1167 636.718 60.1411 637.54 59.3562L636.159 57.9095C634.919 59.0933 634.303 60.6021 634.303 62.3594H636.303ZM637.54 59.3558C638.377 58.5562 639.497 58.1211 640.998 58.1211V56.1211C639.077 56.1211 637.431 56.6938 636.159 57.9098L637.54 59.3558ZM640.998 58.1211C642.527 58.1211 643.64 58.5588 644.447 59.348L645.845 57.9176C644.59 56.6912 642.937 56.1211 640.998 56.1211V58.1211ZM644.456 59.3562C645.278 60.1411 645.693 61.1167 645.693 62.3594H647.693C647.693 60.6021 647.077 59.0933 645.837 57.9095L644.456 59.3562ZM645.693 62.3594C645.693 63.5457 645.284 64.5176 644.447 65.3356L645.845 66.766C647.071 65.5684 647.693 64.0793 647.693 62.3594H645.693ZM644.447 65.3356C643.64 66.1248 642.527 66.5625 640.998 66.5625V68.5625C642.937 68.5625 644.59 67.9924 645.845 66.766L644.447 65.3356ZM640.998 66.5625C639.497 66.5625 638.377 66.1274 637.54 65.3278L636.159 66.7738C637.431 67.9898 639.077 68.5625 640.998 68.5625V66.5625ZM637.548 65.3356C636.711 64.5176 636.303 63.5457 636.303 62.3594H634.303C634.303 64.0793 634.925 65.5684 636.15 66.766L637.548 65.3356Z" fill="white"/>
<path d="M765.457 15.8125V67H754.945V15.8125H765.457ZM781.207 15.8125V24.0742H739.441V15.8125H781.207ZM799.349 67.7031C796.396 67.7031 793.748 67.2344 791.404 66.2969C789.06 65.3359 787.068 64.0117 785.427 62.3242C783.81 60.6367 782.568 58.6797 781.701 56.4531C780.833 54.2031 780.4 51.8125 780.4 49.2812V47.875C780.4 44.9922 780.81 42.3555 781.63 39.9648C782.451 37.5742 783.623 35.5 785.146 33.7422C786.693 31.9844 788.568 30.6367 790.771 29.6992C792.974 28.7383 795.458 28.2578 798.224 28.2578C800.919 28.2578 803.31 28.7031 805.396 29.5938C807.482 30.4844 809.228 31.75 810.634 33.3906C812.064 35.0312 813.142 37 813.869 39.2969C814.595 41.5703 814.958 44.1016 814.958 46.8906V51.1094H784.724V44.3594H805.009V43.5859C805.009 42.1797 804.751 40.9258 804.236 39.8242C803.744 38.6992 802.994 37.8086 801.986 37.1523C800.978 36.4961 799.689 36.168 798.119 36.168C796.783 36.168 795.634 36.4609 794.673 37.0469C793.712 37.6328 792.927 38.4531 792.318 39.5078C791.732 40.5625 791.287 41.8047 790.982 43.2344C790.701 44.6406 790.56 46.1875 790.56 47.875V49.2812C790.56 50.8047 790.771 52.2109 791.193 53.5C791.638 54.7891 792.259 55.9023 793.056 56.8398C793.876 57.7773 794.861 58.5039 796.009 59.0195C797.181 59.5352 798.505 59.793 799.982 59.793C801.81 59.793 803.509 59.4414 805.08 58.7383C806.673 58.0117 808.044 56.9219 809.193 55.4688L814.115 60.8125C813.318 61.9609 812.228 63.0625 810.845 64.1172C809.486 65.1719 807.845 66.0391 805.923 66.7188C804.001 67.375 801.81 67.7031 799.349 67.7031ZM829.409 37.2578V67H819.284V28.9609H828.811L829.409 37.2578ZM840.87 28.7148L840.694 38.1016C840.202 38.0312 839.604 37.9727 838.901 37.9258C838.222 37.8555 837.6 37.8203 837.038 37.8203C835.608 37.8203 834.366 38.0078 833.311 38.3828C832.28 38.7344 831.413 39.2617 830.71 39.9648C830.03 40.668 829.515 41.5234 829.163 42.5312C828.835 43.5391 828.647 44.6875 828.6 45.9766L826.561 45.3438C826.561 42.8828 826.808 40.6211 827.3 38.5586C827.792 36.4727 828.507 34.6562 829.444 33.1094C830.405 31.5625 831.577 30.3672 832.96 29.5234C834.343 28.6797 835.925 28.2578 837.706 28.2578C838.268 28.2578 838.843 28.3047 839.429 28.3984C840.015 28.4688 840.495 28.5742 840.87 28.7148ZM861.016 67.7031C858.063 67.7031 855.414 67.2344 853.071 66.2969C850.727 65.3359 848.735 64.0117 847.094 62.3242C845.477 60.6367 844.235 58.6797 843.368 56.4531C842.5 54.2031 842.067 51.8125 842.067 49.2812V47.875C842.067 44.9922 842.477 42.3555 843.297 39.9648C844.118 37.5742 845.289 35.5 846.813 33.7422C848.36 31.9844 850.235 30.6367 852.438 29.6992C854.641 28.7383 857.125 28.2578 859.891 28.2578C862.586 28.2578 864.977 28.7031 867.063 29.5938C869.149 30.4844 870.895 31.75 872.301 33.3906C873.731 35.0312 874.809 37 875.535 39.2969C876.262 41.5703 876.625 44.1016 876.625 46.8906V51.1094H846.391V44.3594H866.676V43.5859C866.676 42.1797 866.418 40.9258 865.903 39.8242C865.41 38.6992 864.66 37.8086 863.653 37.1523C862.645 36.4961 861.356 36.168 859.785 36.168C858.45 36.168 857.301 36.4609 856.34 37.0469C855.379 37.6328 854.594 38.4531 853.985 39.5078C853.399 40.5625 852.953 41.8047 852.649 43.2344C852.368 44.6406 852.227 46.1875 852.227 47.875V49.2812C852.227 50.8047 852.438 52.2109 852.86 53.5C853.305 54.7891 853.926 55.9023 854.723 56.8398C855.543 57.7773 856.528 58.5039 857.676 59.0195C858.848 59.5352 860.172 59.793 861.649 59.793C863.477 59.793 865.176 59.4414 866.746 58.7383C868.34 58.0117 869.711 56.9219 870.86 55.4688L875.782 60.8125C874.985 61.9609 873.895 63.0625 872.512 64.1172C871.153 65.1719 869.512 66.0391 867.59 66.7188C865.668 67.375 863.477 67.7031 861.016 67.7031ZM892.377 15.8125L891.217 51.3555H882.779L881.584 15.8125H892.377ZM881.303 62.3594C881.303 60.8594 881.818 59.6172 882.849 58.6328C883.904 57.625 885.287 57.1211 886.998 57.1211C888.732 57.1211 890.115 57.625 891.146 58.6328C892.178 59.6172 892.693 60.8594 892.693 62.3594C892.693 63.8125 892.178 65.043 891.146 66.0508C890.115 67.0586 888.732 67.5625 886.998 67.5625C885.287 67.5625 883.904 67.0586 882.849 66.0508C881.818 65.043 881.303 63.8125 881.303 62.3594Z" fill="#F4F1DE"/>
<path d="M1011.46 15.8125H1012.46V14.8125H1011.46V15.8125ZM1011.46 67V68H1012.46V67H1011.46ZM1000.95 67H999.945V68H1000.95V67ZM1000.95 15.8125V14.8125H999.945V15.8125H1000.95ZM1027.21 15.8125H1028.21V14.8125H1027.21V15.8125ZM1027.21 24.0742V25.0742H1028.21V24.0742H1027.21ZM985.441 24.0742H984.441V25.0742H985.441V24.0742ZM985.441 15.8125V14.8125H984.441V15.8125H985.441ZM1010.46 15.8125V67H1012.46V15.8125H1010.46ZM1011.46 66H1000.95V68H1011.46V66ZM1001.95 67V15.8125H999.945V67H1001.95ZM1000.95 16.8125H1011.46V14.8125H1000.95V16.8125ZM1026.21 15.8125V24.0742H1028.21V15.8125H1026.21ZM1027.21 23.0742H985.441V25.0742H1027.21V23.0742ZM986.441 24.0742V15.8125H984.441V24.0742H986.441ZM985.441 16.8125H1027.21V14.8125H985.441V16.8125ZM1037.4 66.2969L1037.02 67.2222L1037.03 67.2254L1037.4 66.2969ZM1031.43 62.3242L1030.71 63.0161L1030.71 63.0213L1031.43 62.3242ZM1027.7 56.4531L1026.77 56.8128L1026.77 56.816L1027.7 56.4531ZM1031.15 33.7422L1030.4 33.0815L1030.39 33.0873L1031.15 33.7422ZM1036.77 29.6992L1037.16 30.6194L1037.17 30.6158L1036.77 29.6992ZM1056.63 33.3906L1055.87 34.0414L1055.88 34.0476L1056.63 33.3906ZM1059.87 39.2969L1058.92 39.5985L1058.92 39.6013L1059.87 39.2969ZM1060.96 51.1094V52.1094H1061.96V51.1094H1060.96ZM1030.72 51.1094H1029.72V52.1094H1030.72V51.1094ZM1030.72 44.3594V43.3594H1029.72V44.3594H1030.72ZM1051.01 44.3594V45.3594H1052.01V44.3594H1051.01ZM1050.24 39.8242L1049.32 40.225L1049.32 40.2367L1049.33 40.2482L1050.24 39.8242ZM1038.32 39.5078L1037.45 39.0075L1037.45 39.0148L1037.44 39.0222L1038.32 39.5078ZM1036.98 43.2344L1036 43.0259L1036 43.0383L1036.98 43.2344ZM1037.19 53.5L1036.24 53.811L1036.24 53.8188L1036.25 53.8265L1037.19 53.5ZM1039.06 56.8398L1038.29 57.4875L1038.3 57.493L1038.3 57.4983L1039.06 56.8398ZM1042.01 59.0195L1041.6 59.9318L1041.61 59.9348L1042.01 59.0195ZM1051.08 58.7383L1051.49 59.651L1051.49 59.6482L1051.08 58.7383ZM1055.19 55.4688L1055.93 54.7913L1055.13 53.9296L1054.41 54.8487L1055.19 55.4688ZM1060.11 60.8125L1060.94 61.3826L1061.39 60.7243L1060.85 60.135L1060.11 60.8125ZM1056.85 64.1172L1056.24 63.322L1056.23 63.3271L1056.85 64.1172ZM1051.92 66.7188L1052.25 67.6652L1052.26 67.6615L1051.92 66.7188ZM1045.35 66.7031C1042.5 66.7031 1039.98 66.2513 1037.78 65.3684L1037.03 67.2254C1039.51 68.2174 1042.29 68.7031 1045.35 68.7031V66.7031ZM1037.78 65.3716C1035.56 64.4587 1033.68 63.2089 1032.14 61.6271L1030.71 63.0213C1032.45 64.8146 1034.56 66.2131 1037.02 67.2221L1037.78 65.3716ZM1032.15 61.6323C1030.62 60.0418 1029.45 58.1972 1028.63 56.0902L1026.77 56.816C1027.68 59.1622 1029 61.2317 1030.71 63.0161L1032.15 61.6323ZM1028.63 56.0935C1027.81 53.9639 1027.4 51.6957 1027.4 49.2812H1025.4C1025.4 51.9293 1025.85 54.4424 1026.77 56.8128L1028.63 56.0935ZM1027.4 49.2812V47.875H1025.4V49.2812H1027.4ZM1027.4 47.875C1027.4 45.0873 1027.8 42.562 1028.58 40.2894L1026.68 39.6403C1025.82 42.1489 1025.4 44.897 1025.4 47.875H1027.4ZM1028.58 40.2894C1029.36 38.0095 1030.47 36.0499 1031.9 34.3971L1030.39 33.0873C1028.78 34.9501 1027.54 37.1389 1026.68 39.6403L1028.58 40.2894ZM1031.9 34.4028C1033.34 32.7599 1035.09 31.4997 1037.16 30.6194L1036.38 28.7791C1034.04 29.7738 1032.04 31.2089 1030.4 33.0816L1031.9 34.4028ZM1037.17 30.6158C1039.23 29.7176 1041.58 29.2578 1044.22 29.2578V27.2578C1041.34 27.2578 1038.72 27.759 1036.37 28.7826L1037.17 30.6158ZM1044.22 29.2578C1046.81 29.2578 1049.06 29.6848 1051 30.5134L1051.79 28.6741C1049.56 27.7214 1047.03 27.2578 1044.22 27.2578V29.2578ZM1051 30.5134C1052.96 31.3468 1054.57 32.5232 1055.87 34.0414L1057.39 32.7398C1055.88 30.9768 1054.01 29.6219 1051.79 28.6741L1051 30.5134ZM1055.88 34.0476C1057.21 35.5741 1058.23 37.4184 1058.92 39.5985L1060.82 38.9953C1060.06 36.5816 1058.92 34.4884 1057.39 32.7336L1055.88 34.0476ZM1058.92 39.6013C1059.61 41.7613 1059.96 44.1879 1059.96 46.8906H1061.96C1061.96 44.0152 1061.58 41.3793 1060.82 38.9925L1058.92 39.6013ZM1059.96 46.8906V51.1094H1061.96V46.8906H1059.96ZM1060.96 50.1094H1030.72V52.1094H1060.96V50.1094ZM1031.72 51.1094V44.3594H1029.72V51.1094H1031.72ZM1030.72 45.3594H1051.01V43.3594H1030.72V45.3594ZM1052.01 44.3594V43.5859H1050.01V44.3594H1052.01ZM1052.01 43.5859C1052.01 42.056 1051.73 40.6538 1051.14 39.4003L1049.33 40.2482C1049.77 41.1978 1050.01 42.3034 1050.01 43.5859H1052.01ZM1051.15 39.4234C1050.58 38.1236 1049.71 37.0794 1048.53 36.3143L1047.44 37.9903C1048.28 38.5378 1048.9 39.2748 1049.32 40.225L1051.15 39.4234ZM1048.53 36.3143C1047.32 35.5245 1045.82 35.168 1044.12 35.168V37.168C1045.55 37.168 1046.64 37.4677 1047.44 37.9903L1048.53 36.3143ZM1044.12 35.168C1042.63 35.168 1041.3 35.495 1040.15 36.1931L1041.19 37.9007C1041.97 37.4269 1042.93 37.168 1044.12 37.168V35.168ZM1040.15 36.1931C1039.04 36.8732 1038.14 37.8202 1037.45 39.0075L1039.18 40.0081C1039.72 39.086 1040.39 38.3924 1041.19 37.9007L1040.15 36.1931ZM1037.44 39.0222C1036.8 40.1797 1036.32 41.519 1036 43.0259L1037.96 43.4428C1038.25 42.0904 1038.66 40.9453 1039.19 39.9935L1037.44 39.0222ZM1036 43.0383C1035.71 44.5192 1035.56 46.1329 1035.56 47.875H1037.56C1037.56 46.2421 1037.7 44.762 1037.96 43.4305L1036 43.0383ZM1035.56 47.875V49.2812H1037.56V47.875H1035.56ZM1035.56 49.2812C1035.56 50.8975 1035.78 52.41 1036.24 53.811L1038.14 53.189C1037.76 52.0118 1037.56 50.7119 1037.56 49.2812H1035.56ZM1036.25 53.8265C1036.73 55.2204 1037.41 56.4455 1038.29 57.4875L1039.82 56.1922C1039.11 55.3592 1038.55 54.3578 1038.14 53.1735L1036.25 53.8265ZM1038.3 57.4983C1039.22 58.5453 1040.32 59.3579 1041.6 59.9318L1042.42 58.1073C1041.4 57.6499 1040.53 57.0094 1039.81 56.1813L1038.3 57.4983ZM1041.61 59.9348C1042.92 60.5142 1044.39 60.793 1045.98 60.793V58.793C1044.62 58.793 1043.44 58.5561 1042.41 58.1042L1041.61 59.9348ZM1045.98 60.793C1047.94 60.793 1049.78 60.4152 1051.49 59.651L1050.67 57.8256C1049.24 58.4676 1047.68 58.793 1045.98 58.793V60.793ZM1051.49 59.6482C1053.24 58.852 1054.74 57.6592 1055.98 56.0888L1054.41 54.8487C1053.35 56.1846 1052.11 57.1715 1050.66 57.8284L1051.49 59.6482ZM1054.46 56.1462L1059.38 61.49L1060.85 60.135L1055.93 54.7913L1054.46 56.1462ZM1059.29 60.2424C1058.57 61.2871 1057.56 62.3159 1056.24 63.3221L1057.45 64.9123C1058.9 63.8091 1060.07 62.6348 1060.94 61.3826L1059.29 60.2424ZM1056.23 63.3271C1054.97 64.3055 1053.43 65.1255 1051.59 65.776L1052.26 67.6615C1054.26 66.9526 1056 66.0383 1057.46 64.9073L1056.23 63.3271ZM1051.6 65.7724C1049.8 66.3865 1047.72 66.7031 1045.35 66.7031V68.7031C1047.9 68.7031 1050.2 68.3635 1052.25 67.6651L1051.6 65.7724ZM1075.41 37.2578H1076.41V37.2218L1076.41 37.186L1075.41 37.2578ZM1075.41 67V68H1076.41V67H1075.41ZM1065.28 67H1064.28V68H1065.28V67ZM1065.28 28.9609V27.9609H1064.28V28.9609H1065.28ZM1074.81 28.9609L1075.81 28.8891L1075.74 27.9609H1074.81V28.9609ZM1086.87 28.7148L1087.87 28.7336L1087.88 28.0267L1087.22 27.7785L1086.87 28.7148ZM1086.69 38.1016L1086.55 39.0915L1087.67 39.2515L1087.69 38.1203L1086.69 38.1016ZM1084.9 37.9258L1084.8 38.9205L1084.82 38.9224L1084.83 38.9236L1084.9 37.9258ZM1079.31 38.3828L1079.63 39.3294L1079.65 39.325L1079.31 38.3828ZM1076.71 39.9648L1076 39.2577L1076 39.2637L1075.99 39.2698L1076.71 39.9648ZM1075.16 42.5312L1074.22 42.2019L1074.22 42.2117L1074.21 42.2217L1075.16 42.5312ZM1074.6 45.9766L1074.3 46.9316L1075.55 47.319L1075.6 46.0129L1074.6 45.9766ZM1072.56 45.3438H1071.56V46.0805L1072.27 46.2988L1072.56 45.3438ZM1073.3 38.5586L1074.27 38.7907L1074.27 38.7882L1073.3 38.5586ZM1075.44 33.1094L1074.59 32.5817L1074.59 32.5911L1075.44 33.1094ZM1085.43 28.3984L1085.27 29.3859L1085.29 29.389L1085.31 29.3913L1085.43 28.3984ZM1074.41 37.2578V67H1076.41V37.2578H1074.41ZM1075.41 66H1065.28V68H1075.41V66ZM1066.28 67V28.9609H1064.28V67H1066.28ZM1065.28 29.9609H1074.81V27.9609H1065.28V29.9609ZM1073.81 29.0328L1074.41 37.3297L1076.41 37.186L1075.81 28.8891L1073.81 29.0328ZM1085.87 28.6961L1085.69 38.0828L1087.69 38.1203L1087.87 28.7336L1085.87 28.6961ZM1086.84 37.1116C1086.31 37.0366 1085.69 36.9759 1084.97 36.928L1084.83 38.9236C1085.52 38.9694 1086.09 39.0259 1086.55 39.0915L1086.84 37.1116ZM1085 36.9311C1084.3 36.858 1083.64 36.8203 1083.04 36.8203V38.8203C1083.56 38.8203 1084.15 38.853 1084.8 38.9205L1085 36.9311ZM1083.04 36.8203C1081.52 36.8203 1080.16 37.0184 1078.98 37.4406L1079.65 39.325C1080.57 38.9972 1081.69 38.8203 1083.04 38.8203V36.8203ZM1078.99 37.4363C1077.83 37.8324 1076.82 38.4364 1076 39.2577L1077.42 40.672C1078 40.087 1078.73 39.6363 1079.63 39.3293L1078.99 37.4363ZM1075.99 39.2698C1075.2 40.0863 1074.61 41.07 1074.22 42.2019L1076.11 42.8606C1076.42 41.9769 1076.86 41.2496 1077.43 40.6599L1075.99 39.2698ZM1074.21 42.2217C1073.85 43.3346 1073.65 44.5776 1073.6 45.9402L1075.6 46.0129C1075.64 44.7974 1075.82 43.7436 1076.11 42.8408L1074.21 42.2217ZM1074.9 45.0215L1072.86 44.3887L1072.27 46.2988L1074.3 46.9316L1074.9 45.0215ZM1073.56 45.3438C1073.56 42.9488 1073.8 40.7662 1074.27 38.7907L1072.33 38.3265C1071.81 40.476 1071.56 42.8168 1071.56 45.3438H1073.56ZM1074.27 38.7882C1074.75 36.7858 1075.43 35.0703 1076.3 33.6277L1074.59 32.5911C1073.59 34.2422 1072.84 36.1595 1072.33 38.3289L1074.27 38.7882ZM1076.29 33.6371C1077.18 32.2064 1078.25 31.1297 1079.48 30.3771L1078.44 28.6698C1076.91 29.6046 1075.63 30.9186 1074.59 32.5817L1076.29 33.6371ZM1079.48 30.3771C1080.69 29.6384 1082.09 29.2578 1083.71 29.2578V27.2578C1081.76 27.2578 1079.99 27.7209 1078.44 28.6698L1079.48 30.3771ZM1083.71 29.2578C1084.21 29.2578 1084.73 29.3 1085.27 29.3859L1085.59 27.411C1084.95 27.3093 1084.32 27.2578 1083.71 27.2578V29.2578ZM1085.31 29.3913C1085.85 29.4561 1086.24 29.5484 1086.52 29.6512L1087.22 27.7785C1086.75 27.6 1086.18 27.4814 1085.55 27.4056L1085.31 29.3913ZM1099.07 66.2969L1098.69 67.2222L1098.7 67.2254L1099.07 66.2969ZM1093.09 62.3242L1092.37 63.0161L1092.38 63.0213L1093.09 62.3242ZM1089.37 56.4531L1088.43 56.8128L1088.44 56.816L1089.37 56.4531ZM1092.81 33.7422L1092.06 33.0815L1092.06 33.0873L1092.81 33.7422ZM1098.44 29.6992L1098.83 30.6194L1098.84 30.6158L1098.44 29.6992ZM1118.3 33.3906L1117.54 34.0414L1117.55 34.0476L1118.3 33.3906ZM1121.54 39.2969L1120.58 39.5985L1120.58 39.6013L1121.54 39.2969ZM1122.63 51.1094V52.1094H1123.63V51.1094H1122.63ZM1092.39 51.1094H1091.39V52.1094H1092.39V51.1094ZM1092.39 44.3594V43.3594H1091.39V44.3594H1092.39ZM1112.68 44.3594V45.3594H1113.68V44.3594H1112.68ZM1111.9 39.8242L1110.99 40.225L1110.99 40.2367L1111 40.2482L1111.9 39.8242ZM1099.98 39.5078L1099.12 39.0075L1099.11 39.0148L1099.11 39.0222L1099.98 39.5078ZM1098.65 43.2344L1097.67 43.0259L1097.67 43.0383L1098.65 43.2344ZM1098.86 53.5L1097.91 53.811L1097.91 53.8188L1097.91 53.8265L1098.86 53.5ZM1100.72 56.8398L1099.96 57.4875L1099.97 57.493L1099.97 57.4983L1100.72 56.8398ZM1103.68 59.0195L1103.27 59.9318L1103.27 59.9348L1103.68 59.0195ZM1112.75 58.7383L1113.16 59.651L1113.16 59.6482L1112.75 58.7383ZM1116.86 55.4688L1117.6 54.7913L1116.8 53.9296L1116.08 54.8487L1116.86 55.4688ZM1121.78 60.8125L1122.6 61.3826L1123.06 60.7243L1122.52 60.135L1121.78 60.8125ZM1118.51 64.1172L1117.91 63.322L1117.9 63.3271L1118.51 64.1172ZM1113.59 66.7188L1113.91 67.6652L1113.92 67.6615L1113.59 66.7188ZM1107.02 66.7031C1104.17 66.7031 1101.65 66.2513 1099.44 65.3684L1098.7 67.2254C1101.18 68.2174 1103.96 68.7031 1107.02 68.7031V66.7031ZM1099.45 65.3716C1097.22 64.4587 1095.35 63.2089 1093.81 61.6271L1092.38 63.0213C1094.12 64.8146 1096.23 66.2131 1098.69 67.2221L1099.45 65.3716ZM1093.82 61.6323C1092.29 60.0418 1091.12 58.1972 1090.3 56.0902L1088.44 56.816C1089.35 59.1622 1090.66 61.2317 1092.37 63.0161L1093.82 61.6323ZM1090.3 56.0935C1089.48 53.9639 1089.07 51.6957 1089.07 49.2812H1087.07C1087.07 51.9293 1087.52 54.4424 1088.43 56.8128L1090.3 56.0935ZM1089.07 49.2812V47.875H1087.07V49.2812H1089.07ZM1089.07 47.875C1089.07 45.0873 1089.46 42.562 1090.24 40.2894L1088.35 39.6403C1087.49 42.1489 1087.07 44.897 1087.07 47.875H1089.07ZM1090.24 40.2894C1091.03 38.0095 1092.14 36.0499 1093.57 34.3971L1092.06 33.0873C1090.44 34.9501 1089.21 37.1389 1088.35 39.6403L1090.24 40.2894ZM1093.56 34.4028C1095.01 32.7599 1096.76 31.4997 1098.83 30.6194L1098.05 28.7791C1095.71 29.7738 1093.71 31.2089 1092.06 33.0816L1093.56 34.4028ZM1098.84 30.6158C1100.9 29.7176 1103.24 29.2578 1105.89 29.2578V27.2578C1103.01 27.2578 1100.38 27.759 1098.04 28.7826L1098.84 30.6158ZM1105.89 29.2578C1108.48 29.2578 1110.73 29.6848 1112.67 30.5134L1113.46 28.6741C1111.22 27.7214 1108.7 27.2578 1105.89 27.2578V29.2578ZM1112.67 30.5134C1114.62 31.3468 1116.24 32.5232 1117.54 34.0414L1119.06 32.7398C1117.55 30.9768 1115.68 29.6219 1113.46 28.6741L1112.67 30.5134ZM1117.55 34.0476C1118.88 35.5741 1119.89 37.4184 1120.58 39.5985L1122.49 38.9953C1121.73 36.5816 1120.58 34.4884 1119.06 32.7336L1117.55 34.0476ZM1120.58 39.6013C1121.27 41.7613 1121.63 44.1879 1121.63 46.8906H1123.63C1123.63 44.0152 1123.25 41.3793 1122.49 38.9925L1120.58 39.6013ZM1121.63 46.8906V51.1094H1123.63V46.8906H1121.63ZM1122.63 50.1094H1092.39V52.1094H1122.63V50.1094ZM1093.39 51.1094V44.3594H1091.39V51.1094H1093.39ZM1092.39 45.3594H1112.68V43.3594H1092.39V45.3594ZM1113.68 44.3594V43.5859H1111.68V44.3594H1113.68ZM1113.68 43.5859C1113.68 42.056 1113.4 40.6538 1112.81 39.4003L1111 40.2482C1111.44 41.1978 1111.68 42.3034 1111.68 43.5859H1113.68ZM1112.82 39.4234C1112.25 38.1236 1111.37 37.0794 1110.2 36.3143L1109.11 37.9903C1109.95 38.5378 1110.57 39.2748 1110.99 40.225L1112.82 39.4234ZM1110.2 36.3143C1108.99 35.5245 1107.49 35.168 1105.79 35.168V37.168C1107.22 37.168 1108.3 37.4677 1109.11 37.9903L1110.2 36.3143ZM1105.79 35.168C1104.3 35.168 1102.96 35.495 1101.82 36.1931L1102.86 37.9007C1103.64 37.4269 1104.6 37.168 1105.79 37.168V35.168ZM1101.82 36.1931C1100.7 36.8732 1099.8 37.8202 1099.12 39.0075L1100.85 40.0081C1101.38 39.086 1102.05 38.3924 1102.86 37.9007L1101.82 36.1931ZM1099.11 39.0222C1098.47 40.1797 1097.99 41.519 1097.67 43.0259L1099.63 43.4428C1099.92 42.0904 1100.33 40.9453 1100.86 39.9935L1099.11 39.0222ZM1097.67 43.0383C1097.37 44.5192 1097.23 46.1329 1097.23 47.875H1099.23C1099.23 46.2421 1099.36 44.762 1099.63 43.4305L1097.67 43.0383ZM1097.23 47.875V49.2812H1099.23V47.875H1097.23ZM1097.23 49.2812C1097.23 50.8975 1097.45 52.41 1097.91 53.811L1099.81 53.189C1099.42 52.0118 1099.23 50.7119 1099.23 49.2812H1097.23ZM1097.91 53.8265C1098.4 55.2204 1099.08 56.4455 1099.96 57.4875L1101.48 56.1922C1100.78 55.3592 1100.21 54.3578 1099.8 53.1735L1097.91 53.8265ZM1099.97 57.4983C1100.89 58.5453 1101.99 59.3579 1103.27 59.9318L1104.09 58.1073C1103.07 57.6499 1102.2 57.0094 1101.48 56.1813L1099.97 57.4983ZM1103.27 59.9348C1104.59 60.5142 1106.05 60.793 1107.65 60.793V58.793C1106.29 58.793 1105.11 58.5561 1104.08 58.1042L1103.27 59.9348ZM1107.65 60.793C1109.61 60.793 1111.45 60.4152 1113.16 59.651L1112.34 57.8256C1110.9 58.4676 1109.34 58.793 1107.65 58.793V60.793ZM1113.16 59.6482C1114.91 58.852 1116.4 57.6592 1117.64 56.0888L1116.08 54.8487C1115.02 56.1846 1113.77 57.1715 1112.33 57.8284L1113.16 59.6482ZM1116.12 56.1462L1121.05 61.49L1122.52 60.135L1117.6 54.7913L1116.12 56.1462ZM1120.96 60.2424C1120.24 61.2871 1119.22 62.3159 1117.91 63.3221L1119.12 64.9123C1120.56 63.8091 1121.73 62.6348 1122.6 61.3826L1120.96 60.2424ZM1117.9 63.3271C1116.64 64.3055 1115.1 65.1255 1113.26 65.776L1113.92 67.6615C1115.93 66.9526 1117.67 66.0383 1119.13 64.9073L1117.9 63.3271ZM1113.27 65.7724C1111.47 66.3865 1109.39 66.7031 1107.02 66.7031V68.7031C1109.56 68.7031 1111.87 68.3635 1113.91 67.6651L1113.27 65.7724ZM1138.38 15.8125L1139.38 15.8451L1139.41 14.8125H1138.38V15.8125ZM1137.22 51.3555V52.3555H1138.18L1138.22 51.3881L1137.22 51.3555ZM1128.78 51.3555L1127.78 51.3891L1127.81 52.3555H1128.78V51.3555ZM1127.58 15.8125V14.8125H1126.55L1126.58 15.8461L1127.58 15.8125ZM1128.85 58.6328L1129.54 59.3562L1129.54 59.3558L1128.85 58.6328ZM1137.15 58.6328L1136.45 59.348L1136.46 59.3562L1137.15 58.6328ZM1128.85 66.0508L1128.15 66.766L1128.16 66.7738L1128.85 66.0508ZM1137.38 15.7799L1136.22 51.3228L1138.22 51.3881L1139.38 15.8451L1137.38 15.7799ZM1137.22 50.3555H1128.78V52.3555H1137.22V50.3555ZM1129.78 51.3219L1128.58 15.7789L1126.58 15.8461L1127.78 51.3891L1129.78 51.3219ZM1127.58 16.8125H1138.38V14.8125H1127.58V16.8125ZM1128.3 62.3594C1128.3 61.1167 1128.72 60.1411 1129.54 59.3562L1128.16 57.9095C1126.92 59.0933 1126.3 60.6021 1126.3 62.3594H1128.3ZM1129.54 59.3558C1130.38 58.5562 1131.5 58.1211 1133 58.1211V56.1211C1131.08 56.1211 1129.43 56.6938 1128.16 57.9098L1129.54 59.3558ZM1133 58.1211C1134.53 58.1211 1135.64 58.5588 1136.45 59.348L1137.85 57.9176C1136.59 56.6912 1134.94 56.1211 1133 56.1211V58.1211ZM1136.46 59.3562C1137.28 60.1411 1137.69 61.1167 1137.69 62.3594H1139.69C1139.69 60.6021 1139.08 59.0933 1137.84 57.9095L1136.46 59.3562ZM1137.69 62.3594C1137.69 63.5457 1137.28 64.5176 1136.45 65.3356L1137.85 66.766C1139.07 65.5684 1139.69 64.0793 1139.69 62.3594H1137.69ZM1136.45 65.3356C1135.64 66.1248 1134.53 66.5625 1133 66.5625V68.5625C1134.94 68.5625 1136.59 67.9924 1137.85 66.766L1136.45 65.3356ZM1133 66.5625C1131.5 66.5625 1130.38 66.1274 1129.54 65.3278L1128.16 66.7738C1129.43 67.9898 1131.08 68.5625 1133 68.5625V66.5625ZM1129.55 65.3356C1128.71 64.5176 1128.3 63.5457 1128.3 62.3594H1126.3C1126.3 64.0793 1126.92 65.5684 1128.15 66.766L1129.55 65.3356Z" fill="#81B29A"/>
<path d="M1257.46 15.8125V67H1246.95V15.8125H1257.46ZM1273.21 15.8125V24.0742H1231.44V15.8125H1273.21ZM1291.35 67.7031C1288.4 67.7031 1285.75 67.2344 1283.4 66.2969C1281.06 65.3359 1279.07 64.0117 1277.43 62.3242C1275.81 60.6367 1274.57 58.6797 1273.7 56.4531C1272.83 54.2031 1272.4 51.8125 1272.4 49.2812V47.875C1272.4 44.9922 1272.81 42.3555 1273.63 39.9648C1274.45 37.5742 1275.62 35.5 1277.15 33.7422C1278.69 31.9844 1280.57 30.6367 1282.77 29.6992C1284.97 28.7383 1287.46 28.2578 1290.22 28.2578C1292.92 28.2578 1295.31 28.7031 1297.4 29.5938C1299.48 30.4844 1301.23 31.75 1302.63 33.3906C1304.06 35.0312 1305.14 37 1305.87 39.2969C1306.6 41.5703 1306.96 44.1016 1306.96 46.8906V51.1094H1276.72V44.3594H1297.01V43.5859C1297.01 42.1797 1296.75 40.9258 1296.24 39.8242C1295.74 38.6992 1294.99 37.8086 1293.99 37.1523C1292.98 36.4961 1291.69 36.168 1290.12 36.168C1288.78 36.168 1287.63 36.4609 1286.67 37.0469C1285.71 37.6328 1284.93 38.4531 1284.32 39.5078C1283.73 40.5625 1283.29 41.8047 1282.98 43.2344C1282.7 44.6406 1282.56 46.1875 1282.56 47.875V49.2812C1282.56 50.8047 1282.77 52.2109 1283.19 53.5C1283.64 54.7891 1284.26 55.9023 1285.06 56.8398C1285.88 57.7773 1286.86 58.5039 1288.01 59.0195C1289.18 59.5352 1290.51 59.793 1291.98 59.793C1293.81 59.793 1295.51 59.4414 1297.08 58.7383C1298.67 58.0117 1300.04 56.9219 1301.19 55.4688L1306.11 60.8125C1305.32 61.9609 1304.23 63.0625 1302.85 64.1172C1301.49 65.1719 1299.85 66.0391 1297.92 66.7188C1296 67.375 1293.81 67.7031 1291.35 67.7031ZM1321.41 37.2578V67H1311.28V28.9609H1320.81L1321.41 37.2578ZM1332.87 28.7148L1332.69 38.1016C1332.2 38.0312 1331.6 37.9727 1330.9 37.9258C1330.22 37.8555 1329.6 37.8203 1329.04 37.8203C1327.61 37.8203 1326.37 38.0078 1325.31 38.3828C1324.28 38.7344 1323.41 39.2617 1322.71 39.9648C1322.03 40.668 1321.51 41.5234 1321.16 42.5312C1320.83 43.5391 1320.65 44.6875 1320.6 45.9766L1318.56 45.3438C1318.56 42.8828 1318.81 40.6211 1319.3 38.5586C1319.79 36.4727 1320.51 34.6562 1321.44 33.1094C1322.41 31.5625 1323.58 30.3672 1324.96 29.5234C1326.34 28.6797 1327.92 28.2578 1329.71 28.2578C1330.27 28.2578 1330.84 28.3047 1331.43 28.3984C1332.01 28.4688 1332.5 28.5742 1332.87 28.7148ZM1353.02 67.7031C1350.06 67.7031 1347.41 67.2344 1345.07 66.2969C1342.73 65.3359 1340.73 64.0117 1339.09 62.3242C1337.48 60.6367 1336.23 58.6797 1335.37 56.4531C1334.5 54.2031 1334.07 51.8125 1334.07 49.2812V47.875C1334.07 44.9922 1334.48 42.3555 1335.3 39.9648C1336.12 37.5742 1337.29 35.5 1338.81 33.7422C1340.36 31.9844 1342.23 30.6367 1344.44 29.6992C1346.64 28.7383 1349.13 28.2578 1351.89 28.2578C1354.59 28.2578 1356.98 28.7031 1359.06 29.5938C1361.15 30.4844 1362.89 31.75 1364.3 33.3906C1365.73 35.0312 1366.81 37 1367.54 39.2969C1368.26 41.5703 1368.63 44.1016 1368.63 46.8906V51.1094H1338.39V44.3594H1358.68V43.5859C1358.68 42.1797 1358.42 40.9258 1357.9 39.8242C1357.41 38.6992 1356.66 37.8086 1355.65 37.1523C1354.64 36.4961 1353.36 36.168 1351.79 36.168C1350.45 36.168 1349.3 36.4609 1348.34 37.0469C1347.38 37.6328 1346.59 38.4531 1345.98 39.5078C1345.4 40.5625 1344.95 41.8047 1344.65 43.2344C1344.37 44.6406 1344.23 46.1875 1344.23 47.875V49.2812C1344.23 50.8047 1344.44 52.2109 1344.86 53.5C1345.31 54.7891 1345.93 55.9023 1346.72 56.8398C1347.54 57.7773 1348.53 58.5039 1349.68 59.0195C1350.85 59.5352 1352.17 59.793 1353.65 59.793C1355.48 59.793 1357.18 59.4414 1358.75 58.7383C1360.34 58.0117 1361.71 56.9219 1362.86 55.4688L1367.78 60.8125C1366.98 61.9609 1365.89 63.0625 1364.51 64.1172C1363.15 65.1719 1361.51 66.0391 1359.59 66.7188C1357.67 67.375 1355.48 67.7031 1353.02 67.7031ZM1384.38 15.8125L1383.22 51.3555H1374.78L1373.58 15.8125H1384.38ZM1373.3 62.3594C1373.3 60.8594 1373.82 59.6172 1374.85 58.6328C1375.9 57.625 1377.29 57.1211 1379 57.1211C1380.73 57.1211 1382.12 57.625 1383.15 58.6328C1384.18 59.6172 1384.69 60.8594 1384.69 62.3594C1384.69 63.8125 1384.18 65.043 1383.15 66.0508C1382.12 67.0586 1380.73 67.5625 1379 67.5625C1377.29 67.5625 1375.9 67.0586 1374.85 66.0508C1373.82 65.043 1373.3 63.8125 1373.3 62.3594Z" fill="#F2CC8F"/>
</svg>
